<svg width="145" height="36" viewBox="0 0 145 36" fill="none" xmlns="http://www.w3.org/2000/svg">
<mask id="mask0_11510_6063" style="mask-type:luminance" maskUnits="userSpaceOnUse" x="0" y="0" width="39" height="36">
<path d="M24.5221 31.9889L18.378 2.14037C15.7624 9.96037 7.4707 9.52037 0.292969 4.80608L12.409 18.3975L24.5221 31.9889ZM26.7128 35.0632L20.5686 5.21751C26.0639 11.3832 33.5144 7.73751 38.2517 0.591797L32.4808 17.8289L26.7128 35.0632Z" fill="white"/>
</mask>
<g mask="url(#mask0_11510_6063)">
<path d="M7.33289 39.0148L44.5968 31.4176L37.5569 -2.78809L0.292969 4.8062L7.33289 39.0148Z" fill="url(#paint0_linear_11510_6063)"/>
</g>
<path d="M50.349 35.1035H44.1876L43.1081 31.2206H35.4078L34.202 35.1035H28.4023L35.0001 15.1777H43.9321L50.349 35.1035ZM41.7759 26.8777L39.39 19.5206H39.235L36.7974 26.8777H41.7759Z" fill="#141414"/>
<path d="M56.6358 19.7773V22.6116C57.0722 20.6459 58.4589 19.7773 61.0257 19.7773H62.7972V24.1202L59.3318 24.0688C57.4311 24.0431 56.6358 24.7831 56.6358 26.4945V35.1031H51.7578V19.7773H56.6358Z" fill="#141414"/>
<path d="M74.863 35.103H71.7823C66.8526 35.103 65.6209 34.0801 65.6209 29.943V23.863H64.082V19.7773H65.8793V16.5059H70.4989V19.7744H74.6075V23.863H70.4989V28.6916C70.4989 30.5573 70.6798 30.7601 72.2704 30.7601H74.863V35.103Z" fill="#141414"/>
<path d="M77.1719 14.666H82.3054V18.2432H77.1719V14.666ZM82.1762 19.7774V35.1032H77.2982V19.7774H82.1762Z" fill="#141414"/>
<path d="M84.3583 19.7775H85.8972C85.8972 15.6889 87.1548 14.6689 92.0586 14.6689H101.042V18.2461H92.2883C90.9274 18.2461 90.7724 18.3747 90.7724 19.6261V19.7804H94.1086V23.8689H90.7724V35.1089H85.8944V23.8632H84.3555V19.7775H84.3583ZM100.916 19.7775V35.1032H96.0379V19.7775H100.916Z" fill="#141414"/>
<path d="M110.875 31.8345C113.365 31.8345 113.649 31.706 113.649 30.6603C113.649 29.8945 112.931 29.5631 110.003 29.026C104.766 28.0031 103.457 27.0345 103.457 24.0945C103.457 20.3917 104.97 19.4717 111.005 19.4717C116.908 19.4717 118.398 20.5203 118.398 24.6574V25.1174H113.52V24.6574C113.52 23.2003 113.264 23.0488 111.005 23.0488C108.823 23.0488 108.593 23.1774 108.593 24.2488C108.593 24.9631 109.029 25.1945 110.723 25.4488C117.166 26.4974 118.782 27.6203 118.782 31.0174C118.782 34.5431 117.218 35.4117 111.005 35.4117C104.691 35.4117 103.098 34.3888 103.098 30.3031V29.9717H107.976V30.3031C107.976 31.6803 108.257 31.8345 110.875 31.8345Z" fill="#141414"/>
<path d="M125.717 19.7774V21.5403C126.231 20.1088 127.411 19.4717 129.337 19.4717C132.854 19.4717 134.241 20.1603 134.652 22.6145C135.114 20.4431 136.423 19.4717 138.835 19.4717C143.532 19.4717 144.712 20.826 144.712 26.2145V35.1031H139.834V26.8517C139.834 23.8888 139.604 23.5574 137.574 23.5574C135.88 23.5574 135.163 24.5031 135.189 26.6745V35.1031H130.362V26.8517C130.362 23.8888 130.133 23.5574 128.077 23.5574C126.435 23.5574 125.714 24.5031 125.714 26.6745V35.1031H120.836V19.7774H125.717Z" fill="#141414"/>
<defs>
<linearGradient id="paint0_linear_11510_6063" x1="29.0981" y1="33.8696" x2="15.1554" y2="0.523339" gradientUnits="userSpaceOnUse">
<stop stop-color="#E60C84"/>
<stop offset="1" stop-color="#FFCF4B"/>
</linearGradient>
</defs>
</svg>
