<?xml version="1.0" encoding="utf-8"?>
<!-- Generator: Adobe Illustrator 25.4.1, SVG Export Plug-In . SVG Version: 6.00 Build 0)  -->
<svg version="1.1" id="Calque_2" xmlns="http://www.w3.org/2000/svg" xmlns:xlink="http://www.w3.org/1999/xlink" x="0px" y="0px"
	 viewBox="0 0 66.7 66.7" style="enable-background:new 0 0 66.7 66.7;" xml:space="preserve">
<style type="text/css">
	.st0{fill:#FFFFFF;}
	.st1{fill:#94BE6D;}
</style>
<g>
	<path class="st0" d="M45.1,40.7c-0.8-2.4-1.6-4.7-2.4-7.1c0-0.1-0.1-0.2-0.1-0.4l-0.5,0c-3.8,0.3-7.5,0.5-11.3,0.8
		c-0.8,0.1-1.4-0.6-1.1-1.3c0.1-0.4,0.5-0.6,0.9-0.7c0.8-0.1,1.7-0.1,2.5-0.2l8.9-0.6l0.5,0c0.2-1.2,0.4-2.3,0.6-3.4
		c0.4-2.1,0.8-4.2,1.1-6.3c0.2-1.3-0.2-2.5-1.2-3.3c-1.1-0.8-2.3-0.9-3.5-0.3c-8.9,4.4-17.8,8.9-26.6,13.3c-1,0.5-1.6,1.3-1.8,2.4h0
		c0,0.1,0,0.2-0.1,0.2L11,35c0.2,0.4,0.3,0.8,0.5,1.1c0.4,0.7,1.1,1.1,1.8,1.3c5.6,1.9,11.2,3.8,16.9,5.6c3.8,1.3,7.5,2.5,11.3,3.8
		c2.4,0.8,4.8-1.2,4.3-3.7C45.7,42.3,45.3,41.5,45.1,40.7z"/>
	<path class="st1" d="M61.8,4.9C56.9,0,49,0,33.3,0C17.6,0,9.8,0,4.9,4.9S0,17.6,0,33.3C0,49,0,56.9,4.9,61.8s12.7,4.9,28.5,4.9
		c15.7,0,23.6,0,28.5-4.9s4.9-12.7,4.9-28.5S66.7,9.8,61.8,4.9z M41.5,46.8c-3.8-1.2-7.5-2.5-11.3-3.8c-5.6-1.9-11.2-3.8-16.9-5.6
		c-0.8-0.2-1.4-0.7-1.8-1.3c-0.2-0.3-0.4-0.7-0.5-1.1l-0.1-1.1c0-0.1,0.1-0.2,0.1-0.2h0c0.2-1.1,0.8-1.9,1.8-2.4
		c8.9-4.4,17.8-8.9,26.6-13.3c1.2-0.6,2.5-0.5,3.5,0.3c1.1,0.8,1.5,2,1.2,3.3c-0.4,2.1-0.8,4.2-1.1,6.3c-0.2,1.1-0.4,2.3-0.6,3.4
		l-0.5,0L33,31.9c-0.8,0.1-1.7,0.1-2.5,0.2c-0.4,0-0.8,0.2-0.9,0.7c-0.3,0.7,0.3,1.4,1.1,1.3c3.8-0.3,7.6-0.5,11.3-0.8l0.5,0
		c0,0.2,0.1,0.3,0.1,0.4c0.8,2.4,1.6,4.7,2.4,7.1c0.3,0.8,0.6,1.6,0.8,2.5C46.3,45.6,43.9,47.6,41.5,46.8z"/>
</g>
</svg>
