<?xml version="1.0" encoding="utf-8"?>
<!-- Generator: Adobe Illustrator 25.4.1, SVG Export Plug-In . SVG Version: 6.00 Build 0)  -->
<svg version="1.1" id="Calque_2" xmlns="http://www.w3.org/2000/svg" xmlns:xlink="http://www.w3.org/1999/xlink" x="0px" y="0px"
	 viewBox="0 0 65.6 65.6" style="enable-background:new 0 0 65.6 65.6;" xml:space="preserve">
<style type="text/css">
	.st0{fill:#FFFFFF;}
	.st1{fill-rule:evenodd;clip-rule:evenodd;fill:#94BE6D;}
</style>
<rect x="9.2" y="10" class="st0" width="47.5" height="45.9"/>
<rect x="7.7" y="6.7" class="st0" width="52.5" height="49.2"/>
<g id="Calque_77">
	<g>
		<path class="st1" d="M45.4,39.6H34.9c-0.9,0-1.6,0.7-1.6,1.6s0.7,1.6,1.6,1.6h10.5c0.9,0,1.6-0.7,1.6-1.6S46.3,39.6,45.4,39.6z"/>
		<path class="st1" d="M27.4,21.2l-4.9,5.1L21.3,25c-0.6-0.6-1.6-0.7-2.2,0c-0.6,0.6-0.7,1.6,0,2.2l2.4,2.5c0.3,0.3,0.7,0.5,1.1,0.5
			s0.9-0.2,1.1-0.5l6-6.3c0.6-0.6,0.6-1.6,0-2.2S28.1,20.5,27.4,21.2L27.4,21.2z"/>
		<path class="st1" d="M27.4,35.9L22.6,41l-1.3-1.3c-0.6-0.6-1.6-0.7-2.2,0c-0.6,0.6-0.7,1.6,0,2.2l2.4,2.5c0.3,0.3,0.7,0.5,1.1,0.5
			s0.9-0.2,1.1-0.5l6-6.3c0.6-0.6,0.6-1.6,0-2.2S28.1,35.3,27.4,35.9L27.4,35.9z"/>
		<path class="st1" d="M45.4,24.9H34.9c-0.9,0-1.6,0.7-1.6,1.6s0.7,1.6,1.6,1.6h10.5c0.9,0,1.6-0.7,1.6-1.6S46.3,24.9,45.4,24.9z"/>
		<path class="st1" d="M60.8,4.8C56,0,48.2,0,32.8,0S9.6,0,4.8,4.8S0,17.3,0,32.8s0,23.2,4.8,28s12.5,4.8,28,4.8s23.2,0,28-4.8
			s4.8-12.5,4.8-28S65.6,9.6,60.8,4.8z M50.8,50.8c-3.1,3.1-8,3.1-18,3.1s-14.9,0-18-3.1s-3.1-8-3.1-18s0-14.9,3.1-18s8-3.1,18-3.1
			s14.9,0,18,3.1c3.1,3.1,3.1,8,3.1,18S53.8,47.7,50.8,50.8z"/>
	</g>
</g>
</svg>
