<?xml version="1.0" encoding="UTF-8"?>
<svg id="Calque_2" data-name="Calque 2" xmlns="http://www.w3.org/2000/svg" viewBox="0 0 20.28 20.28">
  <defs>
    <style>
      .cls-1 {
        fill: #94be6d;
        fill-rule: evenodd;
        stroke-width: 0px;
      }
    </style>
  </defs>
  <g id="Calque_77" data-name="Calque 77">
    <path class="cls-1" d="M10.14,20.28c-4.78,0-7.17,0-8.65-1.48-1.48-1.48-1.48-3.87-1.48-8.65S0,2.97,1.48,1.48C2.97,0,5.36,0,10.14,0s7.17,0,8.65,1.48c1.48,1.48,1.48,3.87,1.48,8.65s0,7.17-1.48,8.65c-1.48,1.48-3.87,1.48-8.65,1.48ZM14.22,7.07c.3.3.3.78,0,1.08l-5.07,5.07c-.3.3-.78.3-1.08,0l-2.03-2.03c-.3-.3-.3-.78,0-1.08.3-.3.78-.3,1.08,0l1.49,1.49,4.53-4.53c.3-.3.78-.3,1.08,0Z"/>
  </g>
</svg>