<?xml version="1.0" encoding="UTF-8"?>
<svg id="Calque_2" data-name="Calque 2" xmlns="http://www.w3.org/2000/svg" viewBox="0 0 66.66 66.66">
  <defs>
    <style>
      .cls-1 {
        fill: #94be6d;
        stroke-width: 0px;
      }
    </style>
  </defs>
  <g id="Calque_77" data-name="Calque 77">
    <path class="cls-1" d="M4.88,61.78c4.88,4.88,12.74,4.88,28.45,4.88s23.57,0,28.45-4.88c4.88-4.88,4.88-12.74,4.88-28.45s0-23.57-4.88-28.45C56.9,0,49.04,0,33.33,0S9.76,0,4.88,4.88C0,9.76,0,17.62,0,33.33s0,23.57,4.88,28.45ZM10.98,33.7c.21-1.1.81-1.92,1.81-2.43,8.88-4.44,17.76-8.88,26.64-13.32,1.23-.61,2.45-.54,3.55.31,1.08.83,1.47,1.96,1.23,3.3-.38,2.09-.75,4.18-1.13,6.27-.21,1.13-.42,2.26-.63,3.41l-.55.04-8.89.63c-.84.06-1.68.12-2.52.18-.44.03-.75.25-.9.67-.26.72.3,1.35,1.13,1.3,3.78-.26,7.55-.53,11.32-.8l.54-.04c.05.15.1.27.14.39.79,2.36,1.57,4.73,2.36,7.09.27.81.6,1.61.76,2.45.47,2.43-1.91,4.45-4.32,3.66-3.77-1.23-7.53-2.5-11.3-3.76-5.63-1.88-11.25-3.75-16.88-5.63-.76-.25-1.4-.65-1.83-1.32-.22-.34-.36-.73-.54-1.1l-.08-1.06c.03-.08.06-.16.08-.24Z"/>
  </g>
</svg>