<?xml version="1.0" encoding="UTF-8"?>
<svg id="Calque_2" data-name="Calque 2" xmlns="http://www.w3.org/2000/svg" viewBox="0 0 24.46 24.46">
  <defs>
    <style>
      .cls-1 {
        fill: #94be6d;
        fill-rule: evenodd;
        stroke-width: 0px;
      }
    </style>
  </defs>
  <g id="Calque_77" data-name="Calque 77">
    <path class="cls-1" d="M12.23,24.46c-5.76,0-8.65,0-10.44-1.79-1.79-1.79-1.79-4.67-1.79-10.44S0,3.58,1.79,1.79C3.58,0,6.46,0,12.23,0s8.65,0,10.44,1.79c1.79,1.79,1.79,4.67,1.79,10.44s0,8.65-1.79,10.44c-1.79,1.79-4.67,1.79-10.44,1.79ZM17.16,8.52c.36.36.36.94,0,1.3l-6.11,6.11c-.36.36-.94.36-1.3,0l-2.45-2.45c-.36-.36-.36-.94,0-1.3.36-.36.94-.36,1.3,0l1.8,1.8,5.47-5.47c.36-.36.94-.36,1.3,0Z"/>
  </g>
</svg>