<?xml version="1.0" encoding="UTF-8"?>
<svg id="Calque_2" data-name="Calque 2" xmlns="http://www.w3.org/2000/svg" xmlns:xlink="http://www.w3.org/1999/xlink" viewBox="0 0 23.55 23.55">
  <defs>
    <style>
      .cls-1 {
        fill: url(#Dégradé_sans_nom_24-2);
      }

      .cls-1, .cls-2, .cls-3 {
        stroke-width: 0px;
      }

      .cls-2 {
        fill: url(#Dégradé_sans_nom_24);
      }

      .cls-3 {
        fill: #95bf6d;
      }
    </style>
    <radialGradient id="Dégradé_sans_nom_24" data-name="Dégradé sans nom 24" cx="11.78" cy="11.78" fx="11.78" fy="11.78" r="7.41" gradientUnits="userSpaceOnUse">
      <stop offset=".12" stop-color="#333131"/>
      <stop offset=".96" stop-color="#0d130c"/>
    </radialGradient>
    <radialGradient id="Dégradé_sans_nom_24-2" data-name="Dégradé sans nom 24" cx="12.22" cy="11.46" fx="12.22" fy="11.46" r="3.72" xlink:href="#Dégradé_sans_nom_24"/>
  </defs>
  <g id="Calque_77" data-name="Calque 77">
    <g>
      <circle class="cls-3" cx="11.78" cy="11.78" r="11.78"/>
      <g>
        <path class="cls-2" d="M19.11,10.9c-.18-1.54-.83-3-1.87-4.18-.43-.49-.93-.89-1.48-1.24-.14-.09-.3-.16-.45-.24-.02-.02-.04-.04-.07-.05-.66-.35-1.36-.59-2.1-.72-.48-.08-.97-.13-1.46-.13-.15,0-.3,0-.44.03-.38.05-.75.09-1.12.16-.63.13-1.23.37-1.8.69-.18.11-.38.2-.55.32-.31.22-.61.45-.89.71-.28.26-.56.53-.8.83-.27.35-.51.72-.73,1.1-.19.31-.32.65-.44.99-.13.35-.24.71-.32,1.07-.03.12-.05.24-.06.36-.1.7-.12,1.44,0,2.14.07.33.12.67.21,1,.15.54.36,1.05.64,1.53.03.05.05.11.04.16-.08.3-.17.6-.25.9,0,.01-.02.03-.02.04-.06.25-.1.51-.17.76-.06.25-.16.49-.23.73-.1.33-.19.67-.28,1-.03.1-.05.21-.08.33.66-.17,1.29-.34,1.92-.51.49-.13.98-.26,1.47-.39.1-.03.2-.06.3-.1h0c.06-.01.12-.05.17-.03.37.15.72.33,1.1.46.09.03.18.06.27.08.05.02.11.03.16.05.11.03.21.06.32.09.21.05.42.08.63.11.23.03.45.06.68.07.21,0,.42,0,.63-.01.21-.01.41-.02.62-.03.44-.03.86-.13,1.27-.26,2.2-.66,4.03-2.41,4.8-4.57.13-.36.23-.73.3-1.1.14-.73.16-1.46.08-2.18ZM17.89,11.84c-.05,1.27-.45,2.53-1.18,3.52-1,1.36-2.76,2.45-4.49,2.46-1.21,0-2.33-.16-3.39-.79-.11-.06-.22-.13-.35-.15-.1-.01-.2.01-.3.04-.33.09-.66.17-.99.26-.21.05-.41.12-.62.18-.09.02-.18.07-.28.07-.14,0-.09-.12-.06-.22.12-.43.23-.86.35-1.29.04-.15.1-.3.13-.45.04-.16-.01-.35-.07-.49-.07-.17-.16-.32-.24-.48-.5-.91-.73-1.97-.68-3,.02-.48.1-.97.22-1.43.13-.49.33-.97.58-1.41.16-.28.35-.55.55-.81.61-.76,1.41-1.36,2.3-1.75.23-.1.47-.19.72-.27,2.56-.84,5.43.4,6.9,2.58.66.99.95,2.21.91,3.42Z"/>
        <path class="cls-1" d="M11.38,13.96c-1.12-.75-2.05-1.79-2.65-3-.22-.44-.39-.92-.38-1.4.01-.31.11-.61.26-.88.15-.26.31-.55.59-.69.16-.08.34-.11.51-.1.15,0,.3.03.42.12.19.13.26.36.35.56.11.26.21.53.32.8.1.24.2.52.08.76-.07.15-.21.25-.33.36s-.23.26-.2.43c.01.08.05.15.09.21.57.94,1.44,1.7,2.45,2.14.11.05.23.09.34.05.08-.03.13-.1.18-.16.17-.22.35-.43.52-.65.05-.07.11-.14.19-.16.09-.03.19.01.27.05.48.22.96.45,1.43.69.06.03.11.06.16.1.07.08.09.19.09.3,0,.33-.12.66-.33.92-.32.4-.85.61-1.36.63s-1.03-.11-1.51-.29c-.53-.2-1.03-.46-1.51-.78Z"/>
      </g>
    </g>
  </g>
</svg>