<?xml version="1.0" encoding="UTF-8"?>
<svg id="Calque_2" data-name="Calque 2" xmlns="http://www.w3.org/2000/svg" xmlns:xlink="http://www.w3.org/1999/xlink" viewBox="0 0 46.18 46.49">
  <defs>
    <style>
      .cls-1 {
        fill: #9fbd7b;
      }

      .cls-1, .cls-2, .cls-3, .cls-4, .cls-5, .cls-6, .cls-7, .cls-8, .cls-9, .cls-10, .cls-11, .cls-12, .cls-13, .cls-14, .cls-15, .cls-16, .cls-17, .cls-18, .cls-19, .cls-20, .cls-21, .cls-22, .cls-23, .cls-24, .cls-25, .cls-26, .cls-27, .cls-28, .cls-29, .cls-30, .cls-31, .cls-32 {
        stroke-width: 0px;
      }

      .cls-2 {
        fill: #a0bd7d;
      }

      .cls-3 {
        fill: #a2be7e;
      }

      .cls-4 {
        fill: #a2be7f;
      }

      .cls-5 {
        fill: #a9c280;
      }

      .cls-6 {
        fill: #a5bf80;
      }

      .cls-7 {
        fill: #aec380;
      }

      .cls-8 {
        fill: #9cbc79;
      }

      .cls-9 {
        fill: #b2c680;
      }

      .cls-10 {
        fill: #afc480;
      }

      .cls-11 {
        fill: none;
      }

      .cls-12 {
        fill: #b6c880;
      }

      .cls-13 {
        fill: #a4bf80;
      }

      .cls-14 {
        fill: #a6c080;
      }

      .cls-15 {
        fill: #9fbd7c;
      }

      .cls-16 {
        fill: #a8c180;
      }

      .cls-17 {
        fill: #a3bf80;
      }

      .cls-18 {
        fill: #9ebc7a;
      }

      .cls-19 {
        fill: #acc380;
      }

      .cls-20 {
        fill: #baca80;
      }

      .cls-21 {
        fill: #0d130c;
      }

      .cls-22 {
        fill: #9cbb79;
      }

      .cls-33 {
        clip-path: url(#clippath);
      }

      .cls-23 {
        fill: #b4c880;
      }

      .cls-24 {
        fill: #abc280;
      }

      .cls-25 {
        fill: #a0bd7c;
      }

      .cls-26 {
        fill: #a7c080;
      }

      .cls-27 {
        fill: #b8c980;
      }

      .cls-28 {
        fill: #b0c580;
      }

      .cls-29 {
        fill: #9dbc7a;
      }

      .cls-30 {
        fill: #a1be7d;
      }

      .cls-31 {
        fill: #9ebc7b;
      }

      .cls-32 {
        fill: #bccb80;
      }
    </style>
    <clipPath id="clippath">
      <rect class="cls-11" x=".02" width="46.15" height="46.49" rx="7.01" ry="7.01"/>
    </clipPath>
  </defs>
  <g id="Calque_77" data-name="Calque 77">
    <g>
      <g class="cls-33">
        <g>
          <rect class="cls-32" x=".02" width="6.83" height="46.49"/>
          <rect class="cls-32" x="6.86" width=".86" height="46.49"/>
          <rect class="cls-20" x="7.72" width=".86" height="46.49"/>
          <rect class="cls-27" x="8.59" width=".86" height="46.49"/>
          <rect class="cls-12" x="9.45" width=".86" height="46.49"/>
          <rect class="cls-23" x="10.31" width=".86" height="46.49"/>
          <rect class="cls-9" x="11.18" width=".86" height="46.49"/>
          <rect class="cls-28" x="12.04" width=".86" height="46.49"/>
          <rect class="cls-10" x="12.91" width=".86" height="46.49"/>
          <rect class="cls-7" x="13.77" width=".86" height="46.49"/>
          <rect class="cls-19" x="14.63" width=".86" height="46.49"/>
          <rect class="cls-24" x="15.5" width=".86" height="46.49"/>
          <rect class="cls-5" x="16.37" width=".86" height="46.49"/>
          <rect class="cls-16" x="17.24" width=".86" height="46.49"/>
          <rect class="cls-26" x="18.1" width=".86" height="46.49"/>
          <rect class="cls-14" x="18.96" width=".86" height="46.49"/>
          <rect class="cls-6" x="19.83" width=".86" height="46.49"/>
          <rect class="cls-13" x="20.69" width=".86" height="46.49"/>
          <rect class="cls-17" x="21.55" width=".86" height="46.49"/>
          <rect class="cls-4" x="22.42" width=".86" height="46.49"/>
          <rect class="cls-3" x="23.28" width=".86" height="46.49"/>
          <rect class="cls-30" x="24.15" width=".86" height="46.49"/>
          <rect class="cls-2" x="25.01" width=".86" height="46.49"/>
          <rect class="cls-25" x="25.87" width=".86" height="46.49"/>
          <rect class="cls-15" x="26.74" width=".86" height="46.49"/>
          <rect class="cls-1" x="27.61" width=".86" height="46.49"/>
          <rect class="cls-31" x="28.48" width=".86" height="46.49"/>
          <rect class="cls-18" x="29.34" width=".86" height="46.49"/>
          <rect class="cls-29" x="30.2" width=".86" height="46.49"/>
          <rect class="cls-29" x="31.07" width=".86" height="46.49"/>
          <rect class="cls-29" x="31.93" width=".86" height="46.49"/>
          <rect class="cls-8" x="32.79" width=".86" height="46.49"/>
          <rect class="cls-8" x="33.66" width=".86" height="46.49"/>
          <rect class="cls-22" x="34.52" width=".86" height="46.49"/>
          <rect class="cls-22" x="35.39" width=".86" height="46.49"/>
          <rect class="cls-22" x="36.25" width=".86" height="46.49"/>
          <rect class="cls-22" x="37.11" width=".86" height="46.49"/>
          <rect class="cls-22" x="37.98" width=".86" height="46.49"/>
          <rect class="cls-22" x="38.84" width=".86" height="46.49"/>
          <rect class="cls-22" x="39.72" width=".86" height="46.49"/>
          <rect class="cls-22" x="40.58" width=".86" height="46.49"/>
          <rect class="cls-22" x="41.44" width="4.74" height="46.49"/>
        </g>
      </g>
      <path class="cls-21" d="M23.05,10.97C15.61,21.8,7.76,32.21.28,43.07c-.17-.32-.25-.68-.25-1.05-.03-3.62-.03-7.2-.03-10.73-.02-.3.07-.6.25-.84l4.71-6.36c.39-.49.95-.81,1.57-.89,1.34-.22,2.4-1.27,2.62-2.62.24-1.24-.33-2.49-1.41-3.13-1.12-.72-2.58-.64-3.61.21-1.02.78-1.42,2.13-.98,3.34.23.51.18,1.11-.14,1.57L.19,26.51c-.14-.2-.2-.44-.18-.68V4.74C.06,2.27,1.96.25,4.41.03h36.52c.94-.02,1.88.2,2.72.63.48.24.55.46.22.92-1.98,2.72-3.93,5.46-5.89,8.19l-11.27,15.7-9.04,12.63c-.12.17-.38.31-.3.51s.42.13.61.12c5.81-.2,11.62.12,17.43,0,.92-.07,1.83.23,2.53.82,1.41,1.18,3.51.99,4.68-.42.08-.09.15-.19.21-.28.84-1.34.53-3.11-.72-4.08-1.22-1-3-.89-4.08.25-.61.66-1.49,1.01-2.38.94h-12.91L45.87,3.39c.21.46.31.96.29,1.47v10.04c0,.3-.09.59-.26.84-1.63,2.25-3.25,4.51-4.87,6.78-.39.49-.96.81-1.58.88-1.69.29-2.83,1.9-2.54,3.6.09.53.32,1.02.66,1.44.82.98,2.16,1.37,3.38.98,1.15-.35,1.99-1.35,2.13-2.55.05-.3.01-.6-.1-.88-.34-.63-.25-1.4.22-1.94.94-1.31,1.88-2.62,2.83-3.93.25.08.14.33.14.51v20.94c0,2.68-2.16,4.86-4.84,4.87-.06,0-.12,0-.17,0H5.24c-.9.06-1.8-.11-2.62-.5-.81-.42-.84-.46-.31-1.18l7.28-10.15L27.72,9.28c.22-.31.64-.67.48-.99s-.67-.12-1.02-.12H10.09c-.79.05-1.55-.3-2.03-.93-.9-1.06-2.43-1.32-3.62-.61-1.23.63-1.93,1.96-1.75,3.32.34,1.33,1.45,2.33,2.81,2.51,1.02.12,2.04-.25,2.76-.98.35-.35.82-.55,1.31-.55h13.08l.39.04Z"/>
    </g>
  </g>
</svg>