<?xml version="1.0" encoding="utf-8"?>
<!-- Generator: Adobe Illustrator 28.0.0, SVG Export Plug-In . SVG Version: 6.00 Build 0)  -->
<svg version="1.1" id="Layer_1" xmlns="http://www.w3.org/2000/svg" xmlns:xlink="http://www.w3.org/1999/xlink" x="0px" y="0px"
	 viewBox="0 0 523.5 64.3" style="enable-background:new 0 0 523.5 64.3;" xml:space="preserve">
<style type="text/css">
	.st0{fill:none;}
	.st1{fill:#D79E00;}
</style>
<rect class="st0" width="523.5" height="64.3"/>
<g transform="translate(0 0)">
	<path class="st1" d="M0,23.1c1.4-0.4,1.4-1.8,1.7-2.8c5.4-15.5,17-22.1,34.7-20c13.3,1.6,23.4,13,24.3,27.7
		c0.7,12-1.5,23.1-12.2,30.5c-13.7,9.9-32.9,6.7-42.7-7.1c-1.9-2.7-3.4-5.6-4.4-8.8c-0.3-1-0.1-2.4-1.5-2.9V23.1z M46.4,31.9
		c-0.3-10-2.3-18.2-8-25.1c-5-6.1-10.8-6-15.9-0.1C12.1,18.9,12,44.6,22.4,56.9c5.4,6.4,11.2,6.4,16.4-0.4
		C44.8,48.9,46.3,40,46.4,31.9"/>
	<path class="st1" d="M207,26.4c-4.5,11.5-8.9,22.6-13.3,33.8c-0.7,1.8-1,3.7-3.8,3.7c-2.9,0.1-3.5-1.7-4.3-3.8
		c-6.7-16.9-13.4-33.9-20.1-50.8c-0.8-2-1.3-4.1-2.9-5.6c-2.2-2.1-1.5-3.1,1.2-3.1c5.2-0.1,10.3-0.1,15.5,0c2,0,3.8,0.4,1.4,2.6
		c-1.4,1.3-1.2,2.6-0.7,4c4.9,12.5,9.9,25,15.2,38.4c3.5-8.8,6.6-16.6,9.8-24.5c0.8-2-0.4-3.5-1.1-5.1c-2-4.4-2.6-9.5-6.3-13.2
		c-1.2-1.1-0.4-2.2,1.2-2.2c5.7-0.1,11.3-0.1,17,0c1.9,0,2.6,1.2,1.1,2.4c-1.3,0.8-1.7,2.5-1,3.9c5,12.6,10,25.2,15.3,38.8
		c5.4-13.6,10.5-26.3,15.5-38.9c0.3-0.7,0.4-1.5,0.3-2.3c-0.1-1.3-3.3-2.1-1.2-3.4c2-1.3,4.8-0.7,7.3-0.2c1,0.2,0.8,1.2,0.3,2
		c-7.8,13.2-11.6,28.1-17.6,42.1c-2.2,5.1-4.1,10.4-6.1,15.6c-0.7,2-1.5,3.4-4.1,3.3c-2.4-0.1-3-1.5-3.7-3.2c-4-10.1-8-20.1-12-30.2
		C209.1,29.2,208.9,27.7,207,26.4"/>
	<path class="st1" d="M312.6,62.5c3.2-1.6,3.5-4.2,3.4-7.1c-0.1-6.2-0.1-12.5,0-18.7c0-3.3-1.4-4.8-4.8-4.7c-4.7,0.1-9.3,0.1-14,0
		c-3.3-0.1-5,1.2-5,4.5c0,6.9,0.1,13.8,0,20.7c0,2.5,1.4,4.2,3.6,5.5c-0.2,0.4-0.4,0.8-0.6,1.2c-6,0-12,0.1-18,0
		c-1.7,0-2.1-1.2-0.7-2.1c2.5-1.6,2.2-3.8,2.2-6.1c0-15.4,0-30.9,0-46.3c0-1.6,0.3-3.3-0.7-4.8c-0.7-1-2.9-1.4-2.1-2.9
		c0.9-1.8,3-0.8,4.5-0.9c4.3-0.1,8.6-0.1,13,0c1.5,0,3.2,0.9,1.5,2.2c-3.3,2.4-2.4,5.5-2.5,8.5c-0.1,4.6,0,9.2,0,13.8
		c0,3.2,1.6,4.8,4.9,4.8c4.7,0,9.3,0,14,0c3.2,0,4.9-1.5,4.9-4.8c-0.1-5.9,0-11.8-0.1-17.7c-0.1-1-0.3-1.9-0.7-2.8
		c-0.5-1.1-2.8-1.5-2.1-2.9c0.9-1.8,3-0.9,4.5-0.9c4.2-0.1,8.3-0.1,12.5,0c2.3,0,3.6,0.8,1.3,2.7c-1.8,1.5-1.8,3.4-1.8,5.3
		c0,15.8,0,31.5,0,47.3c0,1.5-0.3,3.1,0.8,4.3c4.3,4.3,0.2,3.5-2.2,3.6c-5.1,0.1-10.1,0-15.2,0L312.6,62.5"/>
	<path class="st1" d="M115.3,24.5c4.4-6.1,8.6-11.8,12.7-17.5c0.6-0.8,1.2-1.9,0.5-2.7c-5-5.8,1.3-3,2.9-3.6c0.8-0.2,1.7-0.2,2.5,0
		c0.9,0.1,2.2-0.4,2.7,0.6c0.8,1.5-0.8,1.8-1.5,2.6c-5.5,7.4-10.9,14.9-16.4,22.2c-1.5,2-0.3,3.3,0.7,4.8
		c6.8,10.7,13.7,21.5,20.9,32.9c-6.9,0-13.4,0.1-20,0c-2,0-2.4-1.1-0.8-2.4c1.9-1.5,0.9-2.9,0-4.3c-4.1-6.4-8.1-12.7-12.6-19.7
		c-5.2,7.1-10,13.8-15,20.5c-1.6,2.2,0.4,3.5,1.9,5.1c-4,1.2-7.2,0.7-11.1,0.5c7.7-9,13.6-18.2,20.2-26.9c1.4-1.8,1.7-3.2,0.3-5.2
		C96.9,22.2,91.8,12,84.6,3.2c-1.5-1.9-0.6-2.6,1.4-2.6c5.8,0,11.6,0,17.4,0c2.1,0,3,0.9,1.3,2.5c-1.7,1.5-1.2,2.8-0.3,4.3
		C108,13,111.5,18.5,115.3,24.5"/>
	<path class="st1" d="M510.7,22.7v16c-2.3-8.6-9.2-6.6-15.1-6.8c-2.6-0.1-4.2,1.1-4.2,3.7c-0.1,7.4-0.1,14.8,0,22.1
		c0,2.6,1.4,3.9,4.1,3.9c4.2,0,8.3,0.1,12.5,0c6.1-0.2,9.5-2.9,11.1-8.7c0.4-1.5,0.2-3.6,2.7-3.3c2.6,0.4,1.5,2.6,1.6,4
		c0.3,10.2,0.2,10.2-9.9,10.2c-11.5,0-22.9,0-34.4,0c-2.2,0-6.3,0.8-2.2-3.4c1.2-1.3,0.9-3.1,0.9-4.7c0-15.6,0-31.2,0-46.7
		c0-1.5,0.4-3.2-0.7-4.3c-4.2-4.1-1-4.1,2.3-4.1c13.1,0,26.3,0.1,39.4-0.1c3.2,0,4.5,0.9,4.2,4.2c-0.2,2.6,0,5.2-0.1,7.9
		c0,1.1,0.1,2.4-1.6,2.5c-1.3,0.1-1.9-0.4-2.5-1.7c-4.1-9.5-15-14-24.7-10.3c-2,0.8-2.6,2.3-2.6,4.3c0,5.9,0,11.8,0,17.7
		c0,3,1.5,4.4,4.5,4.7C504,30.7,506.7,29.4,510.7,22.7"/>
	<path class="st1" d="M436,63.9c-7.4,0-13.1,0.1-18.9,0c-2.3,0-2.7-1.1-0.8-2.6c1.8-1.4,1.8-3.4,1.8-5.4c0-15.6,0-31.2,0-46.7
		c0-5.7-1.7-6.9-7.3-5.9c-5.3,0.9-8,4.2-9.3,9.1c-0.4,1.4,0,3.1-2.4,2.9c-2.4-0.2-1.7-2-1.8-3.3c-0.6-11.2-0.6-11.2,10.8-11.2
		c13.1,0,26.2,0.2,39.4-0.1c4.1-0.1,5.3,1.3,4.8,5c-0.2,2.1,0,4.3-0.1,6.4c-0.1,1.2,0.6,2.8-1.3,3.2c-2,0.4-2.3-1-2.8-2.6
		c-1.9-6.5-5-9-11-9.6c-3.7-0.3-5.7,1.2-5.7,5c0,16.2,0.1,32.5,0,48.7C431.4,59.4,433.1,61,436,63.9"/>
	<path class="st1" d="M374.7,63.8c-5.9,0-11.8,0.1-17.7-0.1c-2.2-0.1-2-1.3-0.5-2.4c1.8-1.4,1.7-3.4,1.7-5.4c0-15.7,0-31.4,0-47.2
		c0-1.5,0.5-3.2-0.7-4.3c-4.2-4-1.2-4,2.1-4c4.3,0,8.6,0,12.9,0c2.2,0,3.6,0.8,1.3,2.7c-2.1,1.7-1.7,3.7-1.7,5.8
		c0,15.4,0,30.8-0.1,46.2c0,2.9,0.3,5.5,3.2,7.2C375,63,374.9,63.4,374.7,63.8"/>
</g>
</svg>
