<svg xmlns="http://www.w3.org/2000/svg" xmlns:xlink="http://www.w3.org/1999/xlink" width="336.694" height="100.711" viewBox="0 0 336.694 100.711"><defs><clipPath id="a"><rect width="336.694" height="100.711" fill="none"/></clipPath></defs><g clip-path="url(#a)"><path d="M50.456,124.439c-3.1,1.773-6.534,2.7-9.841,3.952-1.15.434-2.323-.145-3.369-.483a51.524,51.524,0,0,1-10.522-4.251,61.956,61.956,0,0,1-6.376-4.055,45.826,45.826,0,0,1-6.478-5.709,53.849,53.849,0,0,1-7.009-9.554,37.088,37.088,0,0,1-1.813-3.27,58.146,58.146,0,0,1-3.1-8.374A45.458,45.458,0,0,1,.33,84.329c0-.055-.215-.1-.33-.143V73.721c.364-.027.672.112.849-.508.358-1.251.842-2.5,1.1-3.752.27-1.335,1.371-2.293,1.371-3.675a70.55,70.55,0,0,1,4.525-7,32.636,32.636,0,0,1,5.589-5.481,30.783,30.783,0,0,1,7.818-4.481c.9-.349,1.961-.54,2.843-.928,1.032-.455,2.207-.031,3.124-.742,2.191.3,4.3-.618,6.492-.413.733.069,1.478.011,2.218.011.046.254-.118.331-.318.4-3.6,1.327-6.5,3.739-9.27,6.24a30.916,30.916,0,0,0-3.221,3.846,35,35,0,0,0-5.2,9.318A34.3,34.3,0,0,0,15.77,77.723a25.2,25.2,0,0,0,.28,5.074c.3,1.684.615,3.381.906,5.074.445,2.595,3.472,8.921,5.153,10.937a21.731,21.731,0,0,1,1.669,2.127,25.475,25.475,0,0,0,4.652,4.874,54.9,54.9,0,0,0,4.976,3.475c.45.327.87.2,1.308.262q-.016.418.4.4c.279.68,1.005.628,1.527.9a12.727,12.727,0,0,0,2.566,1.086c.847.219,1.394-.857,2.278-.773.641.061.782-.606,1.265-.836a22.272,22.272,0,0,0,7.7-6.411,33.938,33.938,0,0,0,2.234-3.164A23.941,23.941,0,0,0,56.5,88.664c.075-1.4.051-2.811-.011-4.213-.021-.466.414-.657.417-1.039,0-.446-.605-.714-.4-1.238-.156-2.69.336-5.4-.386-8.078-.3-1.114.184-2.274-.349-3.478-.443-1,.2-2.332-.476-3.419.207-1.966-.62-3.783-.854-5.69a13.537,13.537,0,0,0-.5-2.595,32.822,32.822,0,0,0-2.681-6.527c.56.127,1.108.039,1.714.228a23.066,23.066,0,0,1,8.19,5.039,24.532,24.532,0,0,1,3.978,4.79A45.647,45.647,0,0,1,68,67.295a37.79,37.79,0,0,1,1.82,4.272,25.048,25.048,0,0,1,1.571,4.965c.337,2.354,1.1,4.671.87,7.1a1.432,1.432,0,0,0,.042.782c.725,1.246.179,2.592.356,3.876a3.209,3.209,0,0,0-.364,2.644c.107.965-.457,1.75-.439,2.652.034,1.684-.854,3.211-.813,4.894-1.449,3.223-2.141,6.781-4.375,9.667a1.567,1.567,0,0,0-.468,1.4c-.408-.014-.616.334-.754.579a20.72,20.72,0,0,1-3.583,4.753,4.333,4.333,0,0,0-.843.86c-1.244,2.257-3.559,3.384-5.367,5.037-.485.443-1.08.9-1.632,1.311-1.149.855-2.633,1.2-3.564,2.353" transform="translate(0 -27.834)" fill="#f58220"/><path d="M48.841,0c0,1.405-.01,2.81,0,4.215A13.691,13.691,0,0,1,46.559,11.3a20.677,20.677,0,0,1-2.411,3.215,17.413,17.413,0,0,1-6.591,3.955c-.552.129-1,.642-1.633.452-.74,0-1.485.058-2.218-.011-2.19-.2-4.3.715-6.492.413-.916.711-2.092.287-3.124.742-.881.389-1.943.58-2.843.928a30.783,30.783,0,0,0-7.818,4.481,32.65,32.65,0,0,0-5.589,5.481,70.622,70.622,0,0,0-4.525,7c0,1.381-1.1,2.34-1.371,3.675-.253,1.248-.737,2.5-1.095,3.752-.177.62-.485.482-.849.508v-.805c.255.046.43-.128.39-.315a7.669,7.669,0,0,1,.462-3.239c.228-1.1.467-2.21.707-3.3A44.782,44.782,0,0,1,4.5,29.6,48.46,48.46,0,0,1,12.452,17.24a45.507,45.507,0,0,1,8.451-7.7,61.372,61.372,0,0,1,7.234-4.394A62.876,62.876,0,0,1,34.848,2.4c1.766-.629,3.662-.8,5.375-1.6C41.49,1.092,42.633.282,43.882.4c.271.025.55,0,.519-.4Z" fill="#036cb7"/><path d="M161.469,44.277a2.592,2.592,0,0,1-.78-1.764,38.594,38.594,0,0,0-1.648-5.151,39.556,39.556,0,0,0-3.589-6.76c-.393-.666-1.288-.966-1.3-1.868-1.688-1.236-2.393-3.411-4.372-4.416a13.888,13.888,0,0,1-2.369-2.007,23,23,0,0,0-4.669-2.891,22.373,22.373,0,0,0-4.307-1.77,8.087,8.087,0,0,1-3.238-1.842c-2.143-1.961-4.306-3.937-5.349-6.812-.2-.564-.109-1.295-.675-1.727.181-.993-.549-1.819-.442-2.851A42.989,42.989,0,0,0,128.774,0h4.44a.747.747,0,0,0,.538.7c1.077-.054,2.034.543,3.094.5,0,.659.866.236.971.767,1.895.235,3.254,1.549,4.825,2.422,2.5,1.387,4.39,3.508,6.349,5.525a21.764,21.764,0,0,1,2.762,3.272,43.94,43.94,0,0,1,4.359,7.822c.938,2.428,2.286,4.713,2.542,7.375,1.522,3.174,1.434,6.732,2.41,10.037-.187,1.973.691,3.872.4,5.851" transform="translate(-76.703)" fill="#f28020"/><path d="M304.688,86.114c-.521,2.114-1.053,3.922-1.391,5.765-.252,1.37-.661,2.7-.918,4.071a30.81,30.81,0,0,1-1.047,3.968,20.2,20.2,0,0,0-.842,3.869c-.161,1.338-.672,2.565-.911,3.875-.313,1.719-.763,3.429-1.142,5.145a1.074,1.074,0,0,1-1.206.976q-5.95-.017-11.9,0c-.369,0-.464-.148-.67-.475a6.9,6.9,0,0,1-.7-2.522c-.425-2.164-1.006-4.276-1.588-6.4-.383-1.4-.607-2.836-.9-4.258-.379-1.848-.89-3.666-1.313-5.5a43.476,43.476,0,0,0-1.1-4.565c-.471-1.357-.731-2.782-1.082-4.173-.337-1.336-.58-2.7-.924-4.047-.837-3.279-1.34-6.639-2.432-9.86a4.156,4.156,0,0,1-.016-1.22h10.817l6.719,30.377,7.331-30.433c3.359,0,6.9,0,10.448-.006.393,0,.513.1.634.516.573,1.982,1.068,3.991,1.531,5.991a32.586,32.586,0,0,1,1.269,5.722c.645.582.077,1.6.461,1.99.62.633.093,1.389.592,2.019a4.014,4.014,0,0,1,.5,1.968,24.962,24.962,0,0,0,.967,4.059c.335,1.238.643,2.538,1.016,3.779.406,1.349.771,2.747,1.14,4.162a28,28,0,0,1,.8-3.71,31.62,31.62,0,0,1,.659-3.566c.63-1.914.527-4,1.517-5.8-.206-1.71.586-3.263.906-4.874a34.117,34.117,0,0,1,1.4-5.842,6.169,6.169,0,0,0,.131-1.554,9.121,9.121,0,0,1,.461-1.225c.356-1.2.165-2.546.953-3.624h10.211c.075.609.348,1.226-.276,1.767a38.6,38.6,0,0,1-1.244,5.318,40,40,0,0,1-.859,4.075c-.458,1.3-.7,2.658-1.079,3.966-.4,1.364-.616,2.84-.919,4.262-.4,1.894-1.038,3.74-1.43,5.636-.293,1.419-.658,2.82-.94,4.236-.26,1.3-.735,2.542-.913,3.875a7.382,7.382,0,0,0-.313,1.652c.05.556-.359.922-.463,1.435-.433,2.145-1.043,4.255-1.557,6.385-.074.3-.14.481-.474.462-.134-.008-.269,0-.4,0H311.409l-6.721-27.663" transform="translate(-163.607 -42.129)" fill="#f58220"/><path d="M159.161,46.045c.287-1.979-.59-3.878-.4-5.851-.976-3.3-.889-6.863-2.41-10.037-.255-2.662-1.6-4.947-2.542-7.375a43.941,43.941,0,0,0-4.359-7.822,21.763,21.763,0,0,0-2.762-3.272c-1.96-2.017-3.851-4.138-6.349-5.525-1.571-.872-2.93-2.186-4.825-2.422-.105-.531-.968-.108-.971-.767A16.96,16.96,0,0,1,140.1,4.121a43.527,43.527,0,0,1,6.768,2.638,34.089,34.089,0,0,1,6.159,3.616c1.429,1.111,2.9,2.166,4.283,3.346a44.307,44.307,0,0,1,3.629,3.328A52.175,52.175,0,0,1,167.23,25.1a46.263,46.263,0,0,1,2.795,4.677,54.908,54.908,0,0,1,2.576,6.57,22.231,22.231,0,0,1,1.481,5.819c.027.653.591,1.134.435,1.847s.525,1.281.407,2.044a3.715,3.715,0,0,0,.022,1.987c.6,1.285.288,2.586.347,3.874a15.135,15.135,0,0,1-.053,4c-.268,1.17-.113,2.351-.381,3.456-.43,1.776-.613,3.593-1.058,5.372-.426,1.705-1.041,3.337-1.507,5.02a39.306,39.306,0,0,1-3.887,8.439,31.9,31.9,0,0,1-4.048,5.989c-1.519,1.69-2.729,3.689-4.48,5.148-1.88,1.566-3.68,3.223-5.7,4.65a56.5,56.5,0,0,1-8.255,4.915c-2.31,1.1-4.757,1.817-7.137,2.722-.828.316-1.7.348-2.533.692-1.066.438-2.245-.249-3.338-.563a41.443,41.443,0,0,1-8.065-3.391c.93-1.156,2.414-1.5,3.564-2.353.552-.41,1.147-.868,1.632-1.311,1.808-1.653,4.123-2.78,5.367-5.037a4.342,4.342,0,0,1,.842-.86,20.733,20.733,0,0,0,3.583-4.753c.137-.245.346-.593.753-.579a7.492,7.492,0,0,0,3.494-1.74,29.939,29.939,0,0,0,6.64-5.8,36.984,36.984,0,0,0,5.641-9.1,54.943,54.943,0,0,0,2.442-7.633c.268-1.231.08-2.5.411-3.641.5-1.7.252-3.383.336-5.07.074-1.5-.681-2.928-.4-4.449" transform="translate(-74.395 -1.768)" fill="#036cb7"/><path d="M773.6,55.877h10.424a2.028,2.028,0,0,1,.135,1.2q.01,22.735.006,45.469c0,.335-.018.672,0,1.006a.859.859,0,0,1-.779.966,15.681,15.681,0,0,0-1.658.377,20.547,20.547,0,0,1-2.652.388,47.809,47.809,0,0,1-8.1.484c-1.339-.087-2.689-.014-4.034-.015-2.245,0-7.464-1.562-9.283-2.9a16.1,16.1,0,0,1-6.055-8.514,10.29,10.29,0,0,1-.558-3.405c.064-1.271-.011-2.548.02-3.821a16.105,16.105,0,0,1,1.35-5.878,14.548,14.548,0,0,1,8.192-8.145c1.34-.55,2.651-1.275,4.161-1.127.642.063,1.011-.546,1.654-.444a10.591,10.591,0,0,0,1.812.018,20.172,20.172,0,0,1,5.358.867Zm0,41.017a6.416,6.416,0,0,0,.071-.643c0-4.545-.048-9.091.046-13.634a1.2,1.2,0,0,0-1.007-1.305c-1.042-.057-1.951-.673-3.029-.539a29.893,29.893,0,0,0-3.059.371,6.33,6.33,0,0,0-5,5.632,12.263,12.263,0,0,0,.29,4.65c.853,3.6,3.165,4.895,6.064,5.409a32.881,32.881,0,0,0,5.623.059" transform="translate(-447.526 -33.295)" fill="#036cb7"/><path d="M608.933,114.968H588.374c.526,1.258,1.005,2.543,2.145,3.091,1.1.529,2.084,1.516,3.474,1.339,2.118.86,4.341.414,6.485.317a16.288,16.288,0,0,0,3.868-.818,29.9,29.9,0,0,0,3.4-1.508c.051-.023.128.009.375.033v4.533a8.958,8.958,0,0,1-.006,1.005c-.11.97.457,2.15-.28,2.873a7.135,7.135,0,0,1-3.14,1.6c-1.216.331-2.467.572-3.682.876a22.53,22.53,0,0,1-7.905.249c-3.3-.35-6.618-1.15-9.14-3.661-1.831-.817-2.345-2.816-3.683-4.076-.554-1.918-1.759-3.685-1.588-5.759.07-.853-.461-1.452-.479-2.25-.031-1.318.326-2.573.407-3.859a14.608,14.608,0,0,1,.832-3.689,15.093,15.093,0,0,1,6.306-8.391,10.636,10.636,0,0,1,5.809-2.031c1.5-.829,3.138-.455,4.669-.343a15.238,15.238,0,0,1,5.79,1.551,12.45,12.45,0,0,1,4.268,3.716,11.4,11.4,0,0,1,1.818,4.057,18.3,18.3,0,0,1,.822,4.9c-.049,2.01-.011,4.023-.011,6.247m-9.761-6.08a5.038,5.038,0,0,0-7.738-5.112c-1.711,1.086-3.029,2.779-2.611,5.112Z" transform="translate(-344.545 -56.202)" fill="#036cb7"/><path d="M686.37,128.355V115.6c0-1.944-.1-3.895.038-5.829a12.373,12.373,0,0,0-.516-3.241,3.23,3.23,0,0,0-1.614-2c-.688-.419-1.4-.072-2.02-.541-.514-.386-1.139-.2-1.793.161a3.419,3.419,0,0,1-1.981.033c-.6-.095-.981.251-1.448.431a1.066,1.066,0,0,0-.764,1.206,11.724,11.724,0,0,1,.008,1.206v21.115a.929.929,0,0,1-.133.144.321.321,0,0,1-.171.07c-3.217,0-6.435,0-9.788,0v-2.021q0-13.675,0-27.349c0-.6-.12-1.31.568-1.558a29.545,29.545,0,0,1,4.116-1.247c1.752-.356,3.472-.985,5.307-.832,1.3-.695,2.709-.289,4.067-.409.63-.056,1.291.213,1.88-.349.379-.361.606.37,1.012.361.873-.019,1.751-.053,2.621,0a12.02,12.02,0,0,1,7.415,2.992c2.137,1.907,2.928,4.443,3.353,7.265.529,3.512.236,7,.32,10.5.085,3.551.019,7.105.019,10.658,0,.268.01.537,0,.8-.041.87-.311,1.167-1.186,1.174-2.42.018-4.84.006-7.26.006Z" transform="translate(-396.956 -56.304)" fill="#036cb7"/><path d="M451.728,114.591H431.693c-.533.789.054,1.434.366,1.813a8.467,8.467,0,0,0,5.179,3.045,19.586,19.586,0,0,0,10.786-1.008c.928-.306,1.817-.731,2.9-1.174,0,2.769-.01,5.367.007,7.965,0,.568-.343.793-.77,1a20.626,20.626,0,0,1-4.578,1.612,24.13,24.13,0,0,1-7.534.771,29.111,29.111,0,0,1-5.978-1.116,21.3,21.3,0,0,1-5.178-2.58,10.838,10.838,0,0,1-3.039-3.529,15.083,15.083,0,0,1-2.394-8.071c-.009-1.14-.064-2.285.009-3.42a16.789,16.789,0,0,1,6.02-12.388,15.878,15.878,0,0,1,5.939-2.688,16.115,16.115,0,0,1,6.687-.318c3.237.445,6.348,1.525,8.49,4.271a13.042,13.042,0,0,1,2.3,4.479,15.274,15.274,0,0,1,.859,5.094c-.12,2-.028,4.017-.028,6.239m-9.339-5.7a6.04,6.04,0,0,0-.524-3.095,3.809,3.809,0,0,0-2.3-2.478,5.325,5.325,0,0,0-5.122.346,4.505,4.505,0,0,0-1.78,1.912c-.467,1.058-1.442,1.951-1.026,3.315Z" transform="translate(-251.117 -56.193)" fill="#f28020"/><path d="M508.478,114.212V70.886h10.729c-.04-.034.019,0,.057.053a.312.312,0,0,1,.074.169c0,11.121,0,22.242,0,33.5h16.511v9.6Z" transform="translate(-302.987 -42.231)" fill="#036cb7"/><path d="M672.968,218.324a49.5,49.5,0,0,1-1.474,5.744c-.307,1.273-.81,2.5-1.029,3.788-.082.478-.38.788-.488,1.225-.156.628-.788.223-1.2.29-.386.061-.325-.277-.384-.532-.71-3.113-1.918-6.089-2.469-9.256-.154-.884-.788-1.712-.746-2.694.013-.288-.2-.727.331-.78.455-.045.687.034.973.6a20.576,20.576,0,0,1,1.041,3.392,21.248,21.248,0,0,1,.728,2.921,16.5,16.5,0,0,1,.582,2.8c0,.252.36.508.641.877.7-3.361,1.852-6.481,2.553-9.723a1,1,0,0,1,.9-.881.877.877,0,0,1,.992.5,9.868,9.868,0,0,1,.915,2.432c.286,1.68.89,3.275,1.323,4.906a9.577,9.577,0,0,0,.912,3.018q1.316-4.87,2.633-9.759c.034-.125-.05-.305.014-.394.253-.355.492-.929,1.031-.622.4.23.663.511.343,1.257a34.312,34.312,0,0,0-1.381,4.862c-.539,2.058-1.275,4.066-1.61,6.176a1.025,1.025,0,0,1-2.022.113c-.413-1.508-.74-3.043-1.232-4.524a37.47,37.47,0,0,0-1.87-5.735" transform="translate(-396.34 -128.753)" fill="#5c5c5f"/><path d="M366.617,226.206c1.1-1.541,2.781-1.326,4.3-1.128a2.264,2.264,0,0,1,1.516,1.664c.638,2.329.34,4.71.4,7.07.011.457-.361.677-.708.844a.637.637,0,0,1-.9-.613c-.008-1.809,0-3.618,0-5.427a9.732,9.732,0,0,0-.009-1.2,1.321,1.321,0,0,0-1.36-1.186c-.693.05-1.443-.292-2.065.372a3.467,3.467,0,0,0-1.018,2.605c.047,1.606-.012,3.216.025,4.823.013.563-.213.659-.7.651-.463-.007-.535-.214-.531-.613.017-1.809.019-3.618,0-5.427a2.79,2.79,0,0,0-.107-1.158,2.083,2.083,0,0,0-3.593-.572,2.859,2.859,0,0,0-.742,1.906c.036,1.674.018,3.35.006,5.025,0,.351.194.8-.492.846a1.116,1.116,0,0,1-1.1-.679c-.117-.2-.021-.524-.021-.792q0-3.417,0-6.834a3.283,3.283,0,0,1,.033-.792c.12-.47.956-.716,1.216-.291.445.727.908.318,1.242.091,1.046-.712,2.194-.365,3.271-.32.456.019.883.728,1.34,1.139" transform="translate(-214.201 -134.035)" fill="#5c5c5f"/><path d="M438.821,226.195c.13-.108.257-.224.393-.327.362-.272.555-.868,1.055-.828.969.076,1.985-.357,2.91.255.2.134.635.166.656.294.139.847.437.824,1.012.318.377-.332.574-.976,1.236-.884.953.132,1.885-.124,2.89.321a2.091,2.091,0,0,1,1.335,1.864c.136,2.336.048,4.685.054,7.029,0,.529-.373.417-.687.443-.459.038-.538-.2-.534-.6q.027-2.511,0-5.023c0-.382.208-.854-.133-1.137-.5-.415.013-1.238-.7-1.531a3.811,3.811,0,0,0-2.529-.092c-.77.245-1.08,1.185-1.073,2.086.013,1.674-.023,3.349.018,5.023a1.211,1.211,0,0,1-.708,1.268.658.658,0,0,1-.918-.6c-.008-1.741,0-3.483,0-5.224,0-.4.027-.806-.005-1.205-.078-.966-.578-1.37-1.544-1.431-1.055-.067-2.117.011-2.438,1.149a5.748,5.748,0,0,0-.491,2.234,41.981,41.981,0,0,1,.036,4.216c0,.451.131.929-.662.889-.664-.034-.547-.418-.547-.8,0-2.679-.007-5.358.006-8.037,0-.341-.211-.79.467-.866.938-.1.708.518.742,1.01,0,.051.083.1.163.185" transform="translate(-260.645 -134.048)" fill="#5e5e61"/><path d="M812.625,221c.815-.293.969-1.324,1.841-1.2,1.084.153,2.152-.233,3.284.341,1.568.8,1.819,2.211,2.094,3.581a5.81,5.81,0,0,1-.336,3.247,3.58,3.58,0,0,1-3.423,2.473,5.021,5.021,0,0,1-2.673-.358c-.483-.276-1.095.1-1.637.339-.317.139-.78.146-.776-.522.023-3.883.011-7.766.011-11.649a1.742,1.742,0,0,1,0-.2c.06-.523.371-.924.872-.852a.894.894,0,0,1,.748.992c-.027.668-.006,1.339-.006,2.009Zm3.056,0c-2.177,0-3.038.835-3.056,2.976,0,.6-.02,1.2,0,1.8a2.663,2.663,0,0,0,1.956,2.47,2.773,2.773,0,0,0,3.328-1.281c.522-.742.033-1.7.766-2.295-.463-.585-.3-1.339-.535-1.979a2.2,2.2,0,0,0-2.464-1.69" transform="translate(-483.25 -128.825)" fill="#5e5e61"/><path d="M484.033,221.06c.746-.471.991-1.328,1.728-1.278,1.093.075,2.174-.24,3.3.294,1.481.7,1.879,1.975,2.207,3.308a5.986,5.986,0,0,1,.013,2.2c-.245,1.75-1.332,4.038-3.9,3.868a3.993,3.993,0,0,1-3.141-1.257,6.2,6.2,0,0,1-.426.822c-.19.265-.469.575-.809.339-.243-.168-.594-.344-.584-.751.007-.268,0-.536,0-.8q0-5.028,0-10.058c0-1,.28-1.573.753-1.613.539-.046.852.568.859,1.708.006,1,0,1.994,0,3.221m2.943,7.147a2.6,2.6,0,0,0,1.834-.476,4.557,4.557,0,0,0-.111-6.369,2.864,2.864,0,0,0-4.283.863c-.6,1.008-.348,2.043-.365,3.064-.035,2.046.873,2.906,2.925,2.919" transform="translate(-287.458 -128.785)" fill="#5c5c5f"/><path d="M310.864,228.769c.018.3.065.615-.3.635-.305.017-.706.164-.892-.216a7.6,7.6,0,0,1-.776-1.88c-.075-.413-.361-.679-.43-1.035-.147-.754-.624-.908-1.295-.889-.94.027-1.881,0-2.821.009-.6,0-1.41-.207-1.745.1a3.849,3.849,0,0,0-.975,1.967,7.713,7.713,0,0,1-.656,1.545.861.861,0,0,1-1.2.362c-.375-.19-.257-.685-.1-1.055,1.135-2.613,2.361-5.191,3.374-7.849.441-1.158,1.013-2.269,1.353-3.46.173-.606.488-.942,1.106-.855.556.078.766.445.963,1.015.567,1.634,1.311,3.207,1.977,4.808a55.468,55.468,0,0,0,2.4,6.043c.114.2.015.526.015.759m-3.142-4.622c-.613-2.08-1.713-3.789-2.109-5.754-.041-.2-.215-.274-.39-.055-.123.155-.364.274-.394.437-.345,1.883-1.516,3.47-1.916,5.372Z" transform="translate(-178.474 -128.786)" fill="#5c5c5f"/><path d="M778.473,228.082a3.081,3.081,0,0,1,2.144-2.984,22.547,22.547,0,0,1,2.592-.1c1.268-.21,1.727.792,2.453,1.411-.24.879.493,1.574.443,2.44-.066,1.136-.025,2.279-.012,3.418.006.536-.246,1.191.68,1.319.256.036.1.474.118.727.02.392-.28.373-.547.37a1.5,1.5,0,0,1-1.274-.367c-.25-.264.022-.9-.61-.838-.453.043-.643.452-.9.731a1.362,1.362,0,0,1-1.223.481c-.4-.035-.806-.005-1.21-.007a2.75,2.75,0,0,1-3.065-2.166,2.388,2.388,0,0,1,1.09-2.641,6.345,6.345,0,0,1,2.883-.83,7.049,7.049,0,0,0,1.008,0,1.567,1.567,0,0,0,1.331-2.3.715.715,0,0,0-.283-.282,5.181,5.181,0,0,0-2.926-.175,1.3,1.3,0,0,0-1.1,1.219c.049.937-.528.726-1.026.735-.188,0-.407.085-.569-.156m6,1.851a7.254,7.254,0,0,0-3.735.62c-.655.209-1.14.464-1.127,1.308.02,1.337.207,1.589,1.559,1.613.334.006.668.007,1,0a2.274,2.274,0,0,0,2.3-2.325c.008-.39,0-.779,0-1.216" transform="translate(-463.576 -134.052)" fill="#5c5c5f"/><path d="M412.819,230.363h-7.186c-.039.395.4.5.335.87a1.96,1.96,0,0,0,1.547,2.221c.976.259,2.28.5,3.076-.708.209-.315.591-.466.642-.95.046-.442.535-.273.83-.257.533.027.392.494.337.757a3.136,3.136,0,0,1-3.026,2.435,8.054,8.054,0,0,1-2.561-.124,3.92,3.92,0,0,1-2.392-2.994,6.861,6.861,0,0,1,.761-5.056,2.68,2.68,0,0,1,2.563-1.457,7.166,7.166,0,0,1,2.725.223c1.2.551,1.964,2.112,2.336,3.64a6.877,6.877,0,0,1,.014,1.4m-1.608-1.282c-.053-1.513-.1-1.464-.984-2.383-.7-.731-1.511-.24-2.252-.4-.847-.185-1.085.624-1.6.987-.7.5-.341,1.155-.416,1.8Z" transform="translate(-240.866 -134.119)" fill="#5e5e61"/><path d="M722.418,230.253H715.8a2.5,2.5,0,0,0,2.429,3.266c1.041-.064,2.016-.072,2.486-1.242.071-.178.116-.353.177-.528.152-.432.551-.25.85-.257.385-.009.349.3.351.562a1.512,1.512,0,0,1-.385,1.254,3.941,3.941,0,0,1-3.25,1.422c-1.1-.085-2.157-.012-3.083-.848a4.742,4.742,0,0,1-1.282-2.675,5.567,5.567,0,0,1,1.182-5.054,2.579,2.579,0,0,1,2.291-1.122c.945.154,1.927-.185,2.863.386a2.811,2.811,0,0,1,1.237,1.159,5.594,5.594,0,0,1,.749,3.678m-1.573-1.236c-.005-1.422-.079-1.362-.75-2.183-.635-.777-1.431-.465-2.177-.6-.915-.169-1.278.509-1.825.958-.627.514-.471,1.139-.381,1.828Z" transform="translate(-425.414 -134.073)" fill="#5e5e61"/><path d="M524.53,230.319h-6.837c.023,2.448,1.766,3.817,3.993,3.183.23-.066.4-.323.616-.457.426-.26.477-.744.708-1.119a.91.91,0,0,1,1.214-.386.7.7,0,0,1-.014,1.179c-.639.5-.632,1.485-1.667,1.73-2.657.628-4.676.438-5.946-2.085a1.941,1.941,0,0,1-.219-.917q-.01-1.307,0-2.615a3.763,3.763,0,0,1,3.768-3.791A3.916,3.916,0,0,1,524.2,227.4c.46.912.083,1.816.331,2.921m-4.169-1.233c.8,0,1.6-.013,2.4,0,.5.011.532-.3.47-.642a3.2,3.2,0,0,0-.72-1.495,2.7,2.7,0,0,0-2.979-.685,2.49,2.49,0,0,0-1.941,2.276c-.021.265-.018.542.372.542h2.4" transform="translate(-307.691 -134.092)" fill="#5e5e61"/><path d="M748.687,227.717c2.139,0,4.089-.01,6.038,0,.785.006,1.133.281,1.22.936.043.32.074.674-.448.672-2.489-.008-4.978.011-7.466-.014-.638-.006-.951-.425-.954-1.2-.012-3.086,0-6.171,0-9.257a16.568,16.568,0,0,0-.015-1.809c-.057-.519.3-.743.6-.957a.679.679,0,0,1,1.028.621c.008,2.08,0,4.159,0,6.238Z" transform="translate(-445.146 -128.698)" fill="#5e5e61"/><path d="M600.186,229.825a5.016,5.016,0,0,1-.4,2.652,4.028,4.028,0,0,1-3.639,2.3c-1.809.031-3.217-.466-4.02-2.112a4.949,4.949,0,0,1-.5-4.35,6.643,6.643,0,0,1,1.468-2.41,2.664,2.664,0,0,1,2.076-.833c.536.029,1.081-.047,1.612.016a3.243,3.243,0,0,1,2.588,1.653,4.213,4.213,0,0,1,.81,3.084m-1.229-.016a3.246,3.246,0,0,0-1.153-2.9,2.845,2.845,0,0,0-4.729,1.02c-.243.646-.019,1.417-.558,1.975.536.559.286,1.339.562,1.973.289.664.648,1.426,1.306,1.6a7.852,7.852,0,0,0,2.6.031c.564-.048.787-.663,1.185-1a2.876,2.876,0,0,0,.788-2.7" transform="translate(-352.347 -134.108)" fill="#5c5c5f"/><path d="M624.852,220.926c-.466,0-.795-.016-1.121,0-.491.029-.49-.273-.5-.634-.015-.418.115-.615.557-.582.321.024.646,0,1.067,0,0-.489.013-.878,0-1.265a2.674,2.674,0,0,1,.752-1.7c.39-.532,1.222.042,1.566-.645.045-.091.4-.017.5.186.171.357.929.006.8.628a.885.885,0,0,1-.965.789c-.32-.016-.641,0-1,0v1.863c.378.274.788.13,1.172.14s.405.257.4.53c-.006.312.1.7-.435.688-.333-.007-.666,0-1.178,0v6.18c0,.469,0,.938,0,1.407s-.361.681-.7.856a.645.645,0,0,1-.911-.6c-.008-1.809,0-3.618,0-5.427Z" transform="translate(-371.363 -128.749)" fill="#5e5e61"/><path d="M550.1,226.283a3.014,3.014,0,0,1,2.317-1.2c.293.017.727-.153.716.4-.006.362.174.832-.515.826-.211,0-.409.291-.64.374-1.492.536-2.039,1.176-2.063,2.579-.027,1.538,0,3.077-.015,4.616,0,.336.231.849-.451.866a1.059,1.059,0,0,1-1.151-.811,2.545,2.545,0,0,1,0-.4V226.3c0-.2-.079-.46.017-.59a2.025,2.025,0,0,1,.725-.62c.286-.133.488.162.633.364a6.168,6.168,0,0,1,.432.827" transform="translate(-326.696 -134.106)" fill="#5e5e61"/><path d="M76.268,117.869c-1.437-3.023-3.152-5.912-4.186-9.133a18.309,18.309,0,0,0-.586-2.168,9.958,9.958,0,0,1-.546-2.2c-.323-1.764-.478-3.56-.828-5.29a19.826,19.826,0,0,1-.216-6.474c.29-2.245.022-4.627,1.115-6.75A35.405,35.405,0,0,1,75.2,74.115a30.4,30.4,0,0,1,7.392-9.4,22.971,22.971,0,0,1,7.056-3.858,12.818,12.818,0,0,1,3.166-.146A32.809,32.809,0,0,1,95.5,67.239a13.512,13.512,0,0,1,.5,2.595c.234,1.906,1.061,3.724.854,5.69.679,1.087.033,2.419.476,3.419.533,1.2.048,2.363.349,3.478.722,2.674.23,5.388.386,8.078-.828-.426-.084-1.495-.807-1.963a14.908,14.908,0,0,0-3.225-7.322A2.416,2.416,0,0,0,90,81.038a3.935,3.935,0,0,0-.435.619,18.382,18.382,0,0,0-2.9,6.669c-.173,1.034-.788,2.015-.7,3.114.1,1.19-.68,2.244-.437,3.461a6.689,6.689,0,0,1,.01,1.806c-.048.608.531.969.45,1.649-.209,1.747.665,3.335.976,5.014.195,1.053.978,1.912,1.22,2.906a9.957,9.957,0,0,0,1.562,2.968c.655,1.024,1.081,2.328,2.261,2.991a22.276,22.276,0,0,1-7.7,6.411c-.483.23-.623.9-1.265.836-.884-.084-1.431.992-2.278.773a12.758,12.758,0,0,1-2.566-1.086c-.521-.268-1.247-.216-1.527-.9q.015-.418-.4-.4" transform="translate(-41.554 -36.158)" fill="#036cb7"/></g></svg>