<?xml version="1.0" encoding="utf-8"?>
<!-- Generator: Adobe Illustrator 25.4.1, SVG Export Plug-In . SVG Version: 6.00 Build 0)  -->
<svg version="1.1" id="Calque_2" xmlns="http://www.w3.org/2000/svg" xmlns:xlink="http://www.w3.org/1999/xlink" x="0px" y="0px"
	 viewBox="0 0 64.1 64.1" style="enable-background:new 0 0 64.1 64.1;" xml:space="preserve">
<style type="text/css">
	.st0{fill:#FFFFFF;}
	.st1{fill:#94BE6D;}
</style>
<g id="Calque_77">
	<rect x="7.4" y="10" class="st0" width="49.7" height="49.7"/>
	<path class="st1" d="M59.4,4.7C54.7,0,47.2,0,32.1,0S9.4,0,4.7,4.7S0,17,0,32.1s0,22.7,4.7,27.4s12.3,4.7,27.4,4.7s22.7,0,27.4-4.7
		s4.7-12.2,4.7-27.4S64.1,9.4,59.4,4.7L59.4,4.7z M32.1,51.3c-3.1,0-6-0.7-8.6-2C22.8,49,22,48.8,21.3,49L17,50.2
		c-1.9,0.5-3.6-1.2-3.1-3.1l1.1-4.3c0.2-0.7,0.1-1.5-0.3-2.2c-1.3-2.6-2-5.5-2-8.6c0-10.6,8.6-19.2,19.2-19.2S51.1,21.4,51.1,32
		S42.7,51.3,32.1,51.3z"/>
</g>
</svg>
