<?xml version="1.0" encoding="utf-8"?><!-- Uploaded to: SVG Repo, www.svgrepo.com, Generator: SVG Repo Mixer Tools -->
<svg version="1.1" id="Uploaded to svgrepo.com" xmlns="http://www.w3.org/2000/svg" xmlns:xlink="http://www.w3.org/1999/xlink" 
	 width="800px" height="800px" viewBox="0 0 32 32" xml:space="preserve">
<style type="text/css">
	.sharpcorners_een{fill:#111918;}
	.st0{fill:#111918;}
</style>
<path class="sharpcorners_een" d="M20,23h-8v5h-1v2h10v-2h-1V23z M14,25h4v1h-4V25z M14,28v-1h4v1H14z M24,2H8C5.243,2,3,4.243,3,7
	s2.243,5,5,5c0,4.079,3.055,7.438,7,7.931V22h2v-2.069c3.945-0.493,7-3.852,7-7.931c2.757,0,5-2.243,5-5S26.757,2,24,2z M5,7
	c0-1.654,1.346-3,3-3v6C6.346,10,5,8.654,5,7z M24,10V4c1.654,0,3,1.346,3,3S25.654,10,24,10z"/>
</svg>