<svg id="Layer_1" data-name="Layer 1" xmlns="http://www.w3.org/2000/svg" viewBox="0 0 732.96 732.96"><defs><style>.cls-1{fill:#cbde80;fill-rule:evenodd;}.cls-2{fill:#22271d;}</style></defs><path class="cls-1" d="M712.81,87.19C659.14,33.52,572.76,33.52,400,33.52s-259.14,0-312.81,53.67S33.52,227.24,33.52,400s0,259.14,53.67,312.81S227.24,766.48,400,766.48s259.14,0,312.81-53.67,53.67-140,53.67-312.81S766.48,140.86,712.81,87.19Z" transform="translate(-33.52 -33.52)"/><g id="_8vs8YF.tif" data-name="8vs8YF.tif"><path class="cls-2" d="M601.28,191.46l10,11.76a29.56,29.56,0,0,0,1.19,3.51c7,14.7,7,29.38-.42,43.89q-98.74,192-197.62,383.94c-9.14,17.73-24.1,27.25-44.12,26.78-19.68-.47-33.95-10.38-42.61-28.13q-20.25-41.51-40.46-83c-7.28-15-14.49-30-21.87-45.27l6.15-5.21,98.59-83.5q14-11.85,28-23.69c4.93-4.17,6.62-9.39,4.78-15.54-3.15-10.59-15.05-13.32-24.32-5.48Q315.67,424.6,252.92,477.81l-6,5.09c-1.9-1.27-3.5-2.29-5.06-3.39q-44.19-31.38-88.35-62.8c-10.09-7.2-20.84-13.74-29.88-22.11-26.4-24.42-15.77-68.34,19.2-79.75,54.7-17.85,109.55-35.2,164.35-52.75Q430,222.78,552.81,183.43c11-3.53,21.91-4.33,32.71-.16C591,185.39,596,188.69,601.28,191.46Z" transform="translate(-33.52 -33.52)"/></g></svg>