<?xml version="1.0" encoding="UTF-8"?>
<svg id="Calque_2" data-name="Calque 2" xmlns="http://www.w3.org/2000/svg" viewBox="0 0 74.78 74.78">
  <defs>
    <style>
      .cls-1 {
        fill: black;
        fill-rule: evenodd;
        stroke-width: 0px;
      }
    </style>
  </defs>
  <g id="Calque_110" data-name="Calque 110">
    <path class="cls-1" d="M69.3,5.48C63.83,0,55.01,0,37.39,0S10.95,0,5.48,5.48,0,19.76,0,37.39s0,26.44,5.48,31.91c5.48,5.48,14.29,5.48,31.91,5.48s26.44,0,31.91-5.48c5.48-5.48,5.48-14.29,5.48-31.91s0-26.44-5.48-31.91ZM17.31,58.65c0,1.96-1.59,3.54-3.54,3.54s-3.54-1.59-3.54-3.54v-14.17c0-1.96,1.59-3.54,3.54-3.54s3.54,1.59,3.54,3.54v14.17ZM40.93,58.65c0,1.96-1.59,3.54-3.54,3.54s-3.54-1.59-3.54-3.54v-28.34c0-1.96,1.59-3.54,3.54-3.54s3.54,1.59,3.54,3.54v28.34ZM64.55,58.65c0,1.96-1.59,3.54-3.54,3.54s-3.54-1.59-3.54-3.54V16.13c0-1.96,1.59-3.54,3.54-3.54s3.54,1.59,3.54,3.54v42.51Z"/>
  </g>
</svg>