<?xml version="1.0" encoding="utf-8"?>
<!-- Generator: Adobe Illustrator 25.4.1, SVG Export Plug-In . SVG Version: 6.00 Build 0)  -->
<svg version="1.1" id="Calque_2" xmlns="http://www.w3.org/2000/svg" xmlns:xlink="http://www.w3.org/1999/xlink" x="0px" y="0px"
	 viewBox="0 0 75.8 75.8" style="enable-background:new 0 0 75.8 75.8;" xml:space="preserve">
<style type="text/css">
	.st0{fill-rule:evenodd;clip-rule:evenodd;fill:#FFFFFF;}
	.st1{fill-rule:evenodd;clip-rule:evenodd;fill:#9CC66D;}
</style>
<rect x="8.6" y="8.8" class="st0" width="57.9" height="61.4"/>
<g id="Calque_110">
	<g>
		<path class="st1" d="M25.6,23.5h-1.4c-1.1,0-2,0.9-2,2s0.9,2,2,2h1.4c1.1,0,2-0.9,2-2S26.7,23.5,25.6,23.5z"/>
		<path class="st1" d="M25.6,33.1h-1.4c-1.1,0-2,0.9-2,2s0.9,2,2,2h1.4c1.1,0,2-0.9,2-2S26.7,33.1,25.6,33.1z"/>
		<path class="st1" d="M51.6,42.7H33.8c-1.1,0-2,0.9-2,2s0.9,2,2,2h17.8c1.1,0,2-0.9,2-2S52.7,42.7,51.6,42.7z"/>
		<path class="st1" d="M25.6,42.7h-1.4c-1.1,0-2,0.9-2,2s0.9,2,2,2h1.4c1.1,0,2-0.9,2-2S26.7,42.7,25.6,42.7z"/>
		<path class="st1" d="M70.2,5.6C64.7,0,55.8,0,37.9,0S11.1,0,5.6,5.6S0,20,0,37.9s0,26.8,5.6,32.3c5.6,5.6,14.5,5.6,32.3,5.6
			s26.8,0,32.4-5.6s5.6-14.5,5.6-32.3S75.8,11.1,70.2,5.6L70.2,5.6z M62.5,60.8c0,2.3-2.7,3.6-4.4,2c-1-0.9-2.5-0.9-3.5,0L53.3,64
			c-1.8,1.6-4.4,1.6-6.2,0s-4.4-1.6-6.2,0s-4.4,1.6-6.2,0s-4.4-1.6-6.2,0s-4.4,1.6-6.2,0L21,62.8c-1-0.9-2.5-0.9-3.5,0
			c-1.7,1.6-4.4,0.3-4.4-2V22.5c0-3.3,0-4.9,0.4-6.2c0.8-2.5,2.7-4.5,5.1-5.3c1.3-0.4,2.9-0.4,6-0.4h26c3.2,0,4.8,0,6,0.4
			c2.4,0.8,4.3,2.8,5.2,5.3c0.4,1.3,0.4,3,0.4,6.2L62.5,60.8L62.5,60.8z"/>
		<path class="st1" d="M51.6,33.1H33.8c-1.1,0-2,0.9-2,2s0.9,2,2,2h17.8c1.1,0,2-0.9,2-2S52.7,33.1,51.6,33.1z"/>
		<path class="st1" d="M51.6,23.5H33.8c-1.1,0-2,0.9-2,2s0.9,2,2,2h17.8c1.1,0,2-0.9,2-2S52.7,23.5,51.6,23.5z"/>
	</g>
</g>
</svg>
