<svg id="Layer_1" data-name="Layer 1" xmlns="http://www.w3.org/2000/svg" viewBox="0 0 619.5 619.49"><defs><style>.cls-1{fill-rule:evenodd;}</style></defs><path class="cls-1" d="M597.13,68.34C551.78,23,478.77,23,332.74,23s-219,0-264.4,45.34S23,186.68,23,332.71s0,219,45.35,264.39,118.35,45.35,264.39,45.36,219,0,264.39-45.34,45.36-118.36,45.36-264.39S642.47,113.72,597.13,68.34ZM434.73,230.67c18.79,0,34,22.83,34,51s-15.23,51-34,51-34-22.84-34-51S416,230.67,434.73,230.67Zm-204.06,0c18.79,0,34,22.84,34,51s-15.22,51-34,51-34-22.84-34-51S211.88,230.66,230.67,230.66ZM481.13,457a287.56,287.56,0,0,1-45.92,20.4l2.33,11.95a51,51,0,0,1-99.76,21.28c-.11-.52-.22-1-.31-1.56l-2.93-14.9h-1.87c-54.76,0-105.94-13.6-148.43-37.24a25.49,25.49,0,0,1,24.81-44.53c34.63,19.26,77.27,30.8,123.64,30.8s89-11.54,123.65-30.79A25.51,25.51,0,0,1,481.13,457Z" transform="translate(-22.98 -22.98)"/></svg>