<?xml version="1.0" encoding="utf-8"?>
<!-- Generator: Adobe Illustrator 25.4.1, SVG Export Plug-In . SVG Version: 6.00 Build 0)  -->
<svg version="1.1" id="Calque_2" xmlns="http://www.w3.org/2000/svg" xmlns:xlink="http://www.w3.org/1999/xlink" x="0px" y="0px"
	 viewBox="0 0 64.7 64.7" style="enable-background:new 0 0 64.7 64.7;" xml:space="preserve">
<style type="text/css">
	.st0{fill:#FFFFFF;}
	.st1{fill:#94BE6D;}
</style>
<g id="Layer_2">
	<rect x="5" y="7.1" class="st0" width="53.9" height="51.6"/>
</g>
<g id="Calque_77">
	<path class="st1" d="M60,4.7C55.2,0,47.6,0,32.4,0S9.5,0,4.7,4.7S0,17.1,0,32.4S0,55.2,4.7,60c4.7,4.7,12.4,4.7,27.6,4.7
		s22.9,0,27.6-4.7c4.7-4.7,4.7-12.4,4.7-27.6S64.7,9.5,60,4.7z M44.5,15c3.5,0,6.4,2.8,6.4,6.1s-2.8,6.1-6.4,6.1
		c-0.4,0-0.8,0-1.2-0.1c1-1.8,1.5-3.8,1.5-6s-0.6-4.3-1.6-6.1C43.6,15,44,15,44.5,15L44.5,15z M32.4,12.5c4.8,0,8.7,3.9,8.7,8.7
		s-3.9,8.7-8.7,8.7s-8.7-3.9-8.7-8.7S27.5,12.5,32.4,12.5z M20.2,15c0.4,0,0.9,0,1.3,0.1c-1,1.8-1.6,3.9-1.6,6.1s0.5,4.2,1.5,5.9
		c-0.4,0.1-0.8,0.1-1.2,0.1c-3.5,0-6.4-2.8-6.4-6.1S16.7,15,20.2,15L20.2,15z M7.5,43.6c0-3.1,3.7-5.7,8.4-6.1
		c-1.3,1.7-2.2,3.7-2.2,6s0.9,4.5,2.4,6.2C11.3,49.4,7.5,46.8,7.5,43.6L7.5,43.6z M32.4,52.2c-8.2,0-14.9-3.9-14.9-8.7
		s6.7-8.7,14.9-8.7s14.9,3.9,14.9,8.7S40.6,52.2,32.4,52.2z M48.6,49.7C50,48,51,46,51,43.5s-0.9-4.4-2.2-6c4.7,0.4,8.4,3,8.4,6.1
		S53.4,49.4,48.6,49.7L48.6,49.7z"/>
</g>
</svg>
