<svg width="160" height="51" viewBox="0 0 160 51" fill="none" xmlns="http://www.w3.org/2000/svg">
<g clip-path="url(#clip0_3647_1193)">
<path d="M52.333 11.5024V16.7533H50.583V3.25098H55.583C57.083 3.25098 58.2497 3.66772 59.083 4.41785C59.9163 5.16798 60.333 6.16816 60.333 7.41837C60.333 8.75194 59.9163 9.75212 59.083 10.4189C58.2497 11.0857 57.083 11.5024 55.583 11.5024H52.333ZM52.333 10.0022H55.4997C56.4163 10.0022 57.1663 9.75212 57.6663 9.33538C58.1663 8.91864 58.4163 8.25185 58.4163 7.41837C58.4163 6.5849 58.1663 6.00146 57.6663 5.50137C57.1663 5.00128 56.4997 4.75124 55.583 4.75124H52.2497V10.0022H52.333Z" fill="black"/>
<path d="M64.416 15.3364H70.8327V16.7533H62.666V3.25098H64.416V15.3364Z" fill="black"/>
<path d="M80.583 13.2527H74.9163L73.6663 16.7533H71.833L76.9997 3.25098H78.583L83.7497 16.7533H81.9163L80.583 13.2527ZM75.4997 11.7525H80.083L77.7497 5.41802L75.4997 11.7525Z" fill="black"/>
<path d="M95.4997 15.0024C95.083 15.6692 94.4163 16.1693 93.583 16.5027C92.7497 16.8361 91.833 17.0028 90.7497 17.0028C89.6663 17.0028 88.6663 16.7527 87.833 16.2526C86.9997 15.7525 86.333 15.0024 85.833 14.0856C85.333 13.1687 85.1663 12.0019 85.083 10.7517V9.58479C85.083 7.58443 85.583 6.00082 86.4997 4.83395C87.4163 3.75043 88.7497 3.16699 90.4997 3.16699C91.9163 3.16699 93.083 3.50038 93.9163 4.25052C94.7497 5.00065 95.333 6.00082 95.4997 7.33439H93.7497C93.4163 5.50074 92.333 4.66726 90.583 4.66726C89.4163 4.66726 88.4997 5.084 87.833 5.91748C87.2497 6.75095 86.9163 8.00117 86.9163 9.58479V10.6683C86.9163 12.1686 87.2497 13.4188 87.9163 14.2523C88.583 15.1691 89.583 15.5858 90.7497 15.5858C91.4163 15.5858 91.9997 15.5025 92.4997 15.3358C92.9997 15.1691 93.4163 14.9191 93.7497 14.5857V11.5851H90.6663V10.0015H95.583V15.0024H95.4997Z" fill="black"/>
<path d="M100.5 16.7533H98.75V3.25098H100.5V16.7533Z" fill="black"/>
<path d="M111.5 13.2527H105.833L104.583 16.7533H102.75L107.917 3.25098H109.5L114.667 16.7533H112.833L111.5 13.2527ZM106.333 11.7525H110.917L108.583 5.41802L106.333 11.7525Z" fill="black"/>
<path d="M121.5 11.2524H118.333V16.7533H116.583V3.25098H121.083C122.583 3.25098 123.75 3.58437 124.583 4.25115C125.416 4.91794 125.833 5.91811 125.833 7.25168C125.833 8.08516 125.583 8.83529 125.166 9.41873C124.75 10.0022 124.083 10.5023 123.25 10.8356L126.416 16.5867V16.67H124.5L121.5 11.2524ZM118.333 9.83547H121.083C122 9.83547 122.666 9.58542 123.166 9.16868C123.666 8.75194 123.916 8.08516 123.916 7.33503C123.916 6.50155 123.666 5.83476 123.166 5.41802C122.666 5.00128 121.916 4.75124 121 4.75124H118.333V9.83547Z" fill="black"/>
<path d="M130.25 16.7533H128.5V3.25098H130.25V16.7533Z" fill="black"/>
<path d="M137.583 10.752C136.083 10.3353 134.916 9.75182 134.249 9.16839C133.583 8.5016 133.166 7.75147 133.166 6.83464C133.166 5.75112 133.583 4.91764 134.416 4.16751C135.249 3.41738 136.333 3.08398 137.749 3.08398C138.666 3.08398 139.499 3.25068 140.249 3.58407C140.999 3.91746 141.499 4.41755 141.916 5.08434C142.333 5.75112 142.499 6.4179 142.499 7.16804H140.749C140.749 6.33456 140.499 5.66777 139.999 5.25103C139.499 4.83429 138.749 4.58425 137.833 4.58425C136.916 4.58425 136.249 4.75094 135.749 5.16768C135.249 5.58442 134.999 6.08451 134.999 6.7513C134.999 7.33473 135.249 7.75147 135.666 8.16821C136.166 8.58495 136.916 8.91834 138.083 9.25173C139.166 9.58513 140.083 9.91852 140.749 10.3353C141.416 10.752 141.833 11.1687 142.166 11.6688C142.499 12.1689 142.666 12.7523 142.666 13.4191C142.666 14.5027 142.249 15.4195 141.416 16.0863C140.583 16.7531 139.416 17.0864 137.999 17.0864C137.083 17.0864 136.166 16.9197 135.416 16.5864C134.583 16.253 133.999 15.7529 133.583 15.0861C133.166 14.5027 132.916 13.7525 132.916 13.0024H134.666C134.666 13.8359 134.999 14.5027 135.583 14.9194C136.166 15.4195 136.999 15.6695 137.999 15.6695C138.916 15.6695 139.666 15.5028 140.166 15.0861C140.666 14.6694 140.916 14.1693 140.916 13.5025C140.916 12.8357 140.666 12.3356 140.249 12.0022C139.666 11.4188 138.833 11.0854 137.583 10.752Z" fill="black"/>
<path d="M147.25 3.25098L151.667 14.2529L156.083 3.25098H158.417V16.7533H156.667V11.5024L156.833 5.83476L152.417 16.7533H151.083L146.583 5.83476L146.75 11.5024V16.7533H145V3.25098H147.25Z" fill="black"/>
<path d="M60.4163 34.1732C60.2497 35.5901 59.7497 36.6736 58.833 37.5071C57.9163 38.2573 56.7497 38.674 55.333 38.674C53.7497 38.674 52.4997 38.0906 51.4997 36.9237C50.4997 35.7568 50.083 34.2566 50.083 32.3395V31.006C50.083 29.7558 50.333 28.6722 50.7497 27.6721C51.1663 26.7552 51.833 26.0051 52.6663 25.505C53.4997 25.0049 54.4163 24.7549 55.4997 24.7549C56.9163 24.7549 58.083 25.1716 58.9163 25.9218C59.7497 26.7552 60.2497 27.8388 60.4163 29.2557H58.6663C58.4997 28.1721 58.1663 27.422 57.6663 26.9219C57.1663 26.4218 56.4163 26.1718 55.4997 26.1718C54.333 26.1718 53.4997 26.5885 52.833 27.422C52.1663 28.2555 51.833 29.4224 51.833 31.006V32.3395C51.833 33.8398 52.1663 35.0067 52.7497 35.8402C53.333 36.6736 54.2497 37.1737 55.333 37.1737C56.333 37.1737 57.083 36.9237 57.583 36.5069C58.083 36.0902 58.4997 35.2567 58.6663 34.1732H60.4163Z" fill="black"/>
<path d="M73.3333 38.4233H71.5833V32.1722H64.75V38.4233H63V24.9209H64.75V30.7553H71.5833V24.9209H73.3333V38.4233Z" fill="black"/>
<path d="M84.2493 32.1722H78.416V36.923H85.2494V38.3399H76.666V24.9209H85.166V26.3378H78.4993V30.6719H84.3327V32.1722H84.2493Z" fill="black"/>
<path d="M97.4994 34.1732C97.3327 35.5901 96.8327 36.6736 95.916 37.5071C94.9993 38.3406 93.8327 38.674 92.416 38.674C90.8327 38.674 89.5827 38.0906 88.5827 36.9237C87.5827 35.7568 87.166 34.2566 87.166 32.3395V31.006C87.166 29.7558 87.416 28.6722 87.8327 27.6721C88.2494 26.7552 88.916 26.0051 89.7493 25.505C90.5827 25.0049 91.4993 24.7549 92.5827 24.7549C93.9993 24.7549 95.166 25.1716 95.9993 25.9218C96.8327 26.7552 97.3327 27.8388 97.4994 29.2557H95.7494C95.5827 28.1721 95.2493 27.422 94.7493 26.9219C94.2493 26.4218 93.4993 26.1718 92.5827 26.1718C91.416 26.1718 90.5827 26.5885 89.916 27.422C89.2494 28.2555 88.916 29.4224 88.916 31.006V32.3395C88.916 33.8398 89.2494 35.0067 89.8327 35.8402C90.416 36.6736 91.3327 37.1737 92.416 37.1737C93.416 37.1737 94.166 36.9237 94.666 36.5069C95.166 36.0902 95.5827 35.2567 95.7494 34.1732H97.4994Z" fill="black"/>
<path d="M103.417 32.1722L101.75 33.9225V38.5066H100V24.9209H101.75V31.5887L107.75 24.9209H109.917L104.583 30.922L110.333 38.4233H108.167L103.417 32.1722Z" fill="black"/>
<path d="M111.833 37.5064C111.833 37.173 111.916 36.9229 112.083 36.7562C112.25 36.5895 112.5 36.4229 112.916 36.4229C113.333 36.4229 113.5 36.5062 113.75 36.7562C114 37.0063 114 37.173 114 37.5064C114 37.7564 113.916 38.0065 113.75 38.2565C113.583 38.5066 113.333 38.5066 112.916 38.5066C112.5 38.5066 112.333 38.4232 112.083 38.2565C111.916 38.0065 111.833 37.8398 111.833 37.5064Z" fill="black"/>
<path d="M127.499 32.0895C127.499 33.4231 127.249 34.5899 126.833 35.5901C126.416 36.5903 125.749 37.3404 124.916 37.8405C124.083 38.3406 123.166 38.5906 122.083 38.5906C120.999 38.5906 120.083 38.3406 119.249 37.8405C118.416 37.3404 117.749 36.5903 117.333 35.5901C116.916 34.5899 116.666 33.5064 116.666 32.2562V31.256C116.666 29.9225 116.916 28.8389 117.333 27.8388C117.749 26.8386 118.416 26.0885 119.249 25.5884C120.083 25.0883 120.999 24.7549 122.083 24.7549C123.166 24.7549 124.083 25.0049 124.916 25.505C125.749 26.0051 126.416 26.7552 126.833 27.7554C127.249 28.7556 127.499 29.9225 127.499 31.256V32.0895ZM125.749 31.256C125.749 29.6724 125.416 28.4222 124.749 27.5887C124.083 26.7552 123.166 26.3385 122.083 26.3385C120.999 26.3385 120.083 26.7552 119.416 27.5887C118.749 28.4222 118.416 29.6724 118.416 31.1727V32.1729C118.416 33.7565 118.749 34.9233 119.416 35.8402C120.083 36.757 120.999 37.1737 122.083 37.1737C123.249 37.1737 124.083 36.757 124.749 35.9235C125.416 35.09 125.666 33.9232 125.749 32.3395V31.256Z" fill="black"/>
<path d="M135.25 32.9223H132.083V38.4233H130.333V24.9209H134.833C136.333 24.9209 137.5 25.2543 138.333 25.9211C139.166 26.5879 139.583 27.588 139.583 28.9216C139.583 29.7551 139.333 30.5052 138.916 31.0886C138.5 31.7554 137.833 32.1722 137 32.5056L140.166 38.2566V38.3399H138.25L135.25 32.9223ZM132.083 31.5054H134.833C135.75 31.5054 136.416 31.2553 136.916 30.8386C137.416 30.4219 137.666 29.7551 137.666 29.0049C137.666 28.1715 137.416 27.5047 136.916 27.0879C136.416 26.6712 135.666 26.4212 134.75 26.4212H132V31.5054H132.083Z" fill="black"/>
<path d="M152.083 36.6733C151.666 37.3401 150.999 37.8402 150.166 38.1736C149.333 38.507 148.416 38.6737 147.333 38.6737C146.249 38.6737 145.249 38.4236 144.416 37.9235C143.583 37.4234 142.916 36.6733 142.416 35.7565C141.916 34.8396 141.749 33.6728 141.666 32.4226V31.2557C141.666 29.2553 142.166 27.6717 143.083 26.5049C143.999 25.4213 145.333 24.8379 147.083 24.8379C148.499 24.8379 149.666 25.1713 150.499 25.9214C151.333 26.6715 151.916 27.6717 152.083 29.0053H150.333C149.999 27.1716 148.916 26.3382 147.166 26.3382C145.999 26.3382 145.083 26.7549 144.416 27.5884C143.833 28.4219 143.499 29.6721 143.499 31.2557V32.3392C143.499 33.8395 143.833 35.0897 144.499 35.9232C145.166 36.84 146.166 37.2567 147.333 37.2567C147.999 37.2567 148.583 37.1734 149.083 37.0067C149.583 36.84 149.999 36.59 150.333 36.2566V33.256H147.249V31.6724H152.166V36.6733H152.083Z" fill="black"/>
<path d="M19.4548 0H0.28125V50.0088L12.2446 38.7485H19.4548C29.5752 38.7485 37.7878 30.3365 37.7878 19.9704V18.7782C37.7878 8.41208 29.5752 0 19.4548 0ZM18.9375 27.124C21.4595 27.124 23.6906 25.8655 25.0808 23.9115L28.1526 26.1966C26.0833 29.111 22.7206 30.9988 18.9375 30.9988C12.6326 30.9988 7.5239 25.7662 7.5239 19.308C7.5239 12.8499 12.6326 7.61724 18.9375 7.61724C22.3326 7.61724 25.3719 9.14068 27.4412 11.5252C27.6998 11.8233 27.9261 12.1213 28.1526 12.4525L25.0808 14.7377C25.0162 14.6384 24.9191 14.5389 24.8545 14.4396C23.4643 12.6843 21.3302 11.5583 18.9375 11.5583C14.7342 11.5583 11.3392 15.0358 11.3392 19.3412C11.3392 23.6134 14.7342 27.124 18.9375 27.124Z" fill="url(#paint0_linear_3647_1193)"/>
</g>
<defs>
<linearGradient id="paint0_linear_3647_1193" x1="19.0345" y1="0" x2="19.0345" y2="50.0088" gradientUnits="userSpaceOnUse">
<stop stop-color="#4974BE"/>
<stop offset="0.0001" stop-color="#4974BE"/>
<stop offset="0.385417" stop-color="#4974BE"/>
<stop offset="0.385517" stop-color="#E5D35B"/>
<stop offset="1" stop-color="#E5D35B"/>
</linearGradient>
<clipPath id="clip0_3647_1193">
<rect width="160" height="50.0088" fill="white"/>
</clipPath>
</defs>
</svg>
