<svg version="1.1" id="Layer_1" xmlns="http://www.w3.org/2000/svg" xmlns:xlink="http://www.w3.org/1999/xlink" x="0px" y="0px"
	 width="100%" viewBox="0 0 700 700" enable-background="new 0 0 700 700" xml:space="preserve">
<path fill="#FFFFFF" opacity="1.000000" stroke="none"
	d="
M1.000000,267.000000
	C1.000000,178.000000 1.000000,89.500000 1.000000,1.000000
	C234.333328,1.000000 467.666656,1.000000 701.000000,1.000000
	C701.000000,234.333328 701.000000,467.666656 701.000000,701.000000
	C467.666656,701.000000 234.333328,701.000000 1.000000,701.000000
	C1.000000,556.500000 1.000000,412.000000 1.000000,267.000000
M183.218246,95.281494
	C180.487762,101.902351 182.190216,105.177773 189.924042,108.677338
	C202.104828,114.189171 215.214401,113.358284 228.146729,113.311440
	C234.189209,113.289558 240.230881,113.047218 246.181259,113.741867
	C245.220886,114.226120 244.293304,115.041328 243.294754,115.140282
	C237.341187,115.730278 231.378128,116.433586 225.405472,116.580795
	C209.913986,116.962631 194.390564,117.194435 180.929337,106.998734
	C173.051941,112.305824 165.100494,117.475143 157.346710,122.925636
	C141.150772,134.310516 124.475487,145.150497 111.023659,159.919968
	C108.275787,162.937012 106.756157,167.072723 104.670334,170.692764
	C108.576736,172.746918 112.278976,175.840927 116.428726,176.655685
	C127.808685,178.890030 139.333405,181.127426 150.878174,181.647766
	C190.740829,183.444397 230.351532,181.656418 268.997711,170.262161
	C270.689789,169.763275 272.672638,170.250717 274.307983,171.003128
	C268.963745,173.012390 263.619507,175.021637 257.639709,177.269836
	C262.577789,206.645111 269.566681,236.003067 274.295471,265.737915
	C273.445587,265.905823 272.595673,266.073730 271.745789,266.241638
	C265.146149,236.934464 260.436737,207.199539 253.923203,178.039825
	C252.673172,178.039825 252.165939,177.979736 251.676849,178.048569
	C237.364990,180.062988 223.037964,181.984863 208.771667,184.283432
	C207.390579,184.505951 205.608826,186.939468 205.326187,188.573746
	C201.416656,211.178833 197.755066,233.826675 193.997269,256.458160
	C187.487839,295.661652 181.112991,334.888550 174.353973,374.049072
	C171.522217,390.455780 167.747986,406.697845 164.617371,423.055939
	C163.337692,429.742554 162.522141,436.524994 161.677765,443.286621
	C158.518204,468.587769 152.464767,493.455963 151.607513,519.135742
	C151.126877,533.533081 148.041565,547.828430 146.512741,562.210449
	C145.343567,573.209290 142.560394,584.072815 145.435593,595.376099
	C151.338104,618.580627 166.589539,633.835632 186.771332,644.736267
	C214.273346,659.590759 244.374374,665.200623 275.127502,666.806274
	C311.799194,668.720947 348.324982,666.631714 384.394409,658.990112
	C431.886566,648.928528 476.758606,632.381897 517.136597,604.960205
	C539.085693,590.054016 558.961121,572.808411 572.042664,549.227051
	C586.713135,522.781555 587.079285,496.841095 568.448608,471.571381
	C545.812622,440.868927 523.510376,409.916809 501.347229,378.870270
	C470.441132,335.576294 439.984924,291.960541 408.982819,248.735901
	C384.042816,213.963272 358.578369,179.566788 333.863190,144.438431
	C345.509491,136.433594 357.174377,128.455521 368.791290,120.408272
	C372.476044,117.855804 376.520325,115.576935 379.539948,112.364365
	C384.711456,106.862488 389.966949,101.170723 393.754486,94.717773
	C397.076599,89.057869 395.562805,86.331978 389.463135,83.866409
	C385.054230,82.084282 380.329010,80.734528 375.622375,80.098671
	C353.174835,77.066055 330.623352,76.400002 307.376007,77.574409
	C305.601135,74.316856 303.826263,71.059303 301.815430,67.185944
	C285.236389,46.761482 265.747864,33.054726 237.472015,35.746449
	C217.865997,37.612835 202.921341,46.009865 194.280487,63.373474
	C189.398544,73.183670 187.249741,84.353981 183.218246,95.281494
z"/>
<path fill="#F6B94F" opacity="1.000000" stroke="none"
	d="
M333.346619,145.003403
	C358.578369,179.566788 384.042816,213.963272 408.982819,248.735901
	C439.984924,291.960541 470.441132,335.576294 501.347229,378.870270
	C523.510376,409.916809 545.812622,440.868927 568.448608,471.571381
	C587.079285,496.841095 586.713135,522.781555 572.042664,549.227051
	C558.961121,572.808411 539.085693,590.054016 517.136597,604.960205
	C476.758606,632.381897 431.886566,648.928528 384.394409,658.990112
	C348.324982,666.631714 311.799194,668.720947 275.127502,666.806274
	C244.374374,665.200623 214.273346,659.590759 186.771332,644.736267
	C166.589539,633.835632 151.338104,618.580627 145.435593,595.376099
	C142.560394,584.072815 145.343567,573.209290 146.512741,562.210449
	C148.041565,547.828430 151.126877,533.533081 151.607513,519.135742
	C152.464767,493.455963 158.518204,468.587769 161.677765,443.286621
	C162.522141,436.524994 163.337692,429.742554 164.617371,423.055939
	C167.747986,406.697845 171.522217,390.455780 174.353973,374.049072
	C181.112991,334.888550 187.487839,295.661652 193.997269,256.458160
	C197.755066,233.826675 201.416656,211.178833 205.326187,188.573746
	C205.608826,186.939468 207.390579,184.505951 208.771667,184.283432
	C223.037964,181.984863 237.364990,180.062988 251.676849,178.048569
	C252.165939,177.979736 252.673172,178.039825 253.923203,178.039825
	C260.436737,207.199539 265.146149,236.934464 271.745789,266.241638
	C272.595673,266.073730 273.445587,265.905823 274.295471,265.737915
	C269.566681,236.003067 262.577789,206.645111 257.639709,177.269836
	C263.619507,175.021637 268.963745,173.012390 274.737427,170.522552
	C280.918610,167.977844 286.819305,166.250305 292.392548,163.783051
	C306.124023,157.704132 319.705078,151.285446 333.346619,145.003403
M347.569031,291.873474
	C340.053833,276.110474 332.578217,260.328278 324.954010,244.618179
	C324.289001,243.247879 322.646790,242.351822 321.458466,241.235489
	C321.551788,242.843781 321.166809,244.679764 321.808289,246.027084
	C338.104523,280.255646 354.507629,314.433319 370.896790,348.617615
	C371.399384,349.665924 371.813354,350.806030 372.539001,351.678467
	C372.935272,352.154846 374.098755,352.522766 374.552948,352.274628
	C375.021423,352.018616 375.367523,350.869415 375.203369,350.263824
	C374.860229,348.998322 374.154816,347.829346 373.583221,346.627808
	C365.010498,328.607391 356.435303,310.588165 347.569031,291.873474
M306.750488,206.706985
	C304.442505,202.067642 302.134552,197.428299 299.483978,192.100266
	C297.204041,196.669983 309.409424,222.912704 313.652405,224.729675
	C313.792542,224.066803 314.219086,223.314011 314.010986,222.839508
	C311.742706,217.667343 309.375153,212.538742 306.750488,206.706985
z"/>
<path fill="#68CDCE" opacity="1.000000" stroke="none"
	d="
M333.604919,144.720917
	C319.705078,151.285446 306.124023,157.704132 292.392548,163.783051
	C286.819305,166.250305 280.918610,167.977844 274.843475,170.160339
	C272.672638,170.250717 270.689789,169.763275 268.997711,170.262161
	C230.351532,181.656418 190.740829,183.444397 150.878174,181.647766
	C139.333405,181.127426 127.808685,178.890030 116.428726,176.655685
	C112.278976,175.840927 108.576736,172.746918 104.670334,170.692764
	C106.756157,167.072723 108.275787,162.937012 111.023659,159.919968
	C124.475487,145.150497 141.150772,134.310516 157.346710,122.925636
	C165.100494,117.475143 173.051941,112.305824 180.929337,106.998734
	C194.390564,117.194435 209.913986,116.962631 225.405472,116.580795
	C231.378128,116.433586 237.341187,115.730278 243.294754,115.140282
	C244.293304,115.041328 245.220886,114.226120 246.629059,113.338150
	C266.205414,110.141266 283.981171,103.928482 298.975464,91.368484
	C303.113068,87.902618 308.311188,84.645897 308.015961,77.967247
	C330.623352,76.400002 353.174835,77.066055 375.622375,80.098671
	C380.329010,80.734528 385.054230,82.084282 389.463135,83.866409
	C395.562805,86.331978 397.076599,89.057869 393.754486,94.717773
	C389.966949,101.170723 384.711456,106.862488 379.539948,112.364365
	C376.520325,115.576935 372.476044,117.855804 368.791290,120.408272
	C357.174377,128.455521 345.509491,136.433594 333.604919,144.720917
z"/>
<path fill="#68CDCE" opacity="1.000000" stroke="none"
	d="
M183.869827,94.911652
	C187.249741,84.353981 189.398544,73.183670 194.280487,63.373474
	C202.921341,46.009865 217.865997,37.612835 237.472015,35.746449
	C265.747864,33.054726 285.236389,46.761482 301.813080,67.824539
	C300.161865,70.529503 298.609344,72.682175 296.848450,74.648155
	C285.821594,86.959030 271.449982,93.565483 255.935059,97.812073
	C237.941620,102.737045 219.661148,105.625969 201.119385,100.972816
	C195.233215,99.495651 189.612183,96.961891 183.869827,94.911652
M267.302551,73.181915
	C264.428040,76.540077 266.608978,78.561302 269.361847,80.092957
	C273.178650,82.216553 280.226410,80.667664 283.053314,77.333939
	C285.738739,74.167053 285.917664,69.256561 283.069397,66.519547
	C282.287689,65.768394 280.444244,66.122131 278.272888,65.975754
	C273.184845,65.867645 269.805206,68.263214 267.302551,73.181915
M213.674759,93.682747
	C217.205856,91.160690 216.867767,87.237373 215.300735,84.504539
	C214.204208,82.592270 210.573517,82.133125 207.538498,80.596115
	C203.177902,79.816010 201.143555,82.940399 200.789047,86.082680
	C200.483932,88.787102 201.456924,92.622086 203.340622,94.316437
	C205.320923,96.097664 209.046875,95.973869 212.042450,96.496712
	C212.211731,96.526253 212.675156,94.870537 213.674759,93.682747
M249.097626,78.568054
	C248.038055,77.784027 247.088074,76.686317 245.899643,76.271088
	C241.137878,74.607323 236.265610,75.162262 233.039810,78.878311
	C231.216858,80.978310 230.259277,85.029137 230.851120,87.784752
	C232.233200,94.219872 238.102890,96.751610 243.966583,94.343239
	C250.199265,91.783310 252.486816,85.613831 249.097626,78.568054
z"/>
<path fill="#2DB6BD" opacity="1.000000" stroke="none"
	d="
M183.544037,95.096573
	C189.612183,96.961891 195.233215,99.495651 201.119385,100.972816
	C219.661148,105.625969 237.941620,102.737045 255.935059,97.812073
	C271.449982,93.565483 285.821594,86.959030 296.848450,74.648155
	C298.609344,72.682175 300.161865,70.529503 301.931030,68.132439
	C303.826263,71.059303 305.601135,74.316856 307.695984,77.770828
	C308.311188,84.645897 303.113068,87.902618 298.975464,91.368484
	C283.981171,103.928482 266.205414,110.141266 246.674881,112.919617
	C240.230881,113.047218 234.189209,113.289558 228.146729,113.311440
	C215.214401,113.358284 202.104828,114.189171 189.924042,108.677338
	C182.190216,105.177773 180.487762,101.902351 183.544037,95.096573
z"/>
<path fill="#FEF9F0" opacity="1.000000" stroke="none"
	d="
M347.714874,292.221069
	C356.435303,310.588165 365.010498,328.607391 373.583221,346.627808
	C374.154816,347.829346 374.860229,348.998322 375.203369,350.263824
	C375.367523,350.869415 375.021423,352.018616 374.552948,352.274628
	C374.098755,352.522766 372.935272,352.154846 372.539001,351.678467
	C371.813354,350.806030 371.399384,349.665924 370.896790,348.617615
	C354.507629,314.433319 338.104523,280.255646 321.808289,246.027084
	C321.166809,244.679764 321.551788,242.843781 321.458466,241.235489
	C322.646790,242.351822 324.289001,243.247879 324.954010,244.618179
	C332.578217,260.328278 340.053833,276.110474 347.714874,292.221069
z"/>
<path fill="#FEF9EF" opacity="1.000000" stroke="none"
	d="
M306.892578,207.052612
	C309.375153,212.538742 311.742706,217.667343 314.010986,222.839508
	C314.219086,223.314011 313.792542,224.066803 313.652405,224.729675
	C309.409424,222.912704 297.204041,196.669983 299.483978,192.100266
	C302.134552,197.428299 304.442505,202.067642 306.892578,207.052612
z"/>
<path fill="#F1FAFA" opacity="1.000000" stroke="none"
	d="
M249.343994,78.872025
	C252.486816,85.613831 250.199265,91.783310 243.966583,94.343239
	C238.102890,96.751610 232.233200,94.219872 230.851120,87.784752
	C230.259277,85.029137 231.216858,80.978310 233.039810,78.878311
	C236.265610,75.162262 241.137878,74.607323 245.899643,76.271088
	C247.088074,76.686317 248.038055,77.784027 249.343994,78.872025
M239.903778,79.117722
	C236.749023,79.936592 233.609299,80.922516 233.752274,85.010201
	C233.881012,88.690788 235.616959,91.448112 239.551437,91.891151
	C243.449356,92.330078 247.952774,88.070450 247.688583,84.137947
	C247.404800,79.913773 244.540573,78.694931 239.903778,79.117722
z"/>
<path fill="#2EB6BD" opacity="1.000000" stroke="none"
	d="
M208.074631,81.024979
	C210.573517,82.133125 214.204208,82.592270 215.300735,84.504539
	C216.867767,87.237373 217.205856,91.160690 212.980438,93.700714
	C211.486298,93.571404 210.590500,93.605530 209.904816,93.242630
	C207.897415,92.180244 204.849518,91.319450 204.331451,89.700562
	C203.806961,88.061607 205.794876,85.601166 206.728806,83.521439
	C207.115067,82.661278 207.622360,81.855492 208.074631,81.024979
z"/>
<path fill="#32B8BE" opacity="1.000000" stroke="none"
	d="
M268.009033,72.979385
	C269.805206,68.263214 273.184845,65.867645 278.792297,66.299095
	C279.967987,69.012840 281.843109,72.103477 280.973450,73.617294
	C279.873810,75.531410 276.636780,76.459557 274.145569,77.275040
	C270.498444,78.468887 269.462311,75.281143 268.009033,72.979385
z"/>
<path fill="#EFF9FA" opacity="1.000000" stroke="none"
	d="
M267.655792,73.080650
	C269.462311,75.281143 270.498444,78.468887 274.145569,77.275040
	C276.636780,76.459557 279.873810,75.531410 280.973450,73.617294
	C281.843109,72.103477 279.967987,69.012840 279.199890,66.295647
	C280.444244,66.122131 282.287689,65.768394 283.069397,66.519547
	C285.917664,69.256561 285.738739,74.167053 283.053314,77.333939
	C280.226410,80.667664 273.178650,82.216553 269.361847,80.092957
	C266.608978,78.561302 264.428040,76.540077 267.655792,73.080650
z"/>
<path fill="#EAF8F8" opacity="1.000000" stroke="none"
	d="
M207.806564,80.810547
	C207.622360,81.855492 207.115067,82.661278 206.728806,83.521439
	C205.794876,85.601166 203.806961,88.061607 204.331451,89.700562
	C204.849518,91.319450 207.897415,92.180244 209.904816,93.242630
	C210.590500,93.605530 211.486298,93.571404 212.643890,93.858932
	C212.675156,94.870537 212.211731,96.526253 212.042450,96.496712
	C209.046875,95.973869 205.320923,96.097664 203.340622,94.316437
	C201.456924,92.622086 200.483932,88.787102 200.789047,86.082680
	C201.143555,82.940399 203.177902,79.816010 207.806564,80.810547
z"/>
<path fill="#2FB7BD" opacity="1.000000" stroke="none"
	d="
M240.310577,79.078568
	C244.540573,78.694931 247.404800,79.913773 247.688583,84.137947
	C247.952774,88.070450 243.449356,92.330078 239.551437,91.891151
	C235.616959,91.448112 233.881012,88.690788 233.752274,85.010201
	C233.609299,80.922516 236.749023,79.936592 240.310577,79.078568
z"/>
</svg>
