<svg width="20" height="20" viewBox="0 0 20 20" fill="none" xmlns="http://www.w3.org/2000/svg">
<path d="M18.9403 12.1699L18.5044 11.9184C17.0618 11.0855 17.0583 8.91641 18.5044 8.08164L18.9403 7.83008C19.5001 7.50664 19.6923 6.78867 19.3692 6.2293L17.9501 3.7707C17.627 3.21133 16.9087 3.01914 16.3493 3.3418L15.9149 3.59258C14.4825 4.41953 12.5907 3.35664 12.5907 1.67734V1.17188C12.5907 0.525781 12.0649 0 11.4188 0H8.58015C7.93406 0 7.40827 0.525781 7.40827 1.17188V1.67734C7.40827 3.35703 5.5157 4.41953 4.08367 3.59258L3.64968 3.3418C3.08874 3.01797 2.37273 3.20977 2.0489 3.7707L0.629368 6.2293C0.306321 6.78867 0.498899 7.50664 1.05827 7.83008L1.4946 8.08164C2.93679 8.91445 2.94031 11.0836 1.4946 11.9184L1.05827 12.1699C0.498899 12.4934 0.306321 13.2113 0.629368 13.7707L2.0489 16.2293C2.37195 16.7887 3.08992 16.9813 3.64968 16.6582L4.08367 16.4074C5.51687 15.5801 7.40827 16.6457 7.40827 18.3227V18.8281C7.40827 19.4742 7.93406 20 8.58015 20H11.4188C12.0649 20 12.5907 19.4742 12.5907 18.8281V18.3227C12.5907 16.6434 14.4829 15.5805 15.9149 16.4074L16.3493 16.6582C16.9087 16.9813 17.627 16.7887 17.9501 16.2293L19.3692 13.7707C19.693 13.2102 19.5012 12.4941 18.9403 12.1699ZM9.99929 15.0242C7.22898 15.0242 4.97507 12.7703 4.97507 10C4.97507 7.22969 7.22898 4.97578 9.99929 4.97578C12.77 4.97578 15.0239 7.22969 15.0239 10C15.0239 12.7703 12.77 15.0242 9.99929 15.0242Z" fill="url(#paint0_linear_4696_3638)"/>
<path d="M10.0008 6.14766C7.87656 6.14766 6.14844 7.87578 6.14844 10C6.14844 12.1242 7.87656 13.8523 10.0008 13.8523C12.125 13.8523 13.8535 12.1242 13.8535 10C13.8535 7.87578 12.125 6.14766 10.0008 6.14766ZM12.0527 9.57852L9.64961 11.3625C9.41094 11.5395 9.07695 11.5102 8.87305 11.293L7.87109 10.225C7.64961 9.98907 7.66133 9.61797 7.89727 9.39688C8.1332 9.17539 8.50391 9.18711 8.72539 9.42305L9.37031 10.1102L11.3543 8.6375C11.6141 8.44492 11.9813 8.49922 12.1742 8.75899C12.3668 9.01875 12.3125 9.38594 12.0527 9.57852Z" fill="url(#paint1_linear_4696_3638)"/>
<defs>
<linearGradient id="paint0_linear_4696_3638" x1="12.861" y1="17.5384" x2="5.69357" y2="2.129" gradientUnits="userSpaceOnUse">
<stop stop-color="#E60C84"/>
<stop offset="1" stop-color="#FFCF4B"/>
</linearGradient>
<linearGradient id="paint1_linear_4696_3638" x1="11.1581" y1="12.904" x2="8.48368" y2="6.86857" gradientUnits="userSpaceOnUse">
<stop stop-color="#E60C84"/>
<stop offset="1" stop-color="#FFCF4B"/>
</linearGradient>
</defs>
</svg>
