<svg width="20" height="20" viewBox="0 0 20 20" fill="none" xmlns="http://www.w3.org/2000/svg">
<path d="M3.7768 10.5288C5.44707 11.08 7.66106 11.3835 10.0112 11.3835C12.3639 11.3835 14.5743 11.0837 16.2352 10.5393C17.7916 10.0291 18.6844 9.35828 18.6844 8.69883C18.6844 7.84414 17.1835 6.97922 14.8445 6.47617L14.9094 7.66859C14.9123 7.72069 14.8976 7.77223 14.8679 7.81508C14.8381 7.85792 14.7949 7.88961 14.7451 7.90512L13.374 8.33215C12.2818 8.68673 11.1408 8.86796 9.99246 8.86922C8.84825 8.86877 7.71132 8.68721 6.62387 8.33129L5.25594 7.90523C5.20613 7.88972 5.16292 7.85804 5.13315 7.81519C5.10339 7.77235 5.08876 7.7208 5.0916 7.66871L5.15742 6.45832C2.82059 6.96035 1.31641 7.82738 1.31641 8.67734C1.31641 9.33793 2.21316 10.0127 3.7768 10.5288Z" fill="url(#paint0_linear_4696_3647)"/>
<path d="M13.233 7.88547L14.4322 7.51195L14.1678 2.65555C14.1612 2.5348 14.1281 2.41698 14.0709 2.31047C14.0136 2.20397 13.9336 2.11139 13.8365 2.03932C13.7393 1.96725 13.6276 1.91746 13.509 1.8935C13.3905 1.86953 13.2681 1.87198 13.1507 1.90066L11.3108 2.34988C10.4503 2.5591 9.55209 2.5591 8.69152 2.34988L6.85168 1.90066C6.7342 1.87198 6.61185 1.86953 6.49332 1.8935C6.37479 1.91746 6.263 1.96725 6.16589 2.03932C6.06878 2.11139 5.98875 2.20397 5.93148 2.31047C5.87421 2.41698 5.84111 2.5348 5.83453 2.65555L5.57031 7.51195L6.76703 7.88473C8.86756 8.57169 11.1323 8.57195 13.233 7.88547Z" fill="url(#paint1_linear_4696_3647)"/>
<path d="M11.4113 13.7482C10.8814 13.3151 10.4464 13.122 10.0006 13.122C9.55473 13.122 9.11977 13.3151 8.58984 13.7482L8.88648 14.1112C9.74031 13.4134 10.2609 13.4134 11.1146 14.1112L11.4113 13.7482Z" fill="url(#paint2_linear_4696_3647)"/>
<path d="M6.52453 18.1232C7.93174 18.1232 9.0725 16.9825 9.0725 15.5753C9.0725 14.1681 7.93174 13.0273 6.52453 13.0273C5.11733 13.0273 3.97656 14.1681 3.97656 15.5753C3.97656 16.9825 5.11733 18.1232 6.52453 18.1232Z" fill="url(#paint3_linear_4696_3647)"/>
<path d="M15.872 16.5545C16.411 15.2542 15.7938 13.7632 14.4936 13.2243C13.1933 12.6853 11.7023 13.3025 11.1634 14.6027C10.6244 15.903 11.2416 17.394 12.5418 17.9329C13.8421 18.4719 15.3331 17.8547 15.872 16.5545Z" fill="url(#paint4_linear_4696_3647)"/>
<defs>
<linearGradient id="paint0_linear_4696_3647" x1="12.6086" y1="10.7773" x2="12.0376" y2="6.23338" gradientUnits="userSpaceOnUse">
<stop stop-color="#E60C84"/>
<stop offset="1" stop-color="#FFCF4B"/>
</linearGradient>
<linearGradient id="paint1_linear_4696_3647" x1="11.3321" y1="7.59728" x2="9.52985" y2="2.07206" gradientUnits="userSpaceOnUse">
<stop stop-color="#E60C84"/>
<stop offset="1" stop-color="#FFCF4B"/>
</linearGradient>
<linearGradient id="paint2_linear_4696_3647" x1="10.4243" y1="13.9894" x2="10.2836" y2="13.0843" gradientUnits="userSpaceOnUse">
<stop stop-color="#E60C84"/>
<stop offset="1" stop-color="#FFCF4B"/>
</linearGradient>
<linearGradient id="paint3_linear_4696_3647" x1="7.2898" y1="17.496" x2="5.52088" y2="13.5042" gradientUnits="userSpaceOnUse">
<stop stop-color="#E60C84"/>
<stop offset="1" stop-color="#FFCF4B"/>
</linearGradient>
<linearGradient id="paint4_linear_4696_3647" x1="15.5856" y1="15.6071" x2="11.2196" y2="15.7127" gradientUnits="userSpaceOnUse">
<stop stop-color="#E60C84"/>
<stop offset="1" stop-color="#FFCF4B"/>
</linearGradient>
</defs>
</svg>
