<svg width="20" height="20" viewBox="0 0 20 20" fill="none" xmlns="http://www.w3.org/2000/svg">
<path d="M4.04487 6.00736V8.09563H3.90593C3.03139 8.09563 2.32031 8.8067 2.32031 9.68124V18.4144C2.32031 19.2889 3.03139 20 3.90593 20H16.0923C16.9668 20 17.6779 19.2889 17.6779 18.4144V9.67716C17.6779 8.80262 16.9668 8.09154 16.0923 8.09154H16.0514V6.00327C16.0514 2.69309 13.3583 0 10.0481 0C6.73797 0.00408664 4.04487 2.69718 4.04487 6.00736ZM10.939 14.434C10.8164 14.5239 10.7837 14.6097 10.7837 14.7528C10.7878 15.3944 10.7878 16.0319 10.7878 16.6735C10.8001 16.9391 10.6652 17.2007 10.4282 17.3192C9.86833 17.6052 9.30846 17.2047 9.30846 16.6735V16.6694C9.30846 16.0278 9.30846 15.3862 9.31255 14.7446C9.31255 14.6138 9.28394 14.528 9.16952 14.4422C8.58921 14.0131 8.39714 13.2816 8.68729 12.64C8.96927 12.0147 9.65991 11.6469 10.3097 11.7777C11.033 11.9248 11.5357 12.5051 11.5439 13.2284C11.5439 13.7311 11.3436 14.1398 10.939 14.434ZM6.67258 6.00736C6.67258 4.14385 8.18872 2.63179 10.0481 2.63179C11.9116 2.63179 13.4237 4.14794 13.4237 6.00736V8.09563H6.67258V6.00736Z" fill="url(#paint0_linear_4696_3626)"/>
<defs>
<linearGradient id="paint0_linear_4696_3626" x1="12.3054" y1="17.5384" x2="4.19119" y2="3.47777" gradientUnits="userSpaceOnUse">
<stop stop-color="#E60C84"/>
<stop offset="1" stop-color="#FFCF4B"/>
</linearGradient>
</defs>
</svg>
