<svg width="1920" height="360" viewBox="0 0 1920 360" fill="none" xmlns="http://www.w3.org/2000/svg">
<g clip-path="url(#clip0_1319_2192)">
<g opacity="0.8">
<mask id="mask0_1319_2192" style="mask-type:alpha" maskUnits="userSpaceOnUse" x="-18" y="-649" width="1957" height="1009">
<rect width="1956.85" height="1009" transform="matrix(-1 0 0 1 1938.85 -649)" fill="#F6F3F2"/>
</mask>
<g mask="url(#mask0_1319_2192)">
<g filter="url(#filter0_f_1319_2192)">
<path d="M1656.54 154.521C1472.42 177.737 1574.31 252.742 1547.5 384.893V397.394C1615.43 402.752 1783.1 427.754 1910.38 484.9C2069.47 556.334 2267.89 311.674 2448.44 325.961C2628.98 340.248 2366.21 100.946 2317.94 36.6559C2269.68 -27.6341 2208.9 92.0167 2103.43 127.733C1997.97 163.45 2040.87 193.809 1931.83 270.6C1822.79 347.391 1840.66 131.305 1656.54 154.521Z" fill="#FD7F57"/>
</g>
<g filter="url(#filter1_f_1319_2192)">
<path d="M1871.67 -38.3048C1790.16 48.809 1792.42 97.9592 1803.74 111.645C1849.03 183.645 1967.13 305.509 2077.24 216.967C2214.88 106.29 2322.14 186.62 2397.21 272.306C2472.29 357.991 2710.04 161.628 2697.52 -24.0238C2685.01 -209.676 2609.93 -322.138 2397.21 -339.99C2184.49 -357.841 2343.59 -295.362 2179.13 -177.544C2014.68 -59.7262 1973.56 -147.197 1871.67 -38.3048Z" fill="#763CD4" fill-opacity="0.85"/>
</g>
</g>
</g>
</g>
<defs>
<filter id="filter0_f_1319_2192" x="1082" y="-443" width="1890" height="1402" filterUnits="userSpaceOnUse" color-interpolation-filters="sRGB">
<feFlood flood-opacity="0" result="BackgroundImageFix"/>
<feBlend mode="normal" in="SourceGraphic" in2="BackgroundImageFix" result="shape"/>
<feGaussianBlur stdDeviation="230.5" result="effect1_foregroundBlur_1319_2192"/>
</filter>
<filter id="filter1_f_1319_2192" x="1258" y="-883" width="1980" height="1716" filterUnits="userSpaceOnUse" color-interpolation-filters="sRGB">
<feFlood flood-opacity="0" result="BackgroundImageFix"/>
<feBlend mode="normal" in="SourceGraphic" in2="BackgroundImageFix" result="shape"/>
<feGaussianBlur stdDeviation="270" result="effect1_foregroundBlur_1319_2192"/>
</filter>
<clipPath id="clip0_1319_2192">
<rect width="1957" height="530" fill="white" transform="translate(-18 -170)"/>
</clipPath>
</defs>
</svg>
