<svg width="157" height="42" viewBox="0 0 157 42" fill="none" xmlns="http://www.w3.org/2000/svg">
<g clip-path="url(#clip0_57_286)">
<mask id="mask0_57_286" style="mask-type:luminance" maskUnits="userSpaceOnUse" x="1" y="2" width="41" height="37">
<path d="M27.2573 35.688L20.6952 4.34701C17.9017 12.558 9.0459 12.096 1.37988 7.14601L14.3201 21.417L27.2573 35.688ZM29.597 38.916L23.0348 7.57801C28.9039 14.052 36.8613 10.224 41.9208 2.72101L35.7574 20.82L29.597 38.916Z" fill="white"/>
</mask>
<g mask="url(#mask0_57_286)">
<path d="M8.89871 43.065L48.6976 35.088L41.1788 -0.828003L1.37988 7.146L8.89871 43.065Z" fill="url(#paint0_linear_57_286)"/>
</g>
<path d="M54.84 38.958H48.2595L47.1065 34.881H38.8824L37.5945 38.958H31.4004L38.447 18.036H47.9866L54.84 38.958ZM45.6837 30.321L43.1355 22.596H42.9699L40.3666 30.321H45.6837Z" fill="white"/>
<path d="M61.5555 22.866V25.842C62.0216 23.778 63.5027 22.866 66.2441 22.866H68.136V27.426L64.4349 27.372C62.4049 27.345 61.5555 28.122 61.5555 29.919V38.958H56.3457V22.866H61.5555Z" fill="white"/>
<path d="M81.0212 38.958H77.7309C72.4659 38.958 71.1504 37.884 71.1504 33.54V27.156H69.5068V22.866H71.4264V19.431H76.3603V22.863H80.7483V27.156H76.3603V32.226C76.3603 34.185 76.5534 34.398 78.2522 34.398H81.0212V38.958Z" fill="white"/>
<path d="M83.4893 17.499H88.972V21.255H83.4893V17.499ZM88.834 22.866V38.958H83.6242V22.866H88.834Z" fill="white"/>
<path d="M91.1642 22.866H92.8078C92.8078 18.573 94.1509 17.502 99.3883 17.502H108.983V21.258H99.6336C98.1801 21.258 98.0146 21.393 98.0146 22.707V22.869H101.578V27.162H98.0146V38.964H92.8047V27.156H91.1611V22.866H91.1642ZM108.848 22.866V38.958H103.638V22.866H108.848Z" fill="white"/>
<path d="M119.486 35.526C122.144 35.526 122.448 35.391 122.448 34.293C122.448 33.489 121.681 33.141 118.553 32.577C112.96 31.503 111.562 30.486 111.562 27.399C111.562 23.511 113.178 22.545 119.624 22.545C125.928 22.545 127.52 23.646 127.52 27.99V28.473H122.31V27.99C122.31 26.46 122.037 26.301 119.624 26.301C117.293 26.301 117.048 26.436 117.048 27.561C117.048 28.311 117.514 28.554 119.323 28.821C126.204 29.922 127.93 31.101 127.93 34.668C127.93 38.37 126.259 39.282 119.624 39.282C112.881 39.282 111.179 38.208 111.179 33.918V33.57H116.389V33.918C116.389 35.364 116.689 35.526 119.486 35.526Z" fill="white"/>
<path d="M135.333 22.866V24.717C135.882 23.214 137.142 22.545 139.2 22.545C142.956 22.545 144.437 23.268 144.876 25.845C145.369 23.565 146.768 22.545 149.343 22.545C154.36 22.545 155.62 23.967 155.62 29.625V38.958H150.411V30.294C150.411 27.183 150.165 26.835 147.997 26.835C146.188 26.835 145.421 27.828 145.449 30.108V38.958H140.294V30.294C140.294 27.183 140.049 26.835 137.854 26.835C136.1 26.835 135.33 27.828 135.33 30.108V38.958H130.12V22.866H135.333Z" fill="white"/>
</g>
<defs>
<linearGradient id="paint0_linear_57_286" x1="32.1445" y1="37.6626" x2="17.6798" y2="2.47372" gradientUnits="userSpaceOnUse">
<stop stop-color="#E60C84"/>
<stop offset="1" stop-color="#FFCF4B"/>
</linearGradient>
<clipPath id="clip0_57_286">
<rect width="157" height="42" fill="white"/>
</clipPath>
</defs>
</svg>
