<svg width="157" height="42" viewBox="0 0 157 42" fill="none" xmlns="http://www.w3.org/2000/svg">
<g clip-path="url(#clip0_132_216)">
<mask id="mask0_132_216" style="mask-type:luminance" maskUnits="userSpaceOnUse" x="1" y="2" width="41" height="37">
<path d="M27.2573 35.6877L20.6952 4.3467C17.9017 12.5577 9.0459 12.0957 1.37988 7.1457L14.3201 21.4167L27.2573 35.6877ZM29.597 38.9157L23.0348 7.5777C28.9039 14.0517 36.8613 10.2237 41.9208 2.7207L35.7574 20.8197L29.597 38.9157Z" fill="white"/>
</mask>
<g mask="url(#mask0_132_216)">
<path d="M8.89871 43.0649L48.6976 35.0879L41.1788 -0.828125L1.37988 7.14587L8.89871 43.0649Z" fill="url(#paint0_linear_132_216)"/>
</g>
<path d="M54.84 38.9581H48.2595L47.1065 34.8811H38.8824L37.5945 38.9581H31.4004L38.447 18.0361H47.9866L54.84 38.9581ZM45.6837 30.3211L43.1355 22.5961H42.9699L40.3666 30.3211H45.6837Z" fill="#141414"/>
<path d="M61.5555 22.8662V25.8422C62.0216 23.7782 63.5027 22.8662 66.2441 22.8662H68.136V27.4262L64.4349 27.3722C62.4049 27.3452 61.5555 28.1222 61.5555 29.9192V38.9582H56.3457V22.8662H61.5555Z" fill="#141414"/>
<path d="M81.0212 38.9577H77.7309C72.4659 38.9577 71.1504 37.8837 71.1504 33.5397V27.1557H69.5068V22.8657H71.4264V19.4307H76.3603V22.8627H80.7483V27.1557H76.3603V32.2257C76.3603 34.1847 76.5534 34.3977 78.2522 34.3977H81.0212V38.9577Z" fill="#141414"/>
<path d="M83.4893 17.499H88.972V21.255H83.4893V17.499ZM88.834 22.866V38.958H83.6242V22.866H88.834Z" fill="#141414"/>
<path d="M91.1642 22.866H92.8078C92.8078 18.573 94.1509 17.502 99.3883 17.502H108.983V21.258H99.6336C98.1801 21.258 98.0146 21.393 98.0146 22.707V22.869H101.578V27.162H98.0146V38.964H92.8047V27.156H91.1611V22.866H91.1642ZM108.848 22.866V38.958H103.638V22.866H108.848Z" fill="#141414"/>
<path d="M119.486 35.5259C122.144 35.5259 122.448 35.3909 122.448 34.2929C122.448 33.4889 121.681 33.1409 118.553 32.5769C112.96 31.5029 111.562 30.4859 111.562 27.3989C111.562 23.5109 113.178 22.5449 119.624 22.5449C125.928 22.5449 127.52 23.6459 127.52 27.9899V28.4729H122.31V27.9899C122.31 26.4599 122.037 26.3009 119.624 26.3009C117.293 26.3009 117.048 26.4359 117.048 27.5609C117.048 28.3109 117.514 28.5539 119.323 28.8209C126.204 29.9219 127.93 31.1009 127.93 34.6679C127.93 38.3699 126.259 39.2819 119.624 39.2819C112.881 39.2819 111.179 38.2079 111.179 33.9179V33.5699H116.389V33.9179C116.389 35.3639 116.689 35.5259 119.486 35.5259Z" fill="#141414"/>
<path d="M135.333 22.8659V24.7169C135.882 23.2139 137.142 22.5449 139.2 22.5449C142.956 22.5449 144.437 23.2679 144.876 25.8449C145.369 23.5649 146.768 22.5449 149.343 22.5449C154.36 22.5449 155.62 23.9669 155.62 29.6249V38.9579H150.411V30.2939C150.411 27.1829 150.165 26.8349 147.997 26.8349C146.188 26.8349 145.421 27.8279 145.449 30.1079V38.9579H140.294V30.2939C140.294 27.1829 140.049 26.8349 137.854 26.8349C136.1 26.8349 135.33 27.8279 135.33 30.1079V38.9579H130.12V22.8659H135.333Z" fill="#141414"/>
</g>
<defs>
<linearGradient id="paint0_linear_132_216" x1="32.1445" y1="37.6625" x2="17.6798" y2="2.47359" gradientUnits="userSpaceOnUse">
<stop stop-color="#E60C84"/>
<stop offset="1" stop-color="#FFCF4B"/>
</linearGradient>
<clipPath id="clip0_132_216">
<rect width="157" height="42" fill="white"/>
</clipPath>
</defs>
</svg>
