<svg width="200" height="60" viewBox="0 0 200 60" fill="none" xmlns="http://www.w3.org/2000/svg">
<g clip-path="url(#clip0_788_2814)">
<path d="M49.029 11.3288C49.295 11.3288 49.428 11.4617 49.694 11.5946C48.098 12.2589 46.502 13.9862 45.704 17.7065L42.778 18.5037C43.709 15.8463 45.571 11.3288 49.029 11.3288ZM50.492 12.6575C50.758 13.4547 51.024 14.3848 51.024 15.8463C51.024 15.9792 51.024 15.9792 51.024 16.1121L47.167 17.175C47.965 14.3848 49.295 13.189 50.492 12.6575ZM53.95 15.0491L52.221 15.5806C52.221 15.4477 52.221 15.3149 52.221 15.182C52.221 13.9862 52.088 13.0561 51.822 12.2589C52.753 12.5246 53.551 13.7204 53.95 15.0491ZM62.595 17.175C62.595 17.0421 62.462 16.9093 62.329 16.9093C62.063 16.9093 59.27 16.6435 59.27 16.6435C59.27 16.6435 57.275 14.6505 57.009 14.5177C56.743 14.2519 56.344 14.3848 56.211 14.3848C56.211 14.3848 55.812 14.5177 55.147 14.7834C54.482 12.9232 53.285 11.196 51.29 11.196H51.157C50.625 10.3988 49.827 10.133 49.162 10.133C44.374 10.0002 42.113 15.9792 41.315 19.0351C40.251 19.3009 39.187 19.6995 37.99 20.0981C36.926 20.3638 36.926 20.4967 36.793 21.4267C36.66 22.0911 34 43.0841 34 43.0841L55.147 47.0701L66.585 44.5456C66.585 44.5456 62.595 17.4407 62.595 17.175Z" fill="#8DB849"/>
<path d="M62.1965 16.9092C62.0635 16.9092 59.2705 16.6435 59.2705 16.6435C59.2705 16.6435 57.2755 14.6505 57.0095 14.5176C56.8765 14.3848 56.8765 14.3848 56.7435 14.3848L55.1475 47.0701L66.5855 44.5456C66.5855 44.5456 62.5955 17.4407 62.5955 17.175C62.5955 17.0421 62.3295 16.9092 62.1965 16.9092Z" fill="#5A863E"/>
<path d="M51.2899 23.2873L49.8269 27.5391C49.8269 27.5391 48.6299 26.8747 47.0339 26.8747C44.7729 26.8747 44.6399 28.2034 44.6399 28.602C44.6399 30.4621 49.6939 31.2593 49.6939 35.7768C49.6939 39.3642 47.4329 41.623 44.3739 41.623C40.7829 41.623 38.9209 39.3642 38.9209 39.3642L39.8519 36.1754C39.8519 36.1754 41.7139 37.7698 43.3099 37.7698C44.3739 37.7698 44.7729 36.9726 44.7729 36.3083C44.7729 33.7838 40.6499 33.651 40.6499 29.5321C40.6499 26.0775 43.1769 22.7559 48.0979 22.7559C50.3589 22.623 51.2899 23.2873 51.2899 23.2873Z" fill="#FFFFFE"/>
<path d="M80.0183 31.1268C78.8213 30.4624 78.2893 29.931 78.2893 29.2666C78.2893 28.3366 79.0873 27.8051 80.4173 27.8051C81.8803 27.8051 83.2103 28.4694 83.2103 28.4694L84.2743 25.2806C84.2743 25.2806 83.3433 24.4834 80.5503 24.4834C76.5603 24.4834 73.9003 26.7422 73.9003 29.931C73.9003 31.7911 75.2303 33.1198 76.8263 34.0499C78.1563 34.8471 78.6883 35.3785 78.6883 36.1757C78.6883 36.9729 78.0233 37.7701 76.6933 37.7701C74.8313 37.7701 72.9693 36.8401 72.9693 36.8401L71.9053 40.0289C71.9053 40.0289 73.5013 41.0918 76.2943 41.0918C80.2843 41.0918 83.2103 39.0988 83.2103 35.5114C83.2103 33.5184 81.7473 32.0568 80.0183 31.1268ZM96.1113 24.3506C94.1163 24.3506 92.5203 25.2806 91.3233 26.7422L93.0523 17.7072H88.5303L84.1413 40.6932H88.6633L90.1263 32.854C90.6583 29.931 92.2543 28.0708 93.7173 28.0708C94.7813 28.0708 95.1803 28.7352 95.1803 29.7981C95.1803 30.4624 95.1803 31.1268 95.0473 31.7911L93.3183 40.8261H97.8403L99.5693 31.5254C99.7023 30.5953 99.8353 29.3995 99.8353 28.6023C99.8353 25.945 98.5053 24.3506 96.1113 24.3506ZM107.682 37.5044C106.086 37.5044 105.554 36.1757 105.554 34.5813C105.554 32.0568 106.884 27.8051 109.278 27.8051C110.874 27.8051 111.406 29.1338 111.406 30.4624C111.406 33.3855 110.076 37.5044 107.682 37.5044ZM109.943 24.3506C104.49 24.3506 100.899 29.2666 100.899 34.7142C100.899 38.1687 103.027 40.9589 107.15 40.9589C112.47 40.9589 116.061 36.1757 116.061 30.5953C116.061 27.4065 114.199 24.3506 109.943 24.3506ZM123.243 37.6373C122.046 37.6373 121.381 36.9729 121.381 36.9729L122.179 32.7212C122.711 29.931 124.174 28.0708 125.77 28.0708C127.1 28.0708 127.632 29.3995 127.632 30.5953C127.499 33.5184 125.77 37.6373 123.243 37.6373ZM127.632 24.3506C124.573 24.3506 122.844 27.0079 122.844 27.0079L123.11 24.6163H119.12C118.987 26.2107 118.588 28.7352 118.189 30.5953L114.997 47.0708H119.519L120.716 40.4275H120.849C120.849 40.4275 121.78 40.9589 123.509 40.9589C128.829 40.9589 132.287 35.5114 132.287 30.0638C132.287 27.1408 130.957 24.3506 127.632 24.3506ZM138.671 17.9729C137.208 17.9729 136.144 19.1687 136.144 20.6303C136.144 21.9589 136.942 22.889 138.272 22.889C139.735 22.889 140.932 21.9589 140.932 20.2317C140.932 18.903 140.001 17.9729 138.671 17.9729ZM132.42 40.6932H136.942L140.001 24.7492H135.479L132.42 40.6932ZM151.439 24.7492H148.247L148.38 23.952C148.646 22.3575 149.577 21.0289 151.04 21.0289C151.838 21.0289 152.503 21.2946 152.503 21.2946L153.434 17.7072C153.434 17.7072 152.636 17.3086 151.04 17.3086C149.444 17.3086 147.848 17.7072 146.651 18.7701C145.055 20.0988 144.39 21.9589 143.991 23.8191L143.858 24.6163H141.73L141.065 28.0708H143.193L140.799 40.6932H145.321L147.715 28.0708H150.774L151.439 24.7492ZM162.212 24.7492C162.212 24.7492 159.419 31.7911 158.089 35.6443C157.956 34.4485 157.025 24.7492 157.025 24.7492H152.237L154.897 39.3645C154.897 39.6303 154.897 39.896 154.764 40.1617C154.232 41.2247 153.301 42.1547 152.37 42.8191C151.572 43.4834 150.508 43.882 149.843 44.1478L151.04 48.0009C151.971 47.868 153.833 47.0708 155.429 45.6093C157.424 43.7492 159.419 40.6932 161.281 36.7072L166.734 24.882L162.212 24.7492Z" fill="white"/>
</g>
<defs>
<clipPath id="clip0_788_2814">
<rect width="133" height="38" fill="white" transform="translate(34 10)"/>
</clipPath>
</defs>
</svg>
