<svg width="230" height="69" viewBox="0 0 230 69" fill="none" xmlns="http://www.w3.org/2000/svg">
    <path d="M42.5498 58.6499C55.2524 58.6499 65.5498 48.3525 65.5498 35.6499C65.5498 22.9474 55.2524 12.6499 42.5498 12.6499C29.8473 12.6499 19.5498 22.9474 19.5498 35.6499C19.5498 48.3525 29.8473 58.6499 42.5498 58.6499Z" fill="#14ED80"/>
    <path opacity="0.2" d="M26.5303 31.1308L42.4997 58.4495L58.4189 31.1308L42.5499 19.229L26.5303 31.1308Z" fill="#2B2A2A"/>
    <path d="M42.4997 22.2412L26.5303 31.1299L42.4997 54.2303L58.4189 31.1299L42.4997 22.2412Z" fill="#FCCA19"/>
    <path d="M26.5303 31.1299L42.4997 54.2303L58.4189 31.1299H26.5303Z" fill="#2B2A2A"/>
    <path d="M42.4997 22.2412L26.5303 31.1299L42.4997 54.2303V22.2412Z" fill="#2B2A2A"/>
    <path d="M42.5003 22.2412L40.0898 31.1299L42.5003 54.2303L44.8606 31.1299L42.5003 22.2412Z" fill="white"/>
    <path d="M29.293 42.6802L25.0244 50.4138H33.5113L29.293 42.6802Z" fill="#FCCA19"/>
    <path d="M58.5218 44.2368L53.1484 45.4923L56.7139 49.4093L58.5218 44.2368Z" fill="#FCCA19"/>
    <path d="M48.8779 15.9141L46.2666 16.5167L48.0242 18.425L48.8779 15.9141Z" fill="#FCCA19"/>
    <path d="M30.9506 13.1021L30.9004 19.9318L36.6755 16.8182L30.9506 13.1021Z" fill="#FCCA19"/>
    <path d="M56.1098 19.9321L56.0596 25.5064L60.7801 22.9452L56.1098 19.9321Z" fill="#FCCA19"/>
    <path d="M26.5303 22.2412V25.4552L29.2923 23.9989L26.5303 22.2412Z" fill="#FCCA19"/>
    <path d="M78.1505 53.666L75.925 45.527H76.9265L78.6274 52.1558H78.7069L80.4396 45.527H81.5524L83.2851 52.1558H83.3646L85.0655 45.527H86.067L83.8415 53.666H82.8241L81.0278 47.1802H80.9642L79.1679 53.666H78.1505ZM87.295 53.666V45.527H92.2071V46.4013H88.2806V49.1514H91.9527V50.0257H88.2806V52.7917H92.2707V53.666H87.295ZM103.68 48.0704H102.695C102.637 47.7869 102.535 47.5379 102.389 47.3233C102.246 47.1087 102.071 46.9285 101.864 46.7828C101.66 46.6344 101.434 46.5231 101.185 46.449C100.936 46.3748 100.676 46.3377 100.406 46.3377C99.9129 46.3377 99.4665 46.4622 99.0664 46.7113C98.669 46.9603 98.3524 47.3272 98.1166 47.8121C97.8835 48.2969 97.7669 48.8917 97.7669 49.5965C97.7669 50.3012 97.8835 50.896 98.1166 51.3809C98.3524 51.8657 98.669 52.2327 99.0664 52.4817C99.4665 52.7308 99.9129 52.8553 100.406 52.8553C100.676 52.8553 100.936 52.8182 101.185 52.744C101.434 52.6698 101.66 52.5599 101.864 52.4142C102.071 52.2658 102.246 52.0843 102.389 51.8697C102.535 51.6524 102.637 51.4034 102.695 51.1226H103.68C103.606 51.5385 103.471 51.9108 103.275 52.2393C103.079 52.5678 102.835 52.8473 102.544 53.0778C102.252 53.3057 101.925 53.4792 101.562 53.5985C101.202 53.7177 100.816 53.7773 100.406 53.7773C99.7116 53.7773 99.0943 53.6077 98.5538 53.2686C98.0133 52.9295 97.5881 52.4473 97.2781 51.822C96.9681 51.1967 96.8131 50.4549 96.8131 49.5965C96.8131 48.7381 96.9681 47.9962 97.2781 47.371C97.5881 46.7457 98.0133 46.2635 98.5538 45.9244C99.0943 45.5852 99.7116 45.4157 100.406 45.4157C100.816 45.4157 101.202 45.4753 101.562 45.5945C101.925 45.7137 102.252 45.8886 102.544 46.1191C102.835 46.347 103.079 46.6251 103.275 46.9537C103.471 47.2796 103.606 47.6518 103.68 48.0704ZM110.614 45.527H111.6V50.9159C111.6 51.4723 111.469 51.9691 111.206 52.4062C110.947 52.8407 110.58 53.1838 110.106 53.4355C109.631 53.6846 109.075 53.8091 108.436 53.8091C107.798 53.8091 107.242 53.6846 106.767 53.4355C106.293 53.1838 105.925 52.8407 105.663 52.4062C105.403 51.9691 105.273 51.4723 105.273 50.9159V45.527H106.259V50.8364C106.259 51.2338 106.346 51.5875 106.521 51.8975C106.696 52.2049 106.945 52.4473 107.268 52.6248C107.594 52.7997 107.983 52.8871 108.436 52.8871C108.89 52.8871 109.279 52.7997 109.605 52.6248C109.931 52.4473 110.18 52.2049 110.352 51.8975C110.527 51.5875 110.614 51.2338 110.614 50.8364V45.527ZM113.568 53.666V45.527H116.318C116.954 45.527 117.476 45.6356 117.884 45.8528C118.292 46.0674 118.594 46.3629 118.79 46.7391C118.986 47.1153 119.084 47.5432 119.084 48.0227C119.084 48.5023 118.986 48.9275 118.79 49.2984C118.594 49.6693 118.293 49.9608 117.888 50.1727C117.483 50.382 116.965 50.4867 116.334 50.4867H114.109V49.5965H116.302C116.737 49.5965 117.087 49.5329 117.352 49.4057C117.619 49.2786 117.813 49.0984 117.932 48.8652C118.054 48.6294 118.115 48.3486 118.115 48.0227C118.115 47.6968 118.054 47.412 117.932 47.1683C117.81 46.9245 117.615 46.7364 117.348 46.604C117.08 46.4688 116.726 46.4013 116.286 46.4013H114.554V53.666H113.568ZM117.399 50.0098L119.402 53.666H118.258L116.286 50.0098H117.399ZM120.727 53.666V45.527H125.639V46.4013H121.712V49.1514H125.384V50.0257H121.712V52.7917H125.702V53.666H120.727ZM130.563 53.666V45.527H133.313C133.951 45.527 134.473 45.6422 134.879 45.8727C135.287 46.1006 135.589 46.4092 135.785 46.7987C135.981 47.1882 136.079 47.6227 136.079 48.1022C136.079 48.5818 135.981 49.0176 135.785 49.4097C135.591 49.8018 135.292 50.1145 134.886 50.3476C134.481 50.5781 133.962 50.6934 133.329 50.6934H131.357V49.819H133.297C133.734 49.819 134.085 49.7435 134.35 49.5925C134.615 49.4415 134.807 49.2375 134.926 48.9805C135.048 48.7208 135.109 48.4281 135.109 48.1022C135.109 47.7763 135.048 47.4849 134.926 47.2279C134.807 46.9709 134.614 46.7695 134.346 46.6238C134.078 46.4755 133.723 46.4013 133.281 46.4013H131.548V53.666H130.563ZM137.666 53.666V45.527H142.578V46.4013H138.652V49.1514H142.324V50.0257H138.652V52.7917H142.642V53.666H137.666ZM151.222 49.5965C151.222 50.4549 151.067 51.1967 150.757 51.822C150.447 52.4473 150.022 52.9295 149.482 53.2686C148.941 53.6077 148.324 53.7773 147.63 53.7773C146.935 53.7773 146.318 53.6077 145.778 53.2686C145.237 52.9295 144.812 52.4473 144.502 51.822C144.192 51.1967 144.037 50.4549 144.037 49.5965C144.037 48.7381 144.192 47.9962 144.502 47.371C144.812 46.7457 145.237 46.2635 145.778 45.9244C146.318 45.5852 146.935 45.4157 147.63 45.4157C148.324 45.4157 148.941 45.5852 149.482 45.9244C150.022 46.2635 150.447 46.7457 150.757 47.371C151.067 47.9962 151.222 48.7381 151.222 49.5965ZM150.268 49.5965C150.268 48.8917 150.151 48.2969 149.915 47.8121C149.682 47.3272 149.365 46.9603 148.965 46.7113C148.567 46.4622 148.122 46.3377 147.63 46.3377C147.137 46.3377 146.69 46.4622 146.29 46.7113C145.893 46.9603 145.576 47.3272 145.34 47.8121C145.107 48.2969 144.991 48.8917 144.991 49.5965C144.991 50.3012 145.107 50.896 145.34 51.3809C145.576 51.8657 145.893 52.2327 146.29 52.4817C146.69 52.7308 147.137 52.8553 147.63 52.8553C148.122 52.8553 148.567 52.7308 148.965 52.4817C149.365 52.2327 149.682 51.8657 149.915 51.3809C150.151 50.896 150.268 50.3012 150.268 49.5965ZM152.879 53.666V45.527H155.63C156.268 45.527 156.79 45.6422 157.195 45.8727C157.603 46.1006 157.905 46.4092 158.101 46.7987C158.298 47.1882 158.396 47.6227 158.396 48.1022C158.396 48.5818 158.298 49.0176 158.101 49.4097C157.908 49.8018 157.609 50.1145 157.203 50.3476C156.798 50.5781 156.279 50.6934 155.645 50.6934H153.674V49.819H155.614C156.051 49.819 156.402 49.7435 156.667 49.5925C156.932 49.4415 157.124 49.2375 157.243 48.9805C157.365 48.7208 157.426 48.4281 157.426 48.1022C157.426 47.7763 157.365 47.4849 157.243 47.2279C157.124 46.9709 156.93 46.7695 156.663 46.6238C156.395 46.4755 156.04 46.4013 155.598 46.4013H153.865V53.666H152.879ZM159.983 53.666V45.527H160.969V52.7917H164.752V53.666H159.983ZM166.278 53.666V45.527H171.19V46.4013H167.264V49.1514H170.936V50.0257H167.264V52.7917H171.254V53.666H166.278Z" fill="#FCCA19"/>
    <path d="M84.7067 34.2195C85.2289 34.2195 85.6915 34.1748 86.0944 34.0852C86.4973 33.9957 86.8778 33.8763 87.2359 33.7271V31.2539H85.6244C85.3856 31.2539 85.1991 31.1904 85.0648 31.0636C84.9305 30.9368 84.8633 30.7764 84.8633 30.5824V28.5008H90.6604V35.3834C90.2426 35.6893 89.8061 35.9542 89.351 36.178C88.9034 36.3944 88.4222 36.5734 87.9074 36.7152C87.4 36.8569 86.8554 36.9614 86.2734 37.0285C85.699 37.0957 85.0797 37.1293 84.4157 37.1293C83.222 37.1293 82.1178 36.9204 81.1031 36.5025C80.0884 36.0773 79.208 35.4953 78.462 34.7567C77.7233 34.0106 77.1414 33.1302 76.7161 32.1156C76.2983 31.0934 76.0894 29.9855 76.0894 28.7918C76.0894 27.5757 76.2909 26.4603 76.6937 25.4456C77.0966 24.4235 77.6711 23.5431 78.4172 22.8045C79.1707 22.0658 80.0772 21.4914 81.1367 21.081C82.2036 20.6707 83.3936 20.4655 84.7067 20.4655C85.3856 20.4655 86.0235 20.5214 86.6204 20.6334C87.2172 20.7453 87.7656 20.8982 88.2655 21.0922C88.7728 21.2862 89.2354 21.5175 89.6532 21.7861C90.071 22.0546 90.444 22.3456 90.7723 22.659L89.6756 24.3265C89.5711 24.4831 89.4443 24.6062 89.2951 24.6958C89.1533 24.7853 88.9966 24.8301 88.825 24.8301C88.6012 24.8301 88.3699 24.7555 88.1312 24.6062C87.8328 24.4272 87.5492 24.2742 87.2807 24.1474C87.0195 24.0131 86.7509 23.9049 86.4749 23.8229C86.1988 23.7408 85.9079 23.6811 85.602 23.6438C85.2961 23.6065 84.9529 23.5878 84.5724 23.5878C83.8636 23.5878 83.2257 23.7147 82.6587 23.9683C82.0916 24.2146 81.6067 24.5652 81.2038 25.0203C80.8084 25.4754 80.5025 26.0238 80.2861 26.6654C80.0698 27.2996 79.9616 28.0084 79.9616 28.7918C79.9616 29.6572 80.081 30.4257 80.3197 31.0972C80.5584 31.7686 80.8867 32.3357 81.3045 32.7982C81.7298 33.2608 82.2297 33.6152 82.8042 33.8614C83.3861 34.1002 84.0203 34.2195 84.7067 34.2195ZM92.2924 35.1932C92.2924 34.9246 92.3409 34.6746 92.4379 34.4434C92.5423 34.2121 92.6804 34.0106 92.852 33.839C93.031 33.6674 93.2399 33.5331 93.4787 33.4361C93.7174 33.3317 93.9786 33.2795 94.2621 33.2795C94.5381 33.2795 94.7955 33.3317 95.0343 33.4361C95.273 33.5331 95.4819 33.6674 95.661 33.839C95.84 34.0106 95.9781 34.2121 96.0751 34.4434C96.1795 34.6746 96.2317 34.9246 96.2317 35.1932C96.2317 35.4618 96.1795 35.7154 96.0751 35.9542C95.9781 36.1855 95.84 36.3869 95.661 36.5585C95.4819 36.7301 95.273 36.8644 95.0343 36.9614C94.7955 37.0584 94.5381 37.1069 94.2621 37.1069C93.9786 37.1069 93.7174 37.0584 93.4787 36.9614C93.2399 36.8644 93.031 36.7301 92.852 36.5585C92.6804 36.3869 92.5423 36.1855 92.4379 35.9542C92.3409 35.7154 92.2924 35.4618 92.2924 35.1932ZM113.048 28.7918C113.048 29.9706 112.843 31.0599 112.433 32.0596C112.03 33.0519 111.459 33.9136 110.721 34.6448C109.982 35.3685 109.09 35.9355 108.046 36.3459C107.009 36.7488 105.856 36.9502 104.588 36.9502H98.2535V20.6445H104.588C105.856 20.6445 107.009 20.8497 108.046 21.2601C109.09 21.6704 109.982 22.2374 110.721 22.9611C111.459 23.6848 112.03 24.5466 112.433 25.5463C112.843 26.5386 113.048 27.6204 113.048 28.7918ZM109.176 28.7918C109.176 27.986 109.072 27.2586 108.863 26.6095C108.654 25.9604 108.352 25.412 107.956 24.9644C107.568 24.5093 107.091 24.1623 106.524 23.9236C105.957 23.6774 105.311 23.5543 104.588 23.5543H102.059V34.0405H104.588C105.311 34.0405 105.957 33.9211 106.524 33.6824C107.091 33.4361 107.568 33.0892 107.956 32.6416C108.352 32.1865 108.654 31.6344 108.863 30.9853C109.072 30.3362 109.176 29.605 109.176 28.7918ZM119.006 36.9502H115.201V20.6445H119.006V36.9502ZM137.21 36.9502H134.278C133.95 36.9502 133.678 36.8756 133.461 36.7264C133.252 36.5697 133.107 36.372 133.025 36.1332L132.062 33.2907H125.862L124.9 36.1332C124.825 36.3421 124.68 36.5324 124.463 36.704C124.247 36.8681 123.982 36.9502 123.669 36.9502H120.714L127.026 20.6445H130.898L137.21 36.9502ZM126.735 30.7167H131.189L129.69 26.2514C129.593 25.9679 129.477 25.6358 129.343 25.2553C129.216 24.8674 129.089 24.4496 128.962 24.0019C128.843 24.457 128.72 24.8786 128.593 25.2665C128.466 25.6545 128.347 25.9902 128.235 26.2737L126.735 30.7167ZM146.875 29.4968C147.024 29.7803 147.166 30.075 147.3 30.3809C147.442 30.6868 147.576 31.0002 147.703 31.321C147.83 30.9927 147.964 30.6756 148.106 30.3697C148.248 30.0564 148.393 29.7542 148.543 29.4633L152.728 21.2265C152.803 21.0847 152.877 20.9766 152.952 20.9019C153.034 20.8199 153.124 20.7602 153.221 20.7229C153.318 20.6856 153.426 20.6632 153.545 20.6557C153.672 20.6483 153.817 20.6445 153.982 20.6445H156.869V36.9502H153.534V27.5719C153.534 27.1168 153.556 26.6244 153.601 26.0947L149.281 34.4769C149.147 34.7381 148.964 34.9358 148.733 35.0701C148.509 35.2044 148.252 35.2715 147.961 35.2715H147.446C147.155 35.2715 146.894 35.2044 146.662 35.0701C146.439 34.9358 146.26 34.7381 146.125 34.4769L141.783 26.0835C141.813 26.3446 141.835 26.6058 141.85 26.8669C141.865 27.1205 141.873 27.3556 141.873 27.5719V36.9502H138.538V20.6445H141.425C141.589 20.6445 141.731 20.6483 141.85 20.6557C141.977 20.6632 142.089 20.6856 142.186 20.7229C142.283 20.7602 142.369 20.8199 142.443 20.9019C142.525 20.9766 142.604 21.0847 142.678 21.2265L146.875 29.4968ZM175.658 28.7918C175.658 29.9706 175.453 31.0673 175.042 32.082C174.64 33.0967 174.069 33.9808 173.33 34.7343C172.592 35.4804 171.7 36.0661 170.655 36.4914C169.618 36.9166 168.466 37.1293 167.197 37.1293C165.929 37.1293 164.773 36.9166 163.728 36.4914C162.684 36.0661 161.788 35.4804 161.042 34.7343C160.304 33.9808 159.729 33.0967 159.319 32.082C158.916 31.0673 158.714 29.9706 158.714 28.7918C158.714 27.613 158.916 26.5162 159.319 25.5015C159.729 24.4869 160.304 23.6065 161.042 22.8604C161.788 22.1143 162.684 21.5287 163.728 21.1034C164.773 20.6781 165.929 20.4655 167.197 20.4655C168.466 20.4655 169.618 20.6819 170.655 21.1146C171.7 21.5398 172.592 22.1255 173.33 22.8716C174.069 23.6177 174.64 24.4981 175.042 25.5127C175.453 26.5274 175.658 27.6204 175.658 28.7918ZM171.786 28.7918C171.786 27.986 171.681 27.2623 171.472 26.6207C171.264 25.9716 170.961 25.4232 170.566 24.9756C170.178 24.5279 169.7 24.1847 169.133 23.946C168.566 23.7072 167.921 23.5878 167.197 23.5878C166.466 23.5878 165.813 23.7072 165.239 23.946C164.672 24.1847 164.191 24.5279 163.795 24.9756C163.407 25.4232 163.109 25.9716 162.9 26.6207C162.691 27.2623 162.587 27.986 162.587 28.7918C162.587 29.605 162.691 30.3362 162.9 30.9853C163.109 31.6269 163.407 32.1715 163.795 32.6192C164.191 33.0668 164.672 33.41 165.239 33.6488C165.813 33.8801 166.466 33.9957 167.197 33.9957C167.921 33.9957 168.566 33.8801 169.133 33.6488C169.7 33.41 170.178 33.0668 170.566 32.6192C170.961 32.1715 171.264 31.6269 171.472 30.9853C171.681 30.3362 171.786 29.605 171.786 28.7918ZM179.459 20.6445C179.623 20.6445 179.761 20.652 179.873 20.6669C179.985 20.6819 180.085 20.7117 180.175 20.7565C180.264 20.7938 180.35 20.8497 180.432 20.9243C180.514 20.9989 180.608 21.0997 180.712 21.2265L188.456 31.0188C188.427 30.7055 188.404 30.4033 188.389 30.1123C188.374 29.8139 188.367 29.5341 188.367 29.273V20.6445H191.702V36.9502H189.732C189.441 36.9502 189.195 36.9054 188.994 36.8159C188.792 36.7264 188.598 36.5622 188.412 36.3235L180.723 26.6095C180.746 26.893 180.764 27.1728 180.779 27.4488C180.794 27.7174 180.802 27.9711 180.802 28.2098V36.9502H177.467V20.6445H179.459ZM209.179 28.7918C209.179 29.9706 208.974 31.0599 208.564 32.0596C208.161 33.0519 207.59 33.9136 206.852 34.6448C206.113 35.3685 205.221 35.9355 204.177 36.3459C203.14 36.7488 201.987 36.9502 200.719 36.9502H194.385V20.6445H200.719C201.987 20.6445 203.14 20.8497 204.177 21.2601C205.221 21.6704 206.113 22.2374 206.852 22.9611C207.59 23.6848 208.161 24.5466 208.564 25.5463C208.974 26.5386 209.179 27.6204 209.179 28.7918ZM205.307 28.7918C205.307 27.986 205.203 27.2586 204.994 26.6095C204.785 25.9604 204.483 25.412 204.087 24.9644C203.699 24.5093 203.222 24.1623 202.655 23.9236C202.088 23.6774 201.443 23.5543 200.719 23.5543H198.19V34.0405H200.719C201.443 34.0405 202.088 33.9211 202.655 33.6824C203.222 33.4361 203.699 33.0892 204.087 32.6416C204.483 32.1865 204.785 31.6344 204.994 30.9853C205.203 30.3362 205.307 29.605 205.307 28.7918Z" fill="white"/>
</svg>
