<svg width="230" height="69" viewBox="0 0 230 69" fill="none" xmlns="http://www.w3.org/2000/svg">
    <path d="M66.4117 39.2369C66.4117 39.2369 53.327 57.7736 37.2308 57.7736C21.0826 57.7736 8.0498 39.2369 8.0498 39.2369C8.0498 39.2369 21.1345 20.7003 37.2308 20.7003C53.327 20.6484 66.4117 39.2369 66.4117 39.2369Z" fill="#FF005C"/>
    <path d="M42.0582 30.8246L46.939 39.2362L42.0582 47.6478H32.3485L27.4677 39.2362L32.3485 30.8246H42.0582ZM44.7063 26.2554H29.7523L22.2754 39.2362L29.7523 52.2171H44.7063L52.1833 39.2362L44.7063 26.2554Z" fill="white"/>
    <path d="M44.7065 26.2554H39.9295C40.293 27.2938 40.5007 28.3842 40.5007 29.5265C40.5007 31.4477 39.9295 33.2131 38.9949 34.7189C40.8122 35.4458 42.1103 37.2112 42.1103 39.2362C42.1103 41.9362 39.9295 44.117 37.2295 44.117C34.5295 44.117 32.3487 41.9362 32.3487 39.2362C32.3487 39.1843 32.3487 39.1324 32.3487 39.1324C31.8295 39.2362 31.3102 39.2362 30.791 39.2362C28.091 39.2362 25.6506 38.1458 23.8852 36.3804L22.2236 39.2362L29.7006 52.2171H44.6545L52.1315 39.2362L44.7065 26.2554Z" fill="white"/>
    <path d="M82.5779 38.8155H88.3474V41.7002H78.9667V26.1333H82.5779V38.8155ZM100.069 26.1333V28.9112H93.68V32.5438H98.5733V35.2149H93.68V38.9223H100.069V41.7002H90.0474V26.1333H100.069ZM104.031 26.1333C104.188 26.1333 104.32 26.1404 104.427 26.1547C104.534 26.1689 104.63 26.1974 104.715 26.2402C104.801 26.2758 104.883 26.3292 104.961 26.4004C105.039 26.4717 105.128 26.5678 105.228 26.6889L112.622 36.0376C112.593 35.7384 112.572 35.4499 112.557 35.1722C112.543 34.8872 112.536 34.6201 112.536 34.3708V26.1333H115.72V41.7002H113.84C113.562 41.7002 113.327 41.6575 113.134 41.572C112.942 41.4865 112.757 41.3298 112.579 41.1019L105.239 31.828C105.26 32.0987 105.278 32.3658 105.292 32.6293C105.306 32.8857 105.314 33.1279 105.314 33.3558V41.7002H102.13V26.1333H104.031ZM126.957 29.2958C126.85 29.4668 126.736 29.595 126.615 29.6805C126.501 29.7659 126.351 29.8087 126.166 29.8087C126.002 29.8087 125.824 29.7588 125.632 29.6591C125.447 29.5523 125.233 29.4347 124.991 29.3065C124.756 29.1783 124.485 29.0644 124.179 28.9646C123.873 28.8578 123.524 28.8044 123.132 28.8044C122.455 28.8044 121.949 28.9504 121.615 29.2424C121.287 29.5273 121.123 29.9155 121.123 30.407C121.123 30.7204 121.223 30.9804 121.422 31.1869C121.622 31.3935 121.882 31.5716 122.202 31.7212C122.53 31.8707 122.9 32.0096 123.313 32.1378C123.734 32.2589 124.161 32.3978 124.596 32.5545C125.03 32.7041 125.454 32.8822 125.867 33.0887C126.287 33.2953 126.658 33.5588 126.978 33.8794C127.306 34.1999 127.569 34.5916 127.769 35.0546C127.968 35.5105 128.068 36.0625 128.068 36.7107C128.068 37.4301 127.943 38.1032 127.694 38.73C127.445 39.3568 127.081 39.9053 126.604 40.3754C126.134 40.8383 125.55 41.2052 124.852 41.4758C124.161 41.7394 123.374 41.8711 122.491 41.8711C122.006 41.8711 121.511 41.8213 121.006 41.7216C120.507 41.6218 120.023 41.4829 119.553 41.3049C119.082 41.1197 118.641 40.9024 118.228 40.6531C117.815 40.4038 117.455 40.1261 117.149 39.8198L118.217 38.1317C118.295 38.0035 118.406 37.9002 118.548 37.8218C118.691 37.7435 118.844 37.7043 119.008 37.7043C119.221 37.7043 119.435 37.772 119.649 37.9073C119.87 38.0426 120.115 38.1922 120.386 38.356C120.664 38.5199 120.981 38.6694 121.337 38.8048C121.693 38.9401 122.113 39.0078 122.598 39.0078C123.253 39.0078 123.762 38.8653 124.125 38.5804C124.489 38.2884 124.67 37.829 124.67 37.2021C124.67 36.8389 124.571 36.5433 124.371 36.3154C124.172 36.0874 123.908 35.8987 123.581 35.7491C123.26 35.5995 122.893 35.4677 122.48 35.3538C122.067 35.2398 121.643 35.1152 121.209 34.9798C120.774 34.8374 120.35 34.6664 119.937 34.467C119.524 34.2604 119.154 33.9933 118.826 33.6657C118.506 33.3309 118.246 32.9178 118.046 32.4263C117.847 31.9277 117.747 31.3152 117.747 30.5886C117.747 30.0046 117.864 29.4347 118.1 28.8792C118.335 28.3236 118.68 27.8285 119.136 27.3941C119.592 26.9596 120.151 26.6141 120.813 26.3577C121.476 26.0941 122.234 25.9624 123.089 25.9624C123.566 25.9624 124.029 26.0015 124.478 26.0799C124.934 26.1511 125.365 26.2615 125.771 26.4111C126.177 26.5536 126.554 26.7281 126.903 26.9346C127.259 27.1341 127.576 27.362 127.854 27.6184L126.957 29.2958ZM179.792 26.1333V28.9967H175.412V41.7002H171.801V28.9967H167.42V26.1333H179.792ZM191.302 26.1333V28.9112H184.913V32.5438H189.806V35.2149H184.913V38.9223H191.302V41.7002H181.28V26.1333H191.302ZM203.823 37.6723C203.908 37.6723 203.993 37.6901 204.079 37.7257C204.164 37.7542 204.246 37.8076 204.325 37.8859L205.756 39.3924C205.13 40.2115 204.343 40.8312 203.395 41.2515C202.455 41.6646 201.34 41.8711 200.051 41.8711C198.869 41.8711 197.807 41.6717 196.867 41.2728C195.934 40.8668 195.14 40.3112 194.485 39.6061C193.836 38.8938 193.338 38.0533 192.989 37.0846C192.64 36.1088 192.465 35.0511 192.465 33.9114C192.465 32.7504 192.665 31.6855 193.064 30.7168C193.462 29.741 194.018 28.9005 194.73 28.1954C195.45 27.4902 196.308 26.9418 197.305 26.55C198.302 26.1582 199.403 25.9624 200.607 25.9624C201.191 25.9624 201.739 26.0158 202.252 26.1226C202.772 26.2224 203.256 26.3648 203.705 26.55C204.154 26.7281 204.567 26.9453 204.944 27.2017C205.322 27.451 205.657 27.7288 205.949 28.0351L204.731 29.6698C204.652 29.7695 204.56 29.8621 204.453 29.9476C204.346 30.0259 204.196 30.0651 204.004 30.0651C203.876 30.0651 203.755 30.0366 203.641 29.9796C203.527 29.9226 203.406 29.855 203.278 29.7766C203.149 29.6912 203.007 29.6021 202.85 29.5095C202.701 29.4098 202.519 29.3208 202.305 29.2424C202.099 29.1569 201.853 29.0857 201.568 29.0287C201.29 28.9718 200.963 28.9433 200.585 28.9433C199.93 28.9433 199.332 29.0608 198.79 29.2958C198.249 29.5238 197.782 29.855 197.391 30.2895C197.006 30.7168 196.703 31.2368 196.482 31.8494C196.269 32.4619 196.162 33.1493 196.162 33.9114C196.162 34.7092 196.269 35.4179 196.482 36.0376C196.703 36.6573 196.999 37.1808 197.369 37.6081C197.747 38.0284 198.185 38.3489 198.683 38.5697C199.182 38.7905 199.716 38.9009 200.286 38.9009C200.614 38.9009 200.913 38.8867 201.184 38.8582C201.454 38.8226 201.704 38.7656 201.931 38.6873C202.166 38.6089 202.387 38.5092 202.594 38.3881C202.808 38.2599 203.021 38.1032 203.235 37.918C203.32 37.8468 203.413 37.7898 203.513 37.747C203.612 37.6972 203.716 37.6723 203.823 37.6723ZM220.997 41.7002H217.364V35.1187H211.039V41.7002H207.407V26.1333H211.039V32.64H217.364V26.1333H220.997V41.7002Z" fill="white"/>
    <path d="M139.884 26.1333V28.9112H133.495V32.5438H138.389V35.2149H133.495V38.9223H139.884V41.7002H129.863V26.1333H139.884ZM149.702 35.7811V41.7002H146.09V35.7811L140.449 26.1333H143.633C143.947 26.1333 144.196 26.2081 144.381 26.3577C144.566 26.5001 144.716 26.6853 144.83 26.9133L147.031 31.4434C147.209 31.8066 147.373 32.1414 147.522 32.4477C147.672 32.754 147.804 33.0567 147.917 33.3558C148.024 33.0496 148.153 32.7433 148.302 32.437C148.452 32.1307 148.612 31.7995 148.783 31.4434L150.962 26.9133C151.005 26.8207 151.062 26.7281 151.133 26.6355C151.212 26.5429 151.297 26.461 151.39 26.3897C151.49 26.3114 151.6 26.2508 151.721 26.2081C151.849 26.1582 151.988 26.1333 152.138 26.1333H155.343L149.702 35.7811ZM166.428 26.1333V28.9112H160.039V32.5438H164.932V35.2149H160.039V38.9223H166.428V41.7002H156.406V26.1333H166.428Z" fill="#F2006E"/>
    <path d="M78.6255 56.8403V49.07H81.251C81.8606 49.07 82.3589 49.18 82.7459 49.4001C83.1355 49.6176 83.4238 49.9123 83.611 50.2841C83.7982 50.6559 83.8917 51.0707 83.8917 51.5286C83.8917 51.9864 83.7982 52.4025 83.611 52.7768C83.4263 53.1512 83.1405 53.4497 82.7535 53.6722C82.3665 53.8923 81.8707 54.0023 81.2662 54.0023H79.3843V53.1676H81.2359C81.6532 53.1676 81.9884 53.0955 82.2413 52.9514C82.4942 52.8072 82.6776 52.6124 82.7915 52.3671C82.9078 52.1192 82.966 51.8397 82.966 51.5286C82.966 51.2174 82.9078 50.9392 82.7915 50.6939C82.6776 50.4485 82.493 50.2563 82.2375 50.1172C81.982 49.9755 81.6431 49.9047 81.2207 49.9047H79.5665V56.8403H78.6255ZM85.4075 56.8403V49.07H86.3484V52.5302H90.4916V49.07H91.4326V56.8403H90.4916V53.3649H86.3484V56.8403H85.4075ZM99.8726 52.9552C99.8726 53.7747 99.7246 54.4829 99.4287 55.0799C99.1327 55.6768 98.7268 56.1372 98.2108 56.4609C97.6948 56.7847 97.1054 56.9466 96.4427 56.9466C95.78 56.9466 95.1906 56.7847 94.6746 56.4609C94.1586 56.1372 93.7527 55.6768 93.4567 55.0799C93.1608 54.4829 93.0128 53.7747 93.0128 52.9552C93.0128 52.1356 93.1608 51.4274 93.4567 50.8304C93.7527 50.2335 94.1586 49.7732 94.6746 49.4494C95.1906 49.1256 95.78 48.9637 96.4427 48.9637C97.1054 48.9637 97.6948 49.1256 98.2108 49.4494C98.7268 49.7732 99.1327 50.2335 99.4287 50.8304C99.7246 51.4274 99.8726 52.1356 99.8726 52.9552ZM98.962 52.9552C98.962 52.2823 98.8494 51.7145 98.6243 51.2516C98.4017 50.7887 98.0995 50.4384 97.7175 50.2006C97.3381 49.9629 96.9132 49.844 96.4427 49.844C95.9722 49.844 95.546 49.9629 95.1641 50.2006C94.7847 50.4384 94.4824 50.7887 94.2573 51.2516C94.0347 51.7145 93.9234 52.2823 93.9234 52.9552C93.9234 53.628 94.0347 54.1958 94.2573 54.6587C94.4824 55.1216 94.7847 55.4719 95.1641 55.7097C95.546 55.9474 95.9722 56.0663 96.4427 56.0663C96.9132 56.0663 97.3381 55.9474 97.7175 55.7097C98.0995 55.4719 98.4017 55.1216 98.6243 54.6587C98.8494 54.1958 98.962 53.628 98.962 52.9552ZM100.706 49.9047V49.07H106.534V49.9047H104.091V56.8403H103.15V49.9047H100.706ZM114.219 52.9552C114.219 53.7747 114.071 54.4829 113.775 55.0799C113.479 55.6768 113.073 56.1372 112.557 56.4609C112.041 56.7847 111.452 56.9466 110.789 56.9466C110.127 56.9466 109.537 56.7847 109.021 56.4609C108.505 56.1372 108.099 55.6768 107.803 55.0799C107.507 54.4829 107.359 53.7747 107.359 52.9552C107.359 52.1356 107.507 51.4274 107.803 50.8304C108.099 50.2335 108.505 49.7732 109.021 49.4494C109.537 49.1256 110.127 48.9637 110.789 48.9637C111.452 48.9637 112.041 49.1256 112.557 49.4494C113.073 49.7732 113.479 50.2335 113.775 50.8304C114.071 51.4274 114.219 52.1356 114.219 52.9552ZM113.309 52.9552C113.309 52.2823 113.196 51.7145 112.971 51.2516C112.748 50.7887 112.446 50.4384 112.064 50.2006C111.685 49.9629 111.26 49.844 110.789 49.844C110.319 49.844 109.893 49.9629 109.511 50.2006C109.131 50.4384 108.829 50.7887 108.604 51.2516C108.381 51.7145 108.27 52.2823 108.27 52.9552C108.27 53.628 108.381 54.1958 108.604 54.6587C108.829 55.1216 109.131 55.4719 109.511 55.7097C109.893 55.9474 110.319 56.0663 110.789 56.0663C111.26 56.0663 111.685 55.9474 112.064 55.7097C112.446 55.4719 112.748 55.1216 112.971 54.6587C113.196 54.1958 113.309 53.628 113.309 52.9552ZM121.113 51.4982C121.03 51.2427 120.92 51.0138 120.783 50.8115C120.649 50.6066 120.488 50.4321 120.301 50.2879C120.116 50.1437 119.906 50.0337 119.671 49.9578C119.436 49.8819 119.178 49.844 118.897 49.844C118.437 49.844 118.018 49.9629 117.641 50.2006C117.265 50.4384 116.965 50.7887 116.742 51.2516C116.52 51.7145 116.408 52.2823 116.408 52.9552C116.408 53.628 116.521 54.1958 116.746 54.6587C116.971 55.1216 117.276 55.4719 117.66 55.7097C118.045 55.9474 118.477 56.0663 118.958 56.0663C119.403 56.0663 119.795 55.9715 120.134 55.7818C120.476 55.5895 120.741 55.3189 120.931 54.9698C121.123 54.6182 121.219 54.2047 121.219 53.7292L121.508 53.7899H119.17V52.9552H122.13V53.7899C122.13 54.4298 121.993 54.9863 121.72 55.4593C121.449 55.9323 121.075 56.299 120.597 56.5596C120.121 56.8176 119.575 56.9466 118.958 56.9466C118.27 56.9466 117.665 56.7847 117.144 56.4609C116.626 56.1372 116.221 55.6768 115.93 55.0799C115.642 54.4829 115.498 53.7747 115.498 52.9552C115.498 52.3405 115.58 51.7878 115.744 51.2971C115.911 50.8039 116.147 50.384 116.45 50.0375C116.754 49.6909 117.113 49.4254 117.528 49.2407C117.942 49.0561 118.399 48.9637 118.897 48.9637C119.307 48.9637 119.689 49.0257 120.043 49.1497C120.4 49.2711 120.717 49.4443 120.995 49.6694C121.276 49.892 121.51 50.1589 121.697 50.47C121.884 50.7786 122.013 51.1213 122.084 51.4982H121.113ZM123.741 56.8403V49.07H126.367C126.974 49.07 127.472 49.1737 127.862 49.3811C128.251 49.586 128.54 49.868 128.727 50.2272C128.914 50.5864 129.008 50.9949 129.008 51.4527C129.008 51.9105 128.914 52.3165 128.727 52.6706C128.54 53.0247 128.253 53.3029 127.866 53.5053C127.479 53.7051 126.984 53.805 126.382 53.805H124.257V52.9552H126.352C126.767 52.9552 127.1 52.8944 127.353 52.773C127.609 52.6516 127.794 52.4796 127.907 52.257C128.024 52.0319 128.082 51.7638 128.082 51.4527C128.082 51.1416 128.024 50.8697 127.907 50.6369C127.791 50.4042 127.605 50.2247 127.35 50.0982C127.094 49.9692 126.756 49.9047 126.337 49.9047H124.682V56.8403H123.741ZM127.399 53.3497L129.311 56.8403H128.218L126.337 53.3497H127.399ZM130.894 56.8403H129.908L132.761 49.07H133.732L136.585 56.8403H135.599L133.277 50.2993H133.216L130.894 56.8403ZM131.258 53.805H135.235V54.6397H131.258V53.805ZM137.796 56.8403V49.07H140.421C141.031 49.07 141.529 49.18 141.916 49.4001C142.306 49.6176 142.594 49.9123 142.781 50.2841C142.968 50.6559 143.062 51.0707 143.062 51.5286C143.062 51.9864 142.968 52.4025 142.781 52.7768C142.597 53.1512 142.311 53.4497 141.924 53.6722C141.537 53.8923 141.041 54.0023 140.436 54.0023H138.555V53.1676H140.406C140.823 53.1676 141.159 53.0955 141.412 52.9514C141.664 52.8072 141.848 52.6124 141.962 52.3671C142.078 52.1192 142.136 51.8397 142.136 51.5286C142.136 51.2174 142.078 50.9392 141.962 50.6939C141.848 50.4485 141.663 50.2563 141.408 50.1172C141.152 49.9755 140.813 49.9047 140.391 49.9047H138.737V56.8403H137.796ZM144.578 56.8403V49.07H145.519V52.5302H149.662V49.07H150.603V56.8403H149.662V53.3649H145.519V56.8403H144.578ZM151.819 49.07H152.896L155.051 52.6972H155.142L157.298 49.07H158.375L155.567 53.6381V56.8403H154.626V53.6381L151.819 49.07Z" fill="white"/>
</svg>
