<svg width="21" height="20" viewBox="0 0 21 20" fill="none" xmlns="http://www.w3.org/2000/svg">
<g clip-path="url(#clip0_643_1042)">
<path d="M20.0896 0.00247796C16.1855 -0.067522 11.733 1.97331 8.91464 5.13914C6.22131 5.18998 3.59881 6.29415 1.66798 8.22498C1.55548 8.33581 1.51548 8.50165 1.56464 8.65165C1.61464 8.80248 1.74464 8.91164 1.90131 8.93414L5.11298 9.39415L4.71631 9.83831C4.56881 10.0033 4.57631 10.2541 4.73298 10.4108L10.0888 15.7666C10.1696 15.8475 10.2763 15.8883 10.3838 15.8883C10.483 15.8883 10.5821 15.8533 10.6613 15.7825L11.1055 15.3858L11.5655 18.5975C11.588 18.7541 11.7113 18.8691 11.8605 18.9191C11.8988 18.9316 11.9388 18.9375 11.9796 18.9375C12.098 18.9375 12.2188 18.8858 12.3021 18.8033C14.2063 16.8991 15.3105 14.2766 15.3613 11.5833C18.5305 8.75914 20.588 4.30831 20.4971 0.409145C20.4913 0.187478 20.3121 0.00831129 20.0896 0.00247796ZM16.2496 7.19581C15.8438 7.60165 15.3105 7.80498 14.7763 7.80498C14.2421 7.80498 13.7088 7.60165 13.303 7.19581C12.4913 6.38331 12.4913 5.06164 13.303 4.24914C14.1155 3.43664 15.4371 3.43664 16.2496 4.24914C17.0621 5.06164 17.0621 6.38415 16.2496 7.19581Z" fill="url(#paint0_linear_643_1042)"/>
<path d="M2.77005 14.0875C1.87838 14.9792 0.654215 19.0075 0.517548 19.4634C0.473381 19.61 0.514215 19.7692 0.621715 19.8775C0.701715 19.9575 0.807548 20 0.916715 20C0.956715 20 0.996715 19.9942 1.03671 19.9825C1.49255 19.8459 5.52088 18.6217 6.41255 17.73C7.41671 16.7259 7.41671 15.0917 6.41255 14.0875C5.40755 13.0834 3.77421 13.0842 2.77005 14.0875Z" fill="url(#paint1_linear_643_1042)"/>
</g>
<defs>
<linearGradient id="paint0_linear_643_1042" x1="13.8687" y1="16.6067" x2="7.29979" y2="1.76787" gradientUnits="userSpaceOnUse">
<stop stop-color="#E60C84"/>
<stop offset="1" stop-color="#FFCF4B"/>
</linearGradient>
<linearGradient id="paint1_linear_643_1042" x1="4.83383" y1="19.1797" x2="2.52023" y2="13.9584" gradientUnits="userSpaceOnUse">
<stop stop-color="#E60C84"/>
<stop offset="1" stop-color="#FFCF4B"/>
</linearGradient>
<clipPath id="clip0_643_1042">
<rect width="20" height="20" fill="white" transform="translate(0.5)"/>
</clipPath>
</defs>
</svg>
