<svg width="21" height="20" viewBox="0 0 21 20" fill="none" xmlns="http://www.w3.org/2000/svg">
<g id="flash 1" clip-path="url(#clip0_12033_7793)">
<g id="Group">
<g id="Group_2">
<path id="Vector" d="M17.1411 7.81004H12.2728L16.0907 0.86832C16.3055 0.477813 16.0229 0 15.5773 0H8.54651C8.29889 0 8.07799 0.155664 7.99471 0.388867L4.08932 11.3239C3.95303 11.7055 4.23592 12.1069 4.64112 12.1069H10.1778L8.75381 19.2978C8.63108 19.9176 9.44104 20.2659 9.80655 19.7505L17.619 8.73492C17.8942 8.34691 17.6168 7.81004 17.1411 7.81004Z" fill="url(#paint0_linear_12033_7793)"/>
</g>
<g id="Group_3">
<path id="Vector_2" d="M7.05708 18.7388C7.37443 18.8022 7.6831 18.5964 7.74657 18.2791L8.60587 13.9822C8.66935 13.6649 8.46353 13.3562 8.14622 13.2927C7.82892 13.2293 7.52021 13.4351 7.45673 13.7524L6.59743 18.0493C6.53396 18.3666 6.73974 18.6753 7.05708 18.7388Z" fill="url(#paint1_linear_12033_7793)"/>
<path id="Vector_3" d="M2.09996 11.6691C2.40472 11.778 2.74 11.6192 2.84882 11.3144L5.35996 4.28316C5.46878 3.97839 5.31 3.64312 5.00523 3.53429C4.70046 3.42546 4.36519 3.58425 4.25636 3.88902L1.74523 10.9203C1.6364 11.225 1.79519 11.5603 2.09996 11.6691Z" fill="url(#paint2_linear_12033_7793)"/>
<path id="Vector_4" d="M17.7406 0.303671L15.5922 4.20992C15.4362 4.49348 15.5397 4.84973 15.8232 5.0057C16.1067 5.16164 16.463 5.05824 16.619 4.77469L18.7674 0.868437C18.9234 0.584882 18.8199 0.228632 18.5364 0.0726558C18.2529 -0.0833208 17.8966 0.0201168 17.7406 0.303671Z" fill="url(#paint3_linear_12033_7793)"/>
<path id="Vector_5" d="M11.871 19.8941C12.1361 20.0798 12.5014 20.0154 12.6871 19.7503L15.4773 15.7659C15.6629 15.5008 15.5985 15.1354 15.3335 14.9498L15.3334 14.9498C15.0684 14.7642 14.703 14.8286 14.5174 15.0936L11.7272 19.078C11.5415 19.3431 11.6059 19.7085 11.871 19.8941Z" fill="url(#paint4_linear_12033_7793)"/>
<path id="Vector_6" d="M18.227 9.90168L16.8318 11.8548C16.6438 12.1182 16.7047 12.4841 16.9681 12.6722H16.9681C17.2314 12.8603 17.5974 12.7993 17.7854 12.536L19.1806 10.5828C19.3686 10.3195 19.3077 9.95355 19.0443 9.76547C18.781 9.57734 18.415 9.63832 18.227 9.90168Z" fill="url(#paint5_linear_12033_7793)"/>
</g>
</g>
</g>
<defs>
<linearGradient id="paint0_linear_12033_7793" x1="12.9447" y1="17.5384" x2="4.39003" y2="4.34006" gradientUnits="userSpaceOnUse">
<stop stop-color="#E60C84"/>
<stop offset="1" stop-color="#FFCF4B"/>
</linearGradient>
<linearGradient id="paint1_linear_12033_7793" x1="7.90671" y1="18.0771" x2="5.38344" y2="15.962" gradientUnits="userSpaceOnUse">
<stop stop-color="#E60C84"/>
<stop offset="1" stop-color="#FFCF4B"/>
</linearGradient>
<linearGradient id="paint2_linear_12033_7793" x1="4.10572" y1="10.6937" x2="0.262092" y2="6.79925" gradientUnits="userSpaceOnUse">
<stop stop-color="#E60C84"/>
<stop offset="1" stop-color="#FFCF4B"/>
</linearGradient>
<linearGradient id="paint3_linear_12033_7793" x1="17.6784" y1="4.45329" x2="15.4682" y2="1.19199" gradientUnits="userSpaceOnUse">
<stop stop-color="#E60C84"/>
<stop offset="1" stop-color="#FFCF4B"/>
</linearGradient>
<linearGradient id="paint4_linear_12033_7793" x1="14.1972" y1="19.3655" x2="12.1059" y2="15.7391" gradientUnits="userSpaceOnUse">
<stop stop-color="#E60C84"/>
<stop offset="1" stop-color="#FFCF4B"/>
</linearGradient>
<linearGradient id="paint5_linear_12033_7793" x1="18.3917" y1="12.3967" x2="17.1679" y2="10.1282" gradientUnits="userSpaceOnUse">
<stop stop-color="#E60C84"/>
<stop offset="1" stop-color="#FFCF4B"/>
</linearGradient>
<clipPath id="clip0_12033_7793">
<rect width="20" height="20" fill="white" transform="translate(0.5)"/>
</clipPath>
</defs>
</svg>
