<svg width="230" height="69" viewBox="0 0 230 69" fill="none" xmlns="http://www.w3.org/2000/svg">
    <path d="M84.5682 54.4755C78.6002 60.4435 60.0993 51.6406 54.0815 45.6726C48.1135 39.7046 48.1135 30.0065 54.0815 23.9887C60.0495 18.0207 69.7476 18.0207 75.7654 23.9887C81.7334 30.0065 90.586 48.5074 84.5682 54.4755Z" fill="#FF005C"/>
    <path d="M45.228 15.1362C39.26 21.1043 48.0628 39.6052 54.0309 45.623C59.9989 51.591 69.697 51.591 75.7148 45.623C81.6828 39.6549 81.6828 29.9569 75.7148 23.9391C69.7467 17.9711 51.2458 9.16821 45.228 15.1362Z" fill="#FF774B"/>
    <path d="M84.5682 15.1362C90.5362 21.1043 81.7334 39.6052 75.7654 45.623C69.7973 51.591 60.0993 51.591 54.0815 45.623C48.1135 39.6549 48.1135 29.9569 54.0815 23.9391C60.0993 17.9711 78.6002 9.16821 84.5682 15.1362Z" fill="#FCCA19"/>
    <path d="M45.228 54.4755C51.1961 60.4435 69.697 51.6406 75.7148 45.6726C81.6828 39.7046 81.6828 30.0065 75.7148 23.9887C69.7467 18.0207 60.0486 18.0207 54.0309 23.9887C48.0628 30.0065 39.26 48.5074 45.228 54.4755Z" fill="#763CD4"/>
    <path d="M62.9333 42.6888L57.0647 36.8202C55.9706 35.7261 55.9706 33.9357 57.0647 32.8415L62.9333 26.9729C64.0274 25.8788 65.8179 25.8788 66.912 26.9729L72.7806 32.8415C73.8747 33.9357 73.8747 35.7261 72.7806 36.8202L66.912 42.6888C65.8179 43.7829 64.0274 43.7829 62.9333 42.6888Z" fill="white"/>
    <path d="M111.241 18.4831V21.5465H104.195V25.8942H110.063V28.9694H104.195V35.6499H100.189V18.4831H111.241ZM120.446 32.504C120.98 32.504 121.456 32.4176 121.872 32.2448C122.296 32.0642 122.654 31.8089 122.944 31.479C123.235 31.1491 123.455 30.7485 123.604 30.2772C123.761 29.798 123.84 29.2561 123.84 28.6512V18.4831H127.822V28.6512C127.822 29.7038 127.649 30.6699 127.304 31.5497C126.966 32.4294 126.479 33.1874 125.843 33.8236C125.206 34.4599 124.433 34.9547 123.521 35.3082C122.61 35.6617 121.585 35.8384 120.446 35.8384C119.299 35.8384 118.271 35.6617 117.359 35.3082C116.448 34.9547 115.674 34.4599 115.038 33.8236C114.402 33.1874 113.915 32.4294 113.577 31.5497C113.239 30.6699 113.071 29.7038 113.071 28.6512V18.4831H117.053V28.6394C117.053 29.2443 117.128 29.7863 117.277 30.2654C117.434 30.7367 117.658 31.1412 117.948 31.479C118.239 31.8089 118.593 32.0642 119.009 32.2448C119.433 32.4176 119.912 32.504 120.446 32.504ZM139.972 21.9707C139.854 22.1592 139.728 22.3006 139.595 22.3948C139.469 22.4891 139.304 22.5362 139.1 22.5362C138.919 22.5362 138.723 22.4812 138.511 22.3713C138.306 22.2535 138.071 22.1239 137.804 21.9825C137.544 21.8411 137.246 21.7154 136.908 21.6054C136.57 21.4876 136.186 21.4287 135.754 21.4287C135.007 21.4287 134.45 21.5897 134.08 21.9118C133.719 22.226 133.538 22.6541 133.538 23.196C133.538 23.5417 133.648 23.8284 133.868 24.0561C134.088 24.2839 134.375 24.4803 134.728 24.6453C135.09 24.8102 135.498 24.9634 135.954 25.1048C136.417 25.2383 136.889 25.3915 137.368 25.5643C137.847 25.7292 138.314 25.9256 138.77 26.1534C139.233 26.3812 139.642 26.6718 139.995 27.0253C140.356 27.3787 140.647 27.8108 140.867 28.3213C141.087 28.824 141.197 29.4328 141.197 30.1476C141.197 30.9409 141.059 31.6832 140.785 32.3744C140.51 33.0657 140.109 33.6705 139.583 34.1889C139.064 34.6995 138.42 35.104 137.65 35.4025C136.889 35.6931 136.021 35.8384 135.047 35.8384C134.512 35.8384 133.967 35.7834 133.409 35.6735C132.859 35.5635 132.325 35.4103 131.806 35.214C131.288 35.0097 130.801 34.7702 130.345 34.4952C129.89 34.2203 129.493 33.914 129.155 33.5762L130.334 31.7146C130.42 31.5732 130.542 31.4593 130.699 31.3729C130.856 31.2865 131.025 31.2433 131.206 31.2433C131.441 31.2433 131.677 31.318 131.912 31.4672C132.156 31.6164 132.427 31.7814 132.725 31.9621C133.032 32.1427 133.381 32.3077 133.774 32.4569C134.167 32.6061 134.63 32.6808 135.164 32.6808C135.887 32.6808 136.449 32.5237 136.849 32.2095C137.25 31.8874 137.45 31.3808 137.45 30.6896C137.45 30.289 137.34 29.963 137.12 29.7116C136.9 29.4603 136.61 29.2521 136.248 29.0872C135.895 28.9222 135.49 28.7769 135.035 28.6512C134.579 28.5256 134.112 28.3881 133.633 28.2389C133.154 28.0818 132.686 27.8932 132.231 27.6733C131.775 27.4455 131.367 27.151 131.005 26.7896C130.652 26.4205 130.365 25.9649 130.145 25.4229C129.925 24.873 129.815 24.1975 129.815 23.3963C129.815 22.7522 129.945 22.1239 130.204 21.5112C130.463 20.8985 130.844 20.3526 131.347 19.8734C131.85 19.3943 132.466 19.0133 133.197 18.7306C133.927 18.4399 134.764 18.2946 135.706 18.2946C136.233 18.2946 136.743 18.3378 137.238 18.4242C137.741 18.5028 138.216 18.6245 138.664 18.7895C139.111 18.9466 139.528 19.139 139.913 19.3668C140.305 19.5867 140.655 19.8381 140.961 20.1209L139.972 21.9707ZM147.536 35.6499H143.53V18.4831H147.536V35.6499ZM167.667 27.0606C167.667 28.3017 167.451 29.4564 167.019 30.5246C166.595 31.5929 165.994 32.5237 165.216 33.317C164.439 34.1025 163.5 34.7191 162.4 35.1668C161.309 35.6146 160.095 35.8384 158.76 35.8384C157.424 35.8384 156.207 35.6146 155.107 35.1668C154.007 34.7191 153.065 34.1025 152.279 33.317C151.502 32.5237 150.897 31.5929 150.465 30.5246C150.041 29.4564 149.829 28.3017 149.829 27.0606C149.829 25.8196 150.041 24.6649 150.465 23.5966C150.897 22.5284 151.502 21.6015 152.279 20.816C153.065 20.0305 154.007 19.4139 155.107 18.9662C156.207 18.5185 157.424 18.2946 158.76 18.2946C160.095 18.2946 161.309 18.5224 162.4 18.978C163.5 19.4257 164.439 20.0423 165.216 20.8278C165.994 21.6133 166.595 22.5402 167.019 23.6084C167.451 24.6767 167.667 25.8274 167.667 27.0606ZM163.59 27.0606C163.59 26.2123 163.48 25.4504 163.261 24.7749C163.041 24.0915 162.722 23.5142 162.306 23.0429C161.898 22.5716 161.395 22.2103 160.798 21.9589C160.201 21.7075 159.522 21.5819 158.76 21.5819C157.99 21.5819 157.303 21.7075 156.698 21.9589C156.101 22.2103 155.594 22.5716 155.178 23.0429C154.769 23.5142 154.455 24.0915 154.235 24.7749C154.015 25.4504 153.905 26.2123 153.905 27.0606C153.905 27.9168 154.015 28.6866 154.235 29.37C154.455 30.0455 154.769 30.6189 155.178 31.0902C155.594 31.5615 156.101 31.9228 156.698 32.1741C157.303 32.4176 157.99 32.5394 158.76 32.5394C159.522 32.5394 160.201 32.4176 160.798 32.1741C161.395 31.9228 161.898 31.5615 162.306 31.0902C162.722 30.6189 163.041 30.0455 163.261 29.37C163.48 28.6866 163.59 27.9168 163.59 27.0606ZM171.668 18.4831C171.841 18.4831 171.987 18.491 172.104 18.5067C172.222 18.5224 172.328 18.5538 172.423 18.601C172.517 18.6402 172.607 18.6991 172.694 18.7777C172.78 18.8562 172.878 18.9623 172.988 19.0958L181.141 29.4053C181.11 29.0754 181.086 28.7573 181.071 28.4509C181.055 28.1367 181.047 27.8422 181.047 27.5673V18.4831H184.558V35.6499H182.485C182.178 35.6499 181.919 35.6028 181.707 35.5085C181.495 35.4143 181.291 35.2415 181.094 34.9901L173 24.7631C173.023 25.0616 173.043 25.3561 173.059 25.6468C173.074 25.9295 173.082 26.1966 173.082 26.4479V35.6499H169.571V18.4831H171.668Z" fill="white"/>
    <path d="M100.637 52.7646H99.1792L103.397 41.2792H104.832L109.05 52.7646H107.591L104.159 43.0962H104.069L100.637 52.7646ZM101.176 48.2781H107.053V49.5119H101.176V48.2781ZM118.15 44.8684C118.027 44.4908 117.864 44.1524 117.662 43.8533C117.464 43.5505 117.227 43.2925 116.95 43.0794C116.677 42.8663 116.367 42.7036 116.019 42.5915C115.671 42.4793 115.29 42.4232 114.875 42.4232C114.195 42.4232 113.576 42.5989 113.019 42.9504C112.462 43.3018 112.019 43.8196 111.69 44.5038C111.361 45.188 111.196 46.0274 111.196 47.0219C111.196 48.0164 111.362 48.8558 111.695 49.54C112.028 50.2242 112.478 50.742 113.047 51.0934C113.615 51.4449 114.254 51.6206 114.965 51.6206C115.623 51.6206 116.202 51.4804 116.703 51.2C117.208 50.9158 117.601 50.5158 117.881 49.9998C118.165 49.4801 118.307 48.8689 118.307 48.166L118.733 48.2557H115.279V47.0219H119.653V48.2557C119.653 49.2016 119.451 50.0241 119.047 50.7233C118.647 51.4224 118.094 51.9646 117.387 52.3496C116.685 52.731 115.877 52.9217 114.965 52.9217C113.948 52.9217 113.054 52.6824 112.284 52.2038C111.518 51.7253 110.919 51.0448 110.489 50.1625C110.063 49.2801 109.85 48.2333 109.85 47.0219C109.85 46.1134 109.972 45.2965 110.215 44.5711C110.461 43.8421 110.809 43.2214 111.258 42.7092C111.706 42.197 112.237 41.8045 112.85 41.5315C113.464 41.2586 114.138 41.1221 114.875 41.1221C115.481 41.1221 116.045 41.2137 116.569 41.3969C117.096 41.5764 117.565 41.8325 117.976 42.1652C118.391 42.4943 118.737 42.8887 119.014 43.3486C119.29 43.8047 119.481 44.3113 119.586 44.8684H118.15ZM122.035 52.7646V41.2792H128.967V42.5129H123.426V46.3938H128.608V47.6276H123.426V51.5309H129.057V52.7646H122.035ZM140.581 41.2792V52.7646H139.235L132.977 43.7467H132.865V52.7646H131.474V41.2792H132.82L139.101 50.3195H139.213V41.2792H140.581ZM152.607 44.8684H151.216C151.134 44.4683 150.99 44.1169 150.784 43.814C150.582 43.5112 150.335 43.257 150.044 43.0513C149.756 42.842 149.436 42.6849 149.085 42.5802C148.733 42.4756 148.367 42.4232 147.986 42.4232C147.29 42.4232 146.66 42.5989 146.096 42.9504C145.535 43.3018 145.088 43.8196 144.755 44.5038C144.426 45.188 144.262 46.0274 144.262 47.0219C144.262 48.0164 144.426 48.8558 144.755 49.54C145.088 50.2242 145.535 50.742 146.096 51.0934C146.66 51.4449 147.29 51.6206 147.986 51.6206C148.367 51.6206 148.733 51.5682 149.085 51.4636C149.436 51.3589 149.756 51.2037 150.044 50.9981C150.335 50.7887 150.582 50.5326 150.784 50.2298C150.99 49.9232 151.134 49.5717 151.216 49.1754H152.607C152.502 49.7624 152.311 50.2877 152.035 50.7513C151.758 51.2149 151.414 51.6094 151.003 51.9346C150.591 52.2562 150.13 52.5011 149.617 52.6693C149.109 52.8376 148.565 52.9217 147.986 52.9217C147.006 52.9217 146.135 52.6824 145.372 52.2038C144.609 51.7253 144.009 51.0448 143.572 50.1625C143.134 49.2801 142.916 48.2333 142.916 47.0219C142.916 45.8105 143.134 44.7637 143.572 43.8813C144.009 42.999 144.609 42.3185 145.372 41.84C146.135 41.3614 147.006 41.1221 147.986 41.1221C148.565 41.1221 149.109 41.2062 149.617 41.3745C150.13 41.5427 150.591 41.7895 151.003 42.1148C151.414 42.4363 151.758 42.8289 152.035 43.2925C152.311 43.7523 152.502 44.2776 152.607 44.8684ZM153.867 41.2792H155.46L158.645 46.6405H158.78L161.965 41.2792H163.558L159.408 48.0314V52.7646H158.017V48.0314L153.867 41.2792Z" fill="white"/>
</svg>
