<svg width="21" height="20" viewBox="0 0 21 20" fill="none" xmlns="http://www.w3.org/2000/svg">
<g id="pen-tool 1" clip-path="url(#clip0_12033_7785)">
<g id="Group">
<g id="Group_2">
<g id="Group_3">
<path id="Vector" d="M20.0999 5.84807L14.6463 0.387249C14.1323 -0.129225 13.2308 -0.128799 12.7176 0.386823L10.8999 2.20697C10.642 2.46431 10.5 2.80743 10.5 3.1728C10.5 3.53817 10.642 3.88129 10.8995 4.13821L16.3536 9.5995C16.6106 9.85774 16.9533 9.99998 17.3181 9.99998C17.683 9.99998 18.0257 9.85774 18.2823 9.59997L20.1 7.77982C20.3579 7.52248 20.4999 7.17931 20.4999 6.81399C20.4999 6.44858 20.3578 6.10541 20.0999 5.84807Z" fill="url(#paint0_linear_12033_7785)"/>
<path id="Vector_2" d="M10.5196 5.0515C10.3704 4.90193 10.1387 4.87529 9.96071 4.98536C8.63347 5.79902 6.55428 6.76891 4.1857 6.76891C3.98286 6.76891 3.80439 6.90339 3.74849 7.09873L0.51741 18.4077C0.460137 18.6092 0.54758 18.8236 0.729582 18.9275C0.911115 19.03 1.14106 18.9976 1.28488 18.8445L6.69188 13.1196C6.87341 12.927 6.95911 12.6558 6.92668 12.3752C6.86408 11.8266 7.11533 11.3263 7.59826 11.0373C8.02261 10.7843 8.58592 10.7967 9.00361 11.0671C9.3654 11.3028 9.58912 11.6628 9.63259 12.0805C9.67562 12.4919 9.5327 12.8954 9.24063 13.1875C8.94809 13.48 8.54326 13.619 8.12335 13.5723C7.83703 13.5386 7.57427 13.6247 7.38072 13.808L1.65557 19.2151C1.50331 19.3589 1.46914 19.588 1.57256 19.7704C1.65514 19.9151 1.80736 19.9999 1.96763 19.9999C2.00892 19.9999 2.05107 19.9941 2.09236 19.9826L13.4013 16.7515C13.5966 16.6956 13.7311 16.5171 13.7311 16.3143C13.7311 13.9457 14.701 11.8665 15.5147 10.5393C15.6243 10.3604 15.5973 10.1291 15.4485 9.98042L10.5196 5.0515Z" fill="url(#paint1_linear_12033_7785)"/>
</g>
</g>
</g>
</g>
<defs>
<linearGradient id="paint0_linear_12033_7785" x1="17.0017" y1="8.76917" x2="13.5304" y2="0.935819" gradientUnits="userSpaceOnUse">
<stop stop-color="#E60C84"/>
<stop offset="1" stop-color="#FFCF4B"/>
</linearGradient>
<linearGradient id="paint1_linear_12033_7785" x1="10.3057" y1="18.1436" x2="5.07031" y2="6.32942" gradientUnits="userSpaceOnUse">
<stop stop-color="#E60C84"/>
<stop offset="1" stop-color="#FFCF4B"/>
</linearGradient>
<clipPath id="clip0_12033_7785">
<rect width="20" height="20" fill="white" transform="translate(0.5)"/>
</clipPath>
</defs>
</svg>
