<svg width="21" height="20" viewBox="0 0 21 20" fill="none" xmlns="http://www.w3.org/2000/svg">
<g id="rocket (2) 1" clip-path="url(#clip0_12033_7805)">
<path id="Vector" d="M20.0887 0.00174554C16.1845 -0.0682545 11.732 1.97258 8.91367 5.13841C6.22033 5.18925 3.59783 6.29341 1.667 8.22425C1.5545 8.33508 1.5145 8.50091 1.56367 8.65091C1.61367 8.80175 1.74367 8.91091 1.90033 8.93341L5.112 9.39341L4.71533 9.83758C4.56783 10.0026 4.57533 10.2534 4.732 10.4101L10.0878 15.7659C10.1687 15.8467 10.2753 15.8876 10.3828 15.8876C10.482 15.8876 10.5812 15.8526 10.6603 15.7817L11.1045 15.3851L11.5645 18.5967C11.587 18.7534 11.7103 18.8684 11.8595 18.9184C11.8978 18.9309 11.9378 18.9367 11.9787 18.9367C12.097 18.9367 12.2178 18.8851 12.3012 18.8026C14.2053 16.8984 15.3095 14.2759 15.3603 11.5826C18.5295 8.75841 20.587 4.30758 20.4962 0.408412C20.4903 0.186746 20.3112 0.00757887 20.0887 0.00174554ZM16.2487 7.19508C15.8428 7.60091 15.3095 7.80425 14.7753 7.80425C14.2412 7.80425 13.7078 7.60091 13.302 7.19508C12.4903 6.38258 12.4903 5.06091 13.302 4.24841C14.1145 3.43591 15.4362 3.43591 16.2487 4.24841C17.0612 5.06091 17.0612 6.38341 16.2487 7.19508Z" fill="url(#paint0_linear_12033_7805)"/>
<path id="Vector_2" d="M2.77005 14.0868C1.87838 14.9785 0.654215 19.0068 0.517548 19.4626C0.473381 19.6093 0.514215 19.7685 0.621715 19.8768C0.701715 19.9568 0.807548 19.9993 0.916715 19.9993C0.956715 19.9993 0.996715 19.9935 1.03671 19.9818C1.49255 19.8451 5.52088 18.621 6.41255 17.7293C7.41671 16.7251 7.41671 15.091 6.41255 14.0868C5.40755 13.0826 3.77421 13.0835 2.77005 14.0868Z" fill="url(#paint1_linear_12033_7805)"/>
</g>
<defs>
<linearGradient id="paint0_linear_12033_7805" x1="13.8677" y1="16.606" x2="7.29881" y2="1.76714" gradientUnits="userSpaceOnUse">
<stop stop-color="#E60C84"/>
<stop offset="1" stop-color="#FFCF4B"/>
</linearGradient>
<linearGradient id="paint1_linear_12033_7805" x1="4.83383" y1="19.1789" x2="2.52023" y2="13.9576" gradientUnits="userSpaceOnUse">
<stop stop-color="#E60C84"/>
<stop offset="1" stop-color="#FFCF4B"/>
</linearGradient>
<clipPath id="clip0_12033_7805">
<rect width="20" height="20" fill="white" transform="translate(0.5)"/>
</clipPath>
</defs>
</svg>
