<svg width="230" height="69" viewBox="0 0 230 69" fill="none" xmlns="http://www.w3.org/2000/svg">
    <path d="M24.4292 54.342L9.31545 39.2282C8.24381 38.1566 8.24381 36.4198 9.31545 35.3482L24.4292 20.2344C25.5009 19.1628 27.2376 19.1628 28.3093 20.2344L43.4231 35.3482C44.4947 36.4198 44.4947 38.1566 43.4231 39.2282L28.3093 54.342C27.2376 55.4136 25.5009 55.4136 24.4292 54.342Z" fill="url(#paint0_linear_8029_4898)"/>
    <g opacity="0.2">
    <mask id="mask0_8029_4898" style="mask-type:luminance" maskUnits="userSpaceOnUse" x="8" y="19" width="37" height="37">
    <path d="M24.4312 54.342L9.3174 39.2282C8.24576 38.1566 8.24576 36.4198 9.3174 35.3482L24.4312 20.2344C25.5028 19.1628 27.2396 19.1628 28.3112 20.2344L43.425 35.3482C44.4966 36.4198 44.4966 38.1566 43.425 39.2282L28.3112 54.342C27.2396 55.4136 25.5028 55.4136 24.4312 54.342Z" fill="white"/>
    </mask>
    <g mask="url(#mask0_8029_4898)">
    <path d="M41.6118 43.3677C40.9097 43.5524 40.2076 43.7002 39.4316 43.8481C38.36 44.0698 37.2144 44.2545 36.0319 44.3654C33.63 44.661 31.0433 44.8458 28.2718 44.9566C27.5697 44.9936 26.8676 44.9936 26.1655 44.9936C25.7959 44.9936 25.4264 44.9936 25.0569 44.9936C24.6873 44.9936 24.3548 44.9936 23.9852 44.9936C22.5441 44.9567 21.029 44.8827 19.5139 44.7719C18.0728 44.661 16.6316 44.4763 15.1904 44.2176V49.5758C16.4099 49.8714 17.6293 50.1301 18.8488 50.3148C20.5117 50.5735 22.1376 50.7583 23.7635 50.8691C24.17 50.9061 24.5765 50.9061 24.983 50.943C25.3525 50.943 25.759 50.98 26.1285 50.98C26.9415 50.98 27.7175 50.98 28.4935 50.98C31.5606 50.8691 34.4429 50.4996 37.1035 49.8344C38.4339 49.5019 39.6533 49.1323 40.8358 48.7259C41.1314 48.615 41.3901 48.5041 41.6857 48.3933V43.3677H41.6118Z" fill="black"/>
    </g>
    </g>
    <path d="M51.6272 36.8631C51.6272 36.7892 51.6272 36.7153 51.5902 36.6044C51.5533 36.5305 51.5533 36.4197 51.5163 36.3088C51.4794 36.198 51.4794 36.0871 51.4424 35.9762C51.4055 35.8654 51.3685 35.7545 51.3316 35.6067C50.962 34.572 50.0752 33.3156 48.7079 32.3548C47.3406 31.3571 45.6039 30.5441 43.5714 29.9159C42.5368 29.5834 41.4651 29.3247 40.2826 29.103C39.1371 28.8443 37.9176 28.6595 36.6612 28.5117L37.659 29.5095C38.4719 29.7312 39.211 29.9899 39.9501 30.2485C41.0217 30.655 42.0194 31.0615 42.9432 31.5049C44.7539 32.3918 46.1581 33.3895 47.1189 34.3134C48.0797 35.2372 48.4492 36.0501 48.5601 36.5675C48.634 36.9001 48.634 37.1218 48.634 37.2326C48.634 37.2696 48.634 37.3804 48.597 37.5283C48.597 37.5652 48.597 37.6391 48.5601 37.713C48.5601 37.75 48.5231 37.75 48.5231 37.7869C48.5231 37.8239 48.4862 37.8608 48.4862 37.8608C48.4492 37.8978 48.4492 37.9717 48.4123 38.0087C48.3384 38.2304 48.1536 38.526 47.8949 38.8216C47.6363 39.1542 47.2667 39.4868 46.7494 39.8563C45.7517 40.5584 44.2736 41.2605 42.4629 41.8148C41.539 42.0735 40.5413 42.3321 39.4697 42.5169C38.398 42.7386 37.2525 42.9234 36.07 43.0343C33.668 43.3299 31.0813 43.5146 28.3099 43.6255C27.6078 43.6625 26.9056 43.6625 26.2035 43.6625C25.834 43.6625 25.4645 43.6625 25.095 43.6625C24.7254 43.6625 24.3928 43.6625 24.0233 43.6625C22.5821 43.6255 21.0671 43.5516 19.552 43.4407C16.5588 43.1821 13.4548 42.7017 10.4985 41.7779C9.75946 41.5561 9.05735 41.2975 8.35525 41.0018C7.65314 40.7062 7.02494 40.3736 6.43369 39.9672C5.84244 39.5976 5.3251 39.1542 4.95557 38.7108C4.84471 38.5999 4.77081 38.489 4.6969 38.3782C4.62299 38.2673 4.54909 38.1565 4.51214 38.0456L4.43823 37.8608C4.43823 37.7869 4.40128 37.75 4.40128 37.6761C4.36433 37.6022 4.36432 37.5652 4.36432 37.4913V37.4174V37.3804V37.3435C4.36432 37.3804 4.36432 37.2326 4.36432 37.4174V37.0848V36.937V36.8631C4.36432 36.8262 4.36432 36.7892 4.36432 36.7153L4.40128 36.5305C4.40128 36.3827 4.47518 36.2719 4.51214 36.1241C4.58604 35.9762 4.62299 35.8284 4.6969 35.7176C4.99252 35.1633 5.47291 34.572 6.02721 34.0916C7.1358 33.057 8.57696 32.244 10.0181 31.5419C11.6441 30.7659 13.3809 30.1746 15.1176 29.7312L16.411 28.4009C14.083 28.6965 11.7549 29.1769 9.38993 29.9159C7.72705 30.4702 6.10111 31.1354 4.54909 32.1701C3.77308 32.6874 2.99706 33.3156 2.36886 34.1655C2.22105 34.3873 2.07324 34.609 1.92543 34.8307C1.81457 35.0894 1.66676 35.3111 1.5559 35.6067L1.40808 36.0132C1.37113 36.161 1.33418 36.3458 1.29723 36.4936L1.26027 36.7522L1.22332 36.9001L1.18637 37.2326V37.4544V37.5652V37.7869C1.18637 37.9347 1.18637 38.0826 1.22332 38.2304L1.14941 38.6738L1.26027 39.1172C1.33418 39.4129 1.44504 39.6715 1.5559 39.9302C1.66676 40.1889 1.81457 40.4475 1.96238 40.6693C2.55363 41.63 3.25573 42.4061 3.99479 43.0343C5.50987 44.3646 7.1358 45.2514 8.79868 46.0274C12.1244 47.5425 15.5241 48.3924 18.8129 48.9467C20.4758 49.2054 22.1018 49.3902 23.7277 49.501C24.1342 49.538 24.5407 49.538 24.9471 49.5749C25.3167 49.5749 25.7232 49.6119 26.0927 49.6119C26.9056 49.6119 27.6817 49.6119 28.4577 49.6119C31.5248 49.501 34.4071 49.1315 37.0677 48.4663C38.398 48.1338 39.6175 47.7642 40.8 47.3578C41.9825 46.9513 43.0541 46.4709 44.0888 45.9905C46.1212 44.9928 47.821 43.8842 49.1144 42.6647C50.4077 41.4822 51.2207 40.078 51.4794 39.0064C51.5163 38.8586 51.5533 38.7477 51.5902 38.6368C51.6272 38.489 51.6272 38.3782 51.6641 38.2304C51.6641 38.1195 51.7011 38.0086 51.7011 37.8978C51.7011 37.8239 51.7011 37.7869 51.7011 37.713C51.7011 37.4913 51.7011 37.4174 51.7011 37.4174V37.3065C51.6642 37.3065 51.6272 37.1587 51.6272 36.8631Z" fill="#FCCA19"/>
    <path d="M13.6387 26.1479L12.5302 24.2633L10.4238 23.8199L12.3084 22.7113L12.7519 20.605L13.8235 22.4896L15.9668 22.933L14.0822 24.0416L13.6387 26.1479Z" fill="#FF774B"/>
    <path d="M40.7276 25.5558L39.8777 24.0776L38.2148 23.7081L39.693 22.8582L40.0625 21.1953L40.9124 22.6734L42.5753 23.043L41.0972 23.8929L40.7276 25.5558Z" fill="#FF774B"/>
    <path d="M33.6318 16.7978L34.1122 15.911L33.7797 14.9502L34.6665 15.4306L35.6273 15.098L35.1469 15.9849L35.4795 16.9457L34.5926 16.4653L33.6318 16.7978Z" fill="#FF774B"/>
    <path d="M82.9964 35.4893C82.9964 36.8279 82.7634 38.0734 82.2974 39.2256C81.8399 40.3779 81.1918 41.3819 80.353 42.2376C79.5142 43.0848 78.5018 43.7499 77.3156 44.2329C76.138 44.7158 74.829 44.9572 73.3887 44.9572C71.9483 44.9572 70.6351 44.7158 69.449 44.2329C68.2628 43.7499 67.2461 43.0848 66.3989 42.2376C65.5601 41.3819 64.9077 40.3779 64.4417 39.2256C63.9842 38.0734 63.7555 36.8279 63.7555 35.4893C63.7555 34.1506 63.9842 32.9052 64.4417 31.7529C64.9077 30.6007 65.5601 29.6009 66.3989 28.7537C67.2461 27.9064 68.2628 27.2413 69.449 26.7584C70.6351 26.2755 71.9483 26.034 73.3887 26.034C74.829 26.034 76.138 26.2797 77.3156 26.7711C78.5018 27.2541 79.5142 27.9191 80.353 28.7664C81.1918 29.6136 81.8399 30.6134 82.2974 31.7656C82.7634 32.9179 82.9964 34.1591 82.9964 35.4893ZM78.5992 35.4893C78.5992 34.5743 78.4806 33.7524 78.2434 33.0238C78.0061 32.2867 77.663 31.664 77.214 31.1556C76.7734 30.6473 76.2312 30.2575 75.5873 29.9864C74.9433 29.7153 74.2105 29.5797 73.3887 29.5797C72.5584 29.5797 71.817 29.7153 71.1646 29.9864C70.5207 30.2575 69.9743 30.6473 69.5252 31.1556C69.0846 31.664 68.7457 32.2867 68.5085 33.0238C68.2713 33.7524 68.1527 34.5743 68.1527 35.4893C68.1527 36.4128 68.2713 37.2431 68.5085 37.9802C68.7457 38.7088 69.0846 39.3273 69.5252 39.8356C69.9743 40.344 70.5207 40.7337 71.1646 41.0048C71.817 41.2675 72.5584 41.3988 73.3887 41.3988C74.2105 41.3988 74.9433 41.2675 75.5873 41.0048C76.2312 40.7337 76.7734 40.344 77.214 39.8356C77.663 39.3273 78.0061 38.7088 78.2434 37.9802C78.4806 37.2431 78.5992 36.4128 78.5992 35.4893ZM87.3124 26.2374C87.4988 26.2374 87.6555 26.2458 87.7826 26.2628C87.9097 26.2797 88.0241 26.3136 88.1258 26.3644C88.2274 26.4068 88.3249 26.4703 88.4181 26.5551C88.5113 26.6398 88.6172 26.7542 88.7358 26.8982L97.5302 38.0183C97.4963 37.6625 97.4709 37.3193 97.4539 36.9889C97.437 36.65 97.4285 36.3323 97.4285 36.0358V26.2374H101.216V44.7539H98.979C98.6485 44.7539 98.369 44.7031 98.1402 44.6014C97.9114 44.4997 97.6912 44.3133 97.4793 44.0422L88.7485 33.0111C88.7739 33.333 88.7951 33.6508 88.812 33.9642C88.829 34.2692 88.8374 34.5573 88.8374 34.8284V44.7539H85.0503V26.2374H87.3124ZM116.183 26.2374V29.5416H108.583V33.8626H114.404V37.0397H108.583V41.4496H116.183V44.7539H104.262V26.2374H116.183Z" fill="#763CD4"/>
    <path d="M128.953 29.9991C128.826 30.2025 128.691 30.355 128.547 30.4566C128.411 30.5583 128.233 30.6091 128.013 30.6091C127.818 30.6091 127.606 30.5498 127.378 30.4312C127.157 30.3041 126.903 30.1643 126.615 30.0118C126.335 29.8593 126.013 29.7238 125.649 29.6052C125.285 29.4781 124.87 29.4145 124.404 29.4145C123.599 29.4145 122.997 29.5882 122.599 29.9356C122.209 30.2745 122.014 30.7362 122.014 31.3208C122.014 31.6936 122.133 32.0029 122.37 32.2486C122.608 32.4943 122.917 32.7061 123.298 32.884C123.688 33.0619 124.128 33.2271 124.62 33.3796C125.12 33.5237 125.628 33.6889 126.145 33.8753C126.662 34.0532 127.166 34.265 127.657 34.5107C128.157 34.7564 128.598 35.0699 128.979 35.4512C129.369 35.8324 129.682 36.2984 129.919 36.8491C130.156 37.3913 130.275 38.048 130.275 38.819C130.275 39.6747 130.127 40.4753 129.83 41.2209C129.534 41.9665 129.102 42.6188 128.534 43.178C127.975 43.7287 127.28 44.1651 126.45 44.487C125.628 44.8005 124.692 44.9572 123.641 44.9572C123.065 44.9572 122.476 44.8979 121.875 44.7793C121.282 44.6607 120.705 44.4955 120.146 44.2837C119.587 44.0634 119.062 43.805 118.57 43.5085C118.079 43.2119 117.651 42.8815 117.287 42.5172L118.558 40.5092C118.651 40.3567 118.782 40.2339 118.952 40.1407C119.121 40.0475 119.303 40.0009 119.498 40.0009C119.752 40.0009 120.006 40.0813 120.261 40.2423C120.523 40.4033 120.816 40.5812 121.138 40.7761C121.468 40.971 121.845 41.1489 122.269 41.3099C122.692 41.4708 123.192 41.5513 123.768 41.5513C124.548 41.5513 125.153 41.3819 125.586 41.043C126.018 40.6956 126.234 40.1491 126.234 39.4036C126.234 38.9715 126.115 38.6198 125.878 38.3487C125.641 38.0776 125.327 37.8531 124.937 37.6752C124.556 37.4972 124.12 37.3405 123.628 37.2049C123.137 37.0694 122.633 36.9211 122.116 36.7601C121.599 36.5907 121.095 36.3874 120.604 36.1501C120.112 35.9044 119.672 35.5867 119.282 35.197C118.901 34.7988 118.592 34.3074 118.354 33.7228C118.117 33.1297 117.999 32.4011 117.999 31.5369C117.999 30.8421 118.138 30.1643 118.418 29.5035C118.697 28.8426 119.108 28.2538 119.651 27.737C120.193 27.2202 120.858 26.8092 121.646 26.5042C122.434 26.1908 123.336 26.034 124.353 26.034C124.921 26.034 125.471 26.0806 126.005 26.1738C126.547 26.2585 127.06 26.3899 127.543 26.5678C128.026 26.7372 128.475 26.9448 128.89 27.1905C129.313 27.4277 129.69 27.6989 130.021 28.0039L128.953 29.9991ZM150.685 35.4893C150.685 36.2857 150.6 37.0524 150.431 37.7895C150.27 38.5182 150.033 39.2044 149.719 39.8484C149.414 40.4923 149.033 41.0896 148.575 41.6403C148.126 42.191 147.614 42.6782 147.038 43.1018L151.727 48.2234H148.194C147.686 48.2234 147.224 48.1598 146.809 48.0327C146.394 47.9141 146.025 47.6684 145.703 47.2956L143.403 44.7158C143.03 44.792 142.649 44.8513 142.259 44.8937C141.878 44.9361 141.484 44.9572 141.077 44.9572C139.637 44.9572 138.324 44.7158 137.138 44.2329C135.951 43.7499 134.935 43.0848 134.087 42.2376C133.249 41.3819 132.596 40.3779 132.13 39.2256C131.673 38.0734 131.444 36.8279 131.444 35.4893C131.444 34.1506 131.673 32.9052 132.13 31.7529C132.596 30.6007 133.249 29.6009 134.087 28.7537C134.935 27.9064 135.951 27.2413 137.138 26.7584C138.324 26.2755 139.637 26.034 141.077 26.034C142.518 26.034 143.827 26.2797 145.004 26.7711C146.19 27.2541 147.203 27.9191 148.042 28.7664C148.88 29.6136 149.529 30.6134 149.986 31.7656C150.452 32.9179 150.685 34.1591 150.685 35.4893ZM146.288 35.4893C146.288 34.5743 146.169 33.7524 145.932 33.0238C145.695 32.2867 145.352 31.664 144.903 31.1556C144.462 30.6473 143.92 30.2575 143.276 29.9864C142.632 29.7153 141.899 29.5797 141.077 29.5797C140.247 29.5797 139.506 29.7153 138.853 29.9864C138.209 30.2575 137.663 30.6473 137.214 31.1556C136.773 31.664 136.434 32.2867 136.197 33.0238C135.96 33.7524 135.841 34.5743 135.841 35.4893C135.841 36.4128 135.96 37.2431 136.197 37.9802C136.434 38.7088 136.773 39.3273 137.214 39.8356C137.663 40.344 138.209 40.7337 138.853 41.0048C139.506 41.2675 140.247 41.3988 141.077 41.3988C141.899 41.3988 142.632 41.2675 143.276 41.0048C143.92 40.7337 144.462 40.344 144.903 39.8356C145.352 39.3273 145.695 38.7088 145.932 37.9802C146.169 37.2431 146.288 36.4128 146.288 35.4893ZM160.44 41.3607C161.016 41.3607 161.529 41.2675 161.978 41.0811C162.436 40.8862 162.821 40.6109 163.135 40.255C163.448 39.8992 163.685 39.4671 163.846 38.9587C164.016 38.4419 164.1 37.8573 164.1 37.2049V26.2374H168.396V37.2049C168.396 38.3403 168.21 39.3824 167.837 40.3313C167.472 41.2802 166.947 42.0978 166.261 42.7841C165.575 43.4703 164.74 44.0041 163.757 44.3854C162.775 44.7666 161.669 44.9572 160.44 44.9572C159.203 44.9572 158.093 44.7666 157.111 44.3854C156.128 44.0041 155.293 43.4703 154.607 42.7841C153.921 42.0978 153.395 41.2802 153.031 40.3313C152.667 39.3824 152.485 38.3403 152.485 37.2049V26.2374H156.78V37.1922C156.78 37.8446 156.861 38.4292 157.022 38.946C157.191 39.4544 157.433 39.8907 157.746 40.255C158.06 40.6109 158.441 40.8862 158.89 41.0811C159.347 41.2675 159.864 41.3607 160.44 41.3607ZM187.769 44.7539H184.439C184.067 44.7539 183.757 44.6692 183.512 44.4997C183.274 44.3218 183.109 44.0973 183.016 43.8262L181.923 40.5982H174.882L173.789 43.8262C173.705 44.0634 173.539 44.2794 173.294 44.4743C173.048 44.6607 172.747 44.7539 172.391 44.7539H169.036L176.204 26.2374H180.601L187.769 44.7539ZM175.874 37.6752H180.932L179.229 32.6044C179.119 32.2825 178.987 31.9054 178.835 31.4733C178.691 31.0328 178.547 30.5583 178.403 30.05C178.267 30.5668 178.127 31.0455 177.983 31.486C177.839 31.9266 177.704 32.3079 177.577 32.6298L175.874 37.6752ZM193.572 37.9039V44.7539H189.276V26.2374H195.3C196.639 26.2374 197.778 26.3772 198.719 26.6567C199.668 26.9279 200.439 27.3091 201.032 27.8005C201.633 28.2919 202.07 28.8723 202.341 29.5416C202.612 30.2109 202.748 30.9396 202.748 31.7275C202.748 32.3291 202.667 32.8967 202.506 33.4305C202.345 33.9642 202.104 34.4599 201.782 34.9174C201.468 35.3664 201.078 35.7689 200.612 36.1247C200.155 36.4806 199.625 36.7729 199.024 37.0016C199.312 37.1456 199.579 37.3236 199.825 37.5354C200.079 37.7472 200.299 38.0056 200.485 38.3106L204.425 44.7539H200.536C199.816 44.7539 199.299 44.4828 198.986 43.9406L195.91 38.5648C195.775 38.3275 195.614 38.1581 195.427 38.0564C195.249 37.9548 194.995 37.9039 194.665 37.9039H193.572ZM193.572 34.9428H195.3C195.885 34.9428 196.38 34.8708 196.787 34.7268C197.202 34.5743 197.541 34.3667 197.804 34.104C198.067 33.8414 198.257 33.5364 198.376 33.189C198.494 32.8332 198.554 32.4519 198.554 32.0452C198.554 31.2319 198.287 30.5964 197.753 30.1389C197.228 29.6814 196.41 29.4527 195.3 29.4527H193.572V34.9428ZM218.101 26.2374V29.5416H210.501V33.8626H216.321V37.0397H210.501V41.4496H218.101V44.7539H206.18V26.2374H218.101Z" fill="#D8CAED"/>
    <defs>
    <linearGradient id="paint0_linear_8029_4898" x1="26.3692" y1="19.4307" x2="26.3692" y2="55.1457" gradientUnits="userSpaceOnUse">
    <stop stop-color="#A26EF7"/>
    <stop offset="1" stop-color="#763CD4"/>
    </linearGradient>
    </defs>
</svg>
