<svg width="230" height="69" viewBox="0 0 230 69" fill="none" xmlns="http://www.w3.org/2000/svg">
    <path d="M43.6864 37.8911L24.1504 57.4271H75.6493L56.1133 37.8911L49.8998 44.1046L43.6864 37.8911Z" fill="white"/>
    <path d="M50.0128 10.3501L37.5859 22.777L43.7994 28.9904L50.0128 22.777L56.2263 28.9904L62.3838 22.777L50.0128 10.3501Z" fill="#FF774B"/>
    <path d="M49.9692 27.212L43.7549 33.4263L49.9692 39.6405L56.1834 33.4263L49.9692 27.212Z" fill="#E22861"/>
    <path d="M94.5122 36.155C94.6023 36.155 94.6924 36.1737 94.7825 36.2112C94.8726 36.2413 94.9589 36.2976 95.0414 36.3801L96.5503 37.9678C95.8897 38.831 95.0602 39.4841 94.0618 39.927C93.071 40.3624 91.8962 40.5801 90.5375 40.5801C89.2914 40.5801 88.173 40.3699 87.1821 39.9495C86.1987 39.5216 85.3618 38.9361 84.6712 38.193C83.9881 37.4423 83.4626 36.5566 83.0948 35.5357C82.727 34.5073 82.543 33.3925 82.543 32.1915C82.543 30.9679 82.7532 29.8457 83.1736 28.8248C83.594 27.7964 84.1795 26.9106 84.9301 26.1675C85.6883 25.4243 86.5928 24.8463 87.6437 24.4335C88.6947 24.0206 89.8544 23.8142 91.123 23.8142C91.7386 23.8142 92.3166 23.8705 92.857 23.9831C93.405 24.0882 93.9155 24.2383 94.3884 24.4335C94.8613 24.6211 95.2967 24.8501 95.6945 25.1203C96.0924 25.3831 96.4452 25.6758 96.7529 25.9986L95.4693 27.7213C95.3867 27.8264 95.2892 27.924 95.1766 28.0141C95.064 28.0967 94.9063 28.138 94.7037 28.138C94.5685 28.138 94.4409 28.1079 94.3208 28.0479C94.2007 27.9878 94.0731 27.9165 93.938 27.8339C93.8029 27.7439 93.6527 27.65 93.4876 27.5524C93.33 27.4474 93.1385 27.3535 92.9133 27.271C92.6957 27.1809 92.4367 27.1058 92.1364 27.0458C91.8437 26.9857 91.4984 26.9557 91.1005 26.9557C90.4099 26.9557 89.7794 27.0795 89.2089 27.3273C88.6384 27.5675 88.1467 27.9165 87.7338 28.3744C87.3285 28.8248 87.0094 29.3728 86.7767 30.0183C86.5515 30.6639 86.4389 31.3883 86.4389 32.1915C86.4389 33.0322 86.5515 33.7791 86.7767 34.4322C87.0094 35.0853 87.321 35.637 87.7113 36.0874C88.1092 36.5303 88.5708 36.8681 89.0963 37.1008C89.6217 37.3335 90.1847 37.4498 90.7852 37.4498C91.1305 37.4498 91.4458 37.4348 91.7311 37.4048C92.0163 37.3673 92.279 37.3072 92.5192 37.2246C92.767 37.1421 92.9997 37.037 93.2174 36.9094C93.4426 36.7742 93.6678 36.6091 93.8929 36.4139C93.983 36.3389 94.0806 36.2788 94.1857 36.2338C94.2908 36.1812 94.3996 36.155 94.5122 36.155ZM114.481 32.1915C114.481 33.3775 114.275 34.481 113.862 35.5019C113.456 36.5228 112.882 37.4123 112.139 38.1705C111.396 38.9211 110.499 39.5104 109.448 39.9382C108.404 40.3661 107.245 40.5801 105.969 40.5801C104.692 40.5801 103.529 40.3661 102.478 39.9382C101.427 39.5104 100.526 38.9211 99.7757 38.1705C99.0325 37.4123 98.4545 36.5228 98.0417 35.5019C97.6363 34.481 97.4336 33.3775 97.4336 32.1915C97.4336 31.0055 97.6363 29.902 98.0417 28.8811C98.4545 27.8602 99.0325 26.9744 99.7757 26.2238C100.526 25.4731 101.427 24.8839 102.478 24.456C103.529 24.0281 104.692 23.8142 105.969 23.8142C107.245 23.8142 108.404 24.0319 109.448 24.4673C110.499 24.8951 111.396 25.4844 112.139 26.235C112.882 26.9857 113.456 27.8715 113.862 28.8924C114.275 29.9133 114.481 31.013 114.481 32.1915ZM110.585 32.1915C110.585 31.3808 110.48 30.6527 110.27 30.0071C110.06 29.354 109.756 28.8023 109.358 28.3519C108.967 27.9015 108.487 27.5562 107.917 27.316C107.346 27.0758 106.697 26.9557 105.969 26.9557C105.233 26.9557 104.576 27.0758 103.998 27.316C103.428 27.5562 102.943 27.9015 102.546 28.3519C102.155 28.8023 101.855 29.354 101.645 30.0071C101.435 30.6527 101.33 31.3808 101.33 32.1915C101.33 33.0097 101.435 33.7453 101.645 34.3984C101.855 35.044 102.155 35.592 102.546 36.0424C102.943 36.4927 103.428 36.838 103.998 37.0783C104.576 37.311 105.233 37.4273 105.969 37.4273C106.697 37.4273 107.346 37.311 107.917 37.0783C108.487 36.838 108.967 36.4927 109.358 36.0424C109.756 35.592 110.06 35.044 110.27 34.3984C110.48 33.7453 110.585 33.0097 110.585 32.1915ZM118.305 23.9943C118.47 23.9943 118.609 24.0019 118.722 24.0169C118.834 24.0319 118.935 24.0619 119.026 24.1069C119.116 24.1445 119.202 24.2008 119.285 24.2758C119.367 24.3509 119.461 24.4522 119.566 24.5799L127.358 34.4322C127.328 34.1169 127.305 33.8129 127.29 33.5202C127.275 33.2199 127.268 32.9384 127.268 32.6757V23.9943H130.623V40.3999H128.641C128.349 40.3999 128.101 40.3549 127.898 40.2648C127.696 40.1747 127.5 40.0096 127.313 39.7694L119.577 29.9958C119.6 30.2811 119.619 30.5626 119.634 30.8403C119.649 31.1106 119.656 31.3658 119.656 31.606V40.3999H116.301V23.9943H118.305ZM135.327 23.9943C135.492 23.9943 135.631 24.0019 135.743 24.0169C135.856 24.0319 135.957 24.0619 136.047 24.1069C136.137 24.1445 136.224 24.2008 136.306 24.2758C136.389 24.3509 136.483 24.4522 136.588 24.5799L144.38 34.4322C144.349 34.1169 144.327 33.8129 144.312 33.5202C144.297 33.2199 144.289 32.9384 144.289 32.6757V23.9943H147.645V40.3999H145.663C145.37 40.3999 145.123 40.3549 144.92 40.2648C144.717 40.1747 144.522 40.0096 144.334 39.7694L136.599 29.9958C136.621 30.2811 136.64 30.5626 136.655 30.8403C136.67 31.1106 136.678 31.3658 136.678 31.606V40.3999H133.322V23.9943H135.327ZM156.087 23.8142C156.897 23.8142 157.618 23.9305 158.248 24.1632C158.879 24.3884 159.412 24.6962 159.847 25.0865C160.283 25.4769 160.613 25.931 160.838 26.449C161.063 26.9594 161.176 27.4999 161.176 28.0704C161.176 28.5884 161.123 29.0463 161.018 29.4441C160.913 29.8344 160.756 30.176 160.545 30.4687C160.343 30.754 160.088 30.998 159.78 31.2006C159.48 31.4033 159.134 31.5722 158.744 31.7073C160.56 32.3379 161.469 33.5727 161.469 35.4118C161.469 36.2826 161.311 37.0407 160.996 37.6863C160.681 38.3318 160.256 38.8686 159.723 39.2964C159.198 39.7243 158.586 40.0471 157.888 40.2648C157.19 40.475 156.462 40.5801 155.704 40.5801C154.923 40.5801 154.229 40.4975 153.621 40.3323C153.013 40.1597 152.472 39.897 151.999 39.5442C151.526 39.1838 151.11 38.7259 150.749 38.1705C150.397 37.615 150.089 36.9544 149.826 36.1887L151.38 35.5582C151.515 35.4981 151.646 35.4568 151.774 35.4343C151.909 35.4118 152.041 35.4005 152.168 35.4005C152.408 35.4005 152.622 35.4493 152.81 35.5469C153.005 35.637 153.152 35.7721 153.249 35.9523C153.587 36.5753 153.943 37.0295 154.319 37.3147C154.702 37.5925 155.148 37.7313 155.659 37.7313C156.049 37.7313 156.387 37.6675 156.672 37.5399C156.965 37.4048 157.205 37.2359 157.393 37.0332C157.588 36.823 157.734 36.5866 157.832 36.3238C157.929 36.0611 157.978 35.7946 157.978 35.5244C157.978 35.1716 157.952 34.8563 157.899 34.5786C157.854 34.2933 157.719 34.0494 157.494 33.8467C157.269 33.644 156.927 33.4901 156.469 33.385C156.019 33.2724 155.388 33.2161 154.578 33.2161V30.8065C155.261 30.8065 155.813 30.754 156.233 30.6489C156.653 30.5438 156.976 30.4012 157.201 30.221C157.434 30.0334 157.588 29.8082 157.663 29.5454C157.738 29.2827 157.776 28.9937 157.776 28.6784C157.776 28.0329 157.618 27.5374 157.303 27.1921C156.995 26.8393 156.522 26.6629 155.884 26.6629C155.621 26.6629 155.381 26.7005 155.163 26.7755C154.946 26.8506 154.75 26.9519 154.578 27.0795C154.405 27.2071 154.255 27.3573 154.127 27.5299C154.007 27.7026 153.91 27.8902 153.835 28.0929C153.714 28.4307 153.561 28.6747 153.373 28.8248C153.193 28.9749 152.945 29.05 152.63 29.05C152.555 29.05 152.472 29.0463 152.382 29.0387C152.3 29.0312 152.213 29.02 152.123 29.005L150.276 28.6784C150.397 27.8602 150.626 27.1471 150.963 26.5391C151.309 25.931 151.733 25.4243 152.236 25.019C152.746 24.6136 153.328 24.3134 153.981 24.1182C154.634 23.9155 155.336 23.8142 156.087 23.8142ZM174.431 36.155C174.521 36.155 174.611 36.1737 174.701 36.2112C174.791 36.2413 174.877 36.2976 174.96 36.3801L176.469 37.9678C175.808 38.831 174.979 39.4841 173.98 39.927C172.989 40.3624 171.815 40.5801 170.456 40.5801C169.21 40.5801 168.091 40.3699 167.1 39.9495C166.117 39.5216 165.28 38.9361 164.589 38.193C163.906 37.4423 163.381 36.5566 163.013 35.5357C162.645 34.5073 162.461 33.3925 162.461 32.1915C162.461 30.9679 162.672 29.8457 163.092 28.8248C163.512 27.7964 164.098 26.9106 164.848 26.1675C165.607 25.4243 166.511 24.8463 167.562 24.4335C168.613 24.0206 169.773 23.8142 171.041 23.8142C171.657 23.8142 172.235 23.8705 172.775 23.9831C173.323 24.0882 173.834 24.2383 174.307 24.4335C174.78 24.6211 175.215 24.8501 175.613 25.1203C176.011 25.3831 176.364 25.6758 176.671 25.9986L175.388 27.7213C175.305 27.8264 175.207 27.924 175.095 28.0141C174.982 28.0967 174.825 28.138 174.622 28.138C174.487 28.138 174.359 28.1079 174.239 28.0479C174.119 27.9878 173.991 27.9165 173.856 27.8339C173.721 27.7439 173.571 27.65 173.406 27.5524C173.248 27.4474 173.057 27.3535 172.832 27.271C172.614 27.1809 172.355 27.1058 172.055 27.0458C171.762 26.9857 171.417 26.9557 171.019 26.9557C170.328 26.9557 169.698 27.0795 169.127 27.3273C168.557 27.5675 168.065 27.9165 167.652 28.3744C167.247 28.8248 166.928 29.3728 166.695 30.0183C166.47 30.6639 166.357 31.3883 166.357 32.1915C166.357 33.0322 166.47 33.7791 166.695 34.4322C166.928 35.0853 167.239 35.637 167.63 36.0874C168.027 36.5303 168.489 36.8681 169.015 37.1008C169.54 37.3335 170.103 37.4498 170.704 37.4498C171.049 37.4498 171.364 37.4348 171.649 37.4048C171.935 37.3673 172.197 37.3072 172.438 37.2246C172.685 37.1421 172.918 37.037 173.136 36.9094C173.361 36.7742 173.586 36.6091 173.811 36.4139C173.901 36.3389 173.999 36.2788 174.104 36.2338C174.209 36.1812 174.318 36.155 174.431 36.155ZM190.121 23.9943V27.012H185.504V40.3999H181.698V27.012H177.082V23.9943H190.121ZM195.495 34.3309V40.3999H191.689V23.9943H197.026C198.212 23.9943 199.222 24.1182 200.055 24.3659C200.895 24.6061 201.579 24.9439 202.104 25.3793C202.637 25.8147 203.024 26.3289 203.264 26.9219C203.504 27.5149 203.624 28.1605 203.624 28.8586C203.624 29.3916 203.553 29.8945 203.41 30.3674C203.268 30.8403 203.054 31.2794 202.768 31.6848C202.491 32.0826 202.145 32.4392 201.732 32.7545C201.327 33.0698 200.858 33.3287 200.325 33.5314C200.58 33.659 200.817 33.8167 201.034 34.0043C201.26 34.192 201.455 34.4209 201.62 34.6912L205.11 40.3999H201.665C201.027 40.3999 200.569 40.1597 200.291 39.6793L197.566 34.9164C197.446 34.7062 197.304 34.5561 197.138 34.466C196.981 34.3759 196.756 34.3309 196.463 34.3309H195.495ZM195.495 31.7073H197.026C197.544 31.7073 197.983 31.6435 198.343 31.5159C198.711 31.3808 199.011 31.1969 199.244 30.9642C199.477 30.7315 199.646 30.4612 199.751 30.1535C199.856 29.8382 199.908 29.5004 199.908 29.1401C199.908 28.4195 199.672 27.8565 199.199 27.4511C198.734 27.0458 198.009 26.8431 197.026 26.8431H195.495V31.7073Z" fill="white"/>
    <path d="M83.3177 56.7388H82.3936L85.0664 49.4597H85.9763L88.6491 56.7388H87.725L85.5498 50.6113H85.4929L83.3177 56.7388ZM83.6589 53.8954H87.3838V54.6773H83.6589V53.8954ZM91.415 49.4597V56.7388H90.5335V49.4597H91.415ZM101.479 51.2794C101.437 50.9193 101.264 50.6397 100.96 50.4406C100.657 50.2416 100.285 50.1421 99.8444 50.1421C99.5222 50.1421 99.2402 50.1942 98.9985 50.2985C98.7592 50.4027 98.572 50.5461 98.4369 50.7285C98.3042 50.911 98.2379 51.1183 98.2379 51.3505C98.2379 51.5448 98.2841 51.7119 98.3765 51.8517C98.4713 51.9891 98.5921 52.104 98.739 52.1964C98.8859 52.2865 99.04 52.3611 99.2011 52.4204C99.3622 52.4772 99.5103 52.5234 99.6454 52.559L100.385 52.758C100.574 52.8078 100.785 52.8765 101.017 52.9642C101.252 53.0518 101.476 53.1715 101.689 53.3231C101.905 53.4724 102.082 53.6643 102.222 53.8989C102.362 54.1335 102.432 54.4214 102.432 54.7626C102.432 55.1559 102.329 55.5114 102.123 55.8289C101.919 56.1464 101.62 56.3987 101.227 56.5859C100.836 56.7731 100.361 56.8667 99.8018 56.8667C99.2805 56.8667 98.8291 56.7826 98.4476 56.6144C98.0685 56.4461 97.7699 56.2116 97.5519 55.9106C97.3363 55.6097 97.2143 55.2602 97.1858 54.8621H98.0957C98.1194 55.137 98.2118 55.3645 98.373 55.5445C98.5364 55.7223 98.7426 55.8549 98.9914 55.9426C99.2426 56.0279 99.5127 56.0706 99.8018 56.0706C100.138 56.0706 100.44 56.0161 100.708 55.9071C100.976 55.7957 101.188 55.6417 101.344 55.445C101.501 55.246 101.579 55.0138 101.579 54.7484C101.579 54.5067 101.511 54.31 101.376 54.1584C101.241 54.0067 101.064 53.8835 100.843 53.7887C100.623 53.694 100.385 53.611 100.129 53.5399L99.2331 53.284C98.6644 53.1205 98.2142 52.8872 97.8825 52.5839C97.5507 52.2806 97.3849 51.8837 97.3849 51.3932C97.3849 50.9856 97.4951 50.6302 97.7154 50.3269C97.9382 50.0212 98.2367 49.7843 98.6111 49.6161C98.9878 49.4455 99.4084 49.3602 99.8728 49.3602C100.342 49.3602 100.759 49.4443 101.124 49.6125C101.489 49.7784 101.778 50.0058 101.991 50.2949C102.207 50.584 102.321 50.9122 102.332 51.2794H101.479ZM110.774 53.0992C110.774 53.8669 110.635 54.5304 110.358 55.0896C110.08 55.6488 109.7 56.08 109.217 56.3833C108.733 56.6866 108.181 56.8383 107.56 56.8383C106.94 56.8383 106.388 56.6866 105.904 56.3833C105.421 56.08 105.041 55.6488 104.763 55.0896C104.486 54.5304 104.347 53.8669 104.347 53.0992C104.347 52.3315 104.486 51.668 104.763 51.1088C105.041 50.5496 105.421 50.1184 105.904 49.8151C106.388 49.5118 106.94 49.3602 107.56 49.3602C108.181 49.3602 108.733 49.5118 109.217 49.8151C109.7 50.1184 110.08 50.5496 110.358 51.1088C110.635 51.668 110.774 52.3315 110.774 53.0992ZM109.921 53.0992C109.921 52.4689 109.815 51.937 109.604 51.5034C109.396 51.0697 109.113 50.7416 108.755 50.5188C108.399 50.2961 108.001 50.1847 107.56 50.1847C107.12 50.1847 106.721 50.2961 106.363 50.5188C106.007 50.7416 105.724 51.0697 105.513 51.5034C105.305 51.937 105.2 52.4689 105.2 53.0992C105.2 53.7295 105.305 54.2615 105.513 54.6951C105.724 55.1287 106.007 55.4569 106.363 55.6796C106.721 55.9023 107.12 56.0137 107.56 56.0137C108.001 56.0137 108.399 55.9023 108.755 55.6796C109.113 55.4569 109.396 55.1287 109.604 54.6951C109.815 54.2615 109.921 53.7295 109.921 53.0992ZM113.006 56.7388V49.4597H117.371V50.2416H113.888V52.7011H117.044V53.4831H113.888V56.7388H113.006ZM119.233 50.2416V49.4597H124.692V50.2416H122.404V56.7388H121.522V50.2416H119.233ZM128.126 56.7388L126.135 49.4597H127.031L128.552 55.3882H128.623L130.173 49.4597H131.168L132.718 55.3882H132.789L134.31 49.4597H135.206L133.215 56.7388H132.306L130.699 50.9382H130.642L129.036 56.7388H128.126ZM136.786 56.7388H135.862L138.535 49.4597H139.445L142.118 56.7388H141.194L139.018 50.6113H138.962L136.786 56.7388ZM137.128 53.8954H140.852V54.6773H137.128V53.8954ZM144.002 56.7388V49.4597H146.462C147.03 49.4597 147.497 49.5568 147.862 49.7511C148.227 49.9431 148.497 50.2073 148.672 50.5437C148.848 50.8802 148.935 51.2629 148.935 51.6917C148.935 52.1206 148.848 52.5009 148.672 52.8327C148.497 53.1644 148.228 53.425 147.866 53.6146C147.503 53.8018 147.04 53.8954 146.476 53.8954H144.486V53.0992H146.447C146.836 53.0992 147.149 53.0424 147.386 52.9286C147.625 52.8149 147.798 52.6538 147.905 52.4452C148.014 52.2344 148.068 51.9832 148.068 51.6917C148.068 51.4003 148.014 51.1456 147.905 50.9276C147.796 50.7096 147.622 50.5414 147.382 50.4229C147.143 50.302 146.827 50.2416 146.433 50.2416H144.884V56.7388H144.002ZM147.428 53.4689L149.22 56.7388H148.196L146.433 53.4689H147.428ZM151.155 56.7388V49.4597H155.548V50.2416H152.036V52.7011H155.32V53.4831H152.036V55.9568H155.605V56.7388H151.155ZM161.752 56.7388H160.827L163.5 49.4597H164.41L167.083 56.7388H166.159L163.984 50.6113H163.927L161.752 56.7388ZM162.093 53.8954H165.818V54.6773H162.093V53.8954ZM173.601 51.7344C173.523 51.4951 173.42 51.2806 173.292 51.0911C173.166 50.8991 173.016 50.7356 172.841 50.6006C172.668 50.4655 172.471 50.3625 172.251 50.2914C172.03 50.2203 171.789 50.1847 171.526 50.1847C171.094 50.1847 170.702 50.2961 170.349 50.5188C169.996 50.7416 169.715 51.0697 169.507 51.5034C169.298 51.937 169.194 52.4689 169.194 53.0992C169.194 53.7295 169.299 54.2615 169.51 54.6951C169.721 55.1287 170.007 55.4569 170.367 55.6796C170.727 55.9023 171.132 56.0137 171.582 56.0137C171.999 56.0137 172.367 55.9248 172.684 55.7471C173.004 55.5671 173.253 55.3135 173.431 54.9865C173.611 54.6572 173.701 54.2698 173.701 53.8243L173.971 53.8812H171.781V53.0992H174.554V53.8812C174.554 54.4806 174.426 55.0019 174.17 55.445C173.916 55.8881 173.566 56.2317 173.118 56.4758C172.672 56.7174 172.161 56.8383 171.582 56.8383C170.938 56.8383 170.372 56.6866 169.883 56.3833C169.398 56.08 169.019 55.6488 168.746 55.0896C168.476 54.5304 168.341 53.8669 168.341 53.0992C168.341 52.5234 168.418 52.0057 168.572 51.546C168.728 51.084 168.949 50.6906 169.233 50.366C169.517 50.0414 169.854 49.7926 170.242 49.6196C170.631 49.4466 171.059 49.3602 171.526 49.3602C171.909 49.3602 172.267 49.4182 172.599 49.5343C172.933 49.6481 173.23 49.8104 173.491 50.0212C173.754 50.2298 173.973 50.4797 174.149 50.7712C174.324 51.0603 174.445 51.3813 174.511 51.7344H173.601ZM176.814 56.7388V49.4597H181.207V50.2416H177.696V52.7011H180.98V53.4831H177.696V55.9568H181.264V56.7388H176.814ZM189.319 49.4597V56.7388H188.466L184.499 51.0235H184.428V56.7388H183.547V49.4597H184.4L188.38 55.1891H188.451V49.4597H189.319ZM197.69 51.7344H196.809C196.757 51.4809 196.666 51.2581 196.535 51.0662C196.407 50.8743 196.251 50.7131 196.066 50.5828C195.884 50.4501 195.681 50.3506 195.458 50.2843C195.236 50.2179 195.003 50.1847 194.762 50.1847C194.321 50.1847 193.922 50.2961 193.564 50.5188C193.209 50.7416 192.925 51.0697 192.715 51.5034C192.506 51.937 192.402 52.4689 192.402 53.0992C192.402 53.7295 192.506 54.2615 192.715 54.6951C192.925 55.1287 193.209 55.4569 193.564 55.6796C193.922 55.9023 194.321 56.0137 194.762 56.0137C195.003 56.0137 195.236 55.9805 195.458 55.9142C195.681 55.8478 195.884 55.7495 196.066 55.6192C196.251 55.4865 196.407 55.3242 196.535 55.1323C196.666 54.938 196.757 54.7152 196.809 54.4641H197.69C197.624 54.8361 197.503 55.169 197.328 55.4628C197.153 55.7566 196.935 56.0066 196.674 56.2127C196.413 56.4165 196.121 56.5717 195.796 56.6783C195.474 56.785 195.129 56.8383 194.762 56.8383C194.141 56.8383 193.589 56.6866 193.105 56.3833C192.622 56.08 192.242 55.6488 191.965 55.0896C191.687 54.5304 191.549 53.8669 191.549 53.0992C191.549 52.3315 191.687 51.668 191.965 51.1088C192.242 50.5496 192.622 50.1184 193.105 49.8151C193.589 49.5118 194.141 49.3602 194.762 49.3602C195.129 49.3602 195.474 49.4135 195.796 49.5201C196.121 49.6267 196.413 49.7831 196.674 49.9893C196.935 50.193 197.153 50.4418 197.328 50.7356C197.503 51.0271 197.624 51.36 197.69 51.7344ZM199.24 49.4597H200.249L202.268 52.8575H202.353L204.372 49.4597H205.382L202.752 53.739V56.7388H201.87V53.739L199.24 49.4597Z" fill="#DFDFDF"/>
</svg>
